<svg width="1360" height="527" viewBox="0 0 1360 527" fill="none" xmlns="http://www.w3.org/2000/svg">
<path d="M1211.73 521.449V423.953H944.25V355.559L1187.01 7.0452H1301.13V341.735H1360V423.953H1301.13V521.449H1211.73ZM1048.91 341.735H1211.73V102.359L1048.91 341.735Z" fill="url(#paint0_linear_3411_18167)"/>
<path d="M676.995 526.736C639.702 526.736 607.978 520.188 581.825 507.092C555.671 493.511 534.603 474.596 518.62 450.344C502.638 426.093 490.772 398.204 483.022 366.678C475.757 335.151 472.125 301.2 472.125 264.823C472.125 227.961 475.757 193.524 483.022 161.513C490.772 129.501 502.638 101.612 518.62 77.8463C535.087 53.5951 556.398 34.6792 582.551 21.0986C608.705 7.03288 640.428 4.57764e-05 677.721 4.57764e-05C715.983 4.57764e-05 748.191 7.27539 774.344 21.8261C800.982 36.3768 822.05 56.0203 837.549 80.7565C853.532 105.493 864.913 133.624 871.694 165.151C878.959 196.677 882.591 229.659 882.591 264.095C882.591 298.047 878.959 330.786 871.694 362.313C864.913 393.839 853.532 421.971 837.549 446.707C821.566 471.443 800.256 491.086 773.618 505.637C747.464 519.703 715.257 526.736 676.995 526.736ZM676.995 443.797C701.695 443.797 721.553 437.976 736.567 426.336C752.065 414.695 763.689 399.902 771.438 381.956C779.188 363.525 784.273 343.882 786.695 323.026C789.601 302.17 791.054 282.526 791.054 264.095C791.054 245.664 789.843 226.264 787.421 205.893C785 185.037 779.914 165.393 772.165 146.962C764.416 128.531 753.034 113.496 738.02 101.855C723.006 90.2144 702.906 84.3941 677.721 84.3941C652.536 84.3941 632.195 90.2144 616.696 101.855C601.682 113.496 590.301 128.531 582.551 146.962C574.802 164.908 569.475 184.309 566.569 205.165C564.147 226.021 562.936 245.664 562.936 264.095C562.936 282.526 564.147 302.17 566.569 323.026C568.99 343.397 573.833 362.798 581.098 381.229C588.848 399.659 600.229 414.695 615.243 426.336C630.742 437.976 651.326 443.797 676.995 443.797Z" fill="url(#paint1_linear_3411_18167)"/>
<path d="M267.476 521.449V423.953H0V355.559L242.764 7.0452H356.877V341.735H415.751V423.953H356.877V521.449H267.476ZM104.665 341.735H267.476V102.359L104.665 341.735Z" fill="url(#paint2_linear_3411_18167)"/>
<defs>
<linearGradient id="paint0_linear_3411_18167" x1="1167.72" y1="560.771" x2="1167.72" y2="-5326.11" gradientUnits="userSpaceOnUse">
<stop stop-color="#20202C"/>
<stop offset="1" stop-color="#597DA6"/>
</linearGradient>
<linearGradient id="paint1_linear_3411_18167" x1="692.75" y1="567" x2="692.751" y2="-5461" gradientUnits="userSpaceOnUse">
<stop stop-color="#20202C"/>
<stop offset="1" stop-color="#597DA6"/>
</linearGradient>
<linearGradient id="paint2_linear_3411_18167" x1="223.466" y1="560.771" x2="223.467" y2="-5326.11" gradientUnits="userSpaceOnUse">
<stop stop-color="#20202C"/>
<stop offset="1" stop-color="#597DA6"/>
</linearGradient>
</defs>
</svg>
