<svg width="798" height="798" viewBox="0 0 798 798" fill="none" xmlns="http://www.w3.org/2000/svg">
<g clip-path="url(#clip0_2375_799)">
<g filter="url(#filter0_f_2375_799)">
<path d="M5.99971 399.229C5.99971 381.378 7.18912 363.805 9.49301 346.585M5.99971 399.229C85.7621 683.183 523.658 680.79 685.575 595.045M5.99971 399.229C5.99971 431.383 9.85914 462.637 17.14 492.551M9.49301 346.585C67.1642 578.854 529.64 648.486 685.575 595.045M9.49301 346.585C12.5734 323.562 17.6461 301.169 24.532 279.585M685.575 595.045C662.725 637.186 601.187 730.641 537.838 767.332C505.69 773.747 476.724 769.529 454.652 753.058C390.491 705.178 409.403 571.322 496.893 454.081C584.383 336.841 707.321 280.613 771.482 328.493C778.123 333.449 784.015 339.373 788.893 346.058M685.575 595.045C723.297 550.957 793.322 424.761 771.65 272.677C766.342 266.606 760.671 261.077 753.995 256.461C675.658 202.296 532.207 274.009 433.588 416.637C334.969 559.264 318.526 718.797 396.863 772.962C410.678 782.514 426.456 787.944 443.718 789.968M685.575 595.045C737.713 518.899 812.929 321.691 696.693 142.035C694.992 140.701 693.18 139.473 691.39 138.239C600.985 75.9091 431.026 165.595 311.776 338.558C192.526 511.521 169.142 702.264 259.547 764.594C262.514 766.64 265.506 768.533 268.64 770.254M685.575 595.045C534.413 458.308 202.859 180.175 85.9424 161.537M685.575 595.045C512.52 502.388 146.141 292.028 65.0674 191.846M685.575 595.045C515.445 555.031 118.752 399.229 41.1388 236.513M685.575 595.045C443.718 608.206 41.1388 441.503 24.532 279.585M685.575 595.045C594.868 427.943 275.746 104.108 112.964 129.632M685.575 595.045C651.278 416.637 326.645 17.7317 147.179 97.3884M685.575 595.045C685.575 416.637 451.872 -8.35723 191.846 65.0677M685.575 595.045C724.659 369.717 508.104 -24.3097 249.674 35.4382M685.575 595.045C736.501 426.191 648.087 -9.15484 314.281 15.1992M685.575 595.045C737.435 444.693 749.621 112.519 454.652 9.87548M685.575 595.045C527.646 702.725 176.644 767.571 17.14 492.551M685.575 595.045C528.443 729.046 205.165 818.268 41.1388 561.944M685.575 595.045C589.063 695.076 358.948 859.856 108.001 663.459M685.575 595.045C631.321 651.278 482.979 860.654 197.828 737.037M685.575 595.045C613.39 695.076 530.34 785.182 379.288 791.96M685.575 595.045C672.016 630.037 633.251 709.014 586.67 744.994M685.575 595.045C677.975 626.172 654.509 695.477 621.45 723.69M685.575 595.045C683.995 617.199 676.323 668.219 658.279 695.076C628.273 710.032 599.48 712.278 580.127 697.835C543.566 670.552 553.998 594.737 603.428 528.499C652.859 462.26 722.568 430.681 759.129 457.964C770.961 466.794 777.745 480.76 780.004 497.785C764.938 529.641 710.774 575.899 685.575 595.045ZM685.575 595.045C689.298 612.8 694.509 652.395 685.575 668.737M685.575 595.045C692.67 606.079 705.767 632.693 701.402 650.879M685.575 595.045C694.551 601.559 713.28 618.017 716.387 631.736M685.575 595.045C691.269 597.022 708.304 602.894 730.893 610.572M685.575 595.045C702.091 594.912 737.01 593.211 744.559 587.468M685.575 595.045C701.44 590.127 737.854 576.939 756.588 563.539M685.575 595.045C711.241 581.655 764.2 549.6 770.715 528.499M685.575 595.045C716.515 565.064 780.757 492.381 790.211 441.503M685.575 595.045C715.217 561.913 778.05 473.804 792.252 386.421M685.575 595.045C744.18 459.733 792.803 198.761 580.127 49.9885M17.14 492.551C22.9996 516.625 31.0753 539.833 41.1388 561.944M594.868 740.412C563.41 751.318 534.638 749.852 514.409 734.756C465.052 697.924 483.231 590.088 555.012 493.898C626.794 397.708 724.995 349.589 774.352 386.421C782.05 392.166 787.88 399.785 792.345 408.672M737.435 198.498C647.03 136.168 483.606 216.474 372.307 377.905C261.009 539.335 244.071 720.728 334.476 783.058C337.212 784.944 339.953 786.815 342.819 788.441M626.772 78.4838C532.704 31.3158 369.588 130.635 255.184 307.334C144.724 477.941 118.742 660.268 190.472 732.531M551.397 36.5251C455.531 12.5087 308.519 108.789 203.35 271.224C95.8046 437.33 69.9056 616.724 136.633 691.932M77.5113 625.478C33.3493 541.766 62.3252 386.484 156.64 241.539C251.913 95.1233 383.773 5.47414 478.414 13.976M389.479 6.11849C302.011 17.9573 196.354 95.7705 118.752 215.03C43.8781 330.098 14.7382 462.789 34.8955 547.458M303.509 17.7317C229.752 42.5357 150.705 107.204 91.0279 198.917C31.3055 290.699 4.50958 389.242 11.7666 466.751M85.9424 161.537C78.5287 171.293 71.5602 181.406 65.0674 191.846M85.9424 161.537C94.3869 150.424 103.409 139.774 112.964 129.632M65.0674 191.846C56.1726 206.148 48.1705 221.063 41.1388 236.513M41.1388 236.513C34.794 250.454 29.2393 264.83 24.532 279.585M112.964 129.632C123.716 118.22 135.142 107.451 147.179 97.3884M147.179 97.3884C161.265 85.6131 176.189 74.8055 191.846 65.0677M191.846 65.0677C210.171 53.6713 229.501 43.7402 249.674 35.4382M249.674 35.4382C270.381 26.9162 291.976 20.1108 314.281 15.1992M314.281 15.1992C341.638 9.17535 370.062 6 399.228 6C418.041 6 436.545 7.32106 454.652 9.87548M454.652 9.87548C499.328 16.1778 541.592 29.9879 580.127 49.9885M41.1388 561.944C58.1275 599.271 80.781 633.476 108.001 663.459M108.001 663.459C134.075 692.18 164.339 717.028 197.828 737.037M197.828 737.037C251.384 769.035 313.186 788.659 379.288 791.96M379.288 791.96C385.893 792.29 392.541 792.457 399.228 792.457C467.098 792.457 530.951 775.263 586.67 744.994M586.67 744.994C598.653 738.484 610.26 731.369 621.45 723.69M621.45 723.69C644.759 707.696 666.257 689.255 685.575 668.737M685.575 668.737C691.027 662.947 696.305 656.992 701.402 650.879M701.402 650.879C706.588 644.658 711.586 638.274 716.387 631.736M716.387 631.736C721.445 624.849 726.283 617.791 730.893 610.572M730.893 610.572C735.702 603.042 740.261 595.336 744.559 587.468M744.559 587.468C748.83 579.649 752.843 571.669 756.588 563.539M756.588 563.539C761.836 552.143 766.556 540.452 770.715 528.499M770.715 528.499C780.359 500.781 786.989 471.651 790.211 441.503M790.211 441.503C791.696 427.615 792.457 413.511 792.457 399.229C792.457 394.943 792.388 390.673 792.252 386.421M792.252 386.421C787.564 239.899 702.718 113.617 580.127 49.9885M621.45 663.459C600.039 647.481 608.437 600.016 640.207 557.442C671.977 514.868 715.09 493.308 736.501 509.286C757.912 525.264 749.514 572.73 717.744 615.303C685.974 657.877 642.861 679.437 621.45 663.459Z" stroke="url(#paint0_linear_2375_799)"/>
</g>
</g>
<defs>
<filter id="filter0_f_2375_799" x="0.49971" y="0.5" width="797.457" height="797.457" filterUnits="userSpaceOnUse" color-interpolation-filters="sRGB">
<feFlood flood-opacity="0" result="BackgroundImageFix"/>
<feBlend mode="normal" in="SourceGraphic" in2="BackgroundImageFix" result="shape"/>
<feGaussianBlur stdDeviation="2.5" result="effect1_foregroundBlur_2375_799"/>
</filter>
<linearGradient id="paint0_linear_2375_799" x1="723.871" y1="144.911" x2="-48.9282" y2="308.297" gradientUnits="userSpaceOnUse">
<stop offset="0.230769" stop-color="#597DA6" stop-opacity="0.1"/>
<stop offset="0.758924" stop-color="#597DA6" stop-opacity="0.6"/>
<stop offset="1" stop-color="#597DA6" stop-opacity="0.2"/>
</linearGradient>
<clipPath id="clip0_2375_799">
<rect width="798" height="798" fill="white"/>
</clipPath>
</defs>
</svg>
