<svg width="1440" height="793" viewBox="0 0 1440 793" fill="none" xmlns="http://www.w3.org/2000/svg">
<g clip-path="url(#clip0_3087_4295)">
<mask id="mask0_3087_4295" style="mask-type:luminance" maskUnits="userSpaceOnUse" x="-144" y="0" width="1584" height="793">
<path d="M1440 0H-144V793H1440V0Z" fill="white"/>
</mask>
<g mask="url(#mask0_3087_4295)">
<path d="M950.5 1.42307e-05V108.34M950.5 108.34V206.289M950.5 108.34C928.728 108.319 907.382 107.534 886.531 106.089M950.5 108.34C969.42 108.359 988.659 107.801 1008.17 106.598M950.5 206.289V319.531M950.5 206.289C926.794 205.96 903.391 204.895 880.335 203.173M950.5 206.289C971.686 206.584 993.103 206.291 1014.74 205.358M886.531 106.089L893.3 1.42307e-05M886.531 106.089L880.335 203.173M886.531 106.089C858.966 104.178 832.264 101.113 806.579 97.1309M1008.17 106.598C1005.61 67.9494 1003.22 31.9208 1001.1 1.42307e-05M1008.17 106.598C1010.26 138.05 1012.47 171.237 1014.74 205.358M1008.17 106.598C1034.77 104.961 1061.88 102.128 1089.39 97.9301M950.5 319.531V461.26M950.5 319.531C924.419 319.205 898.61 318.218 873.096 316.625M950.5 319.531C974.205 319.825 998.141 319.575 1022.28 318.735M880.335 203.173L873.096 316.625M880.335 203.173C849.753 200.887 819.782 197.442 790.522 193.015M1014.74 205.358C1017.2 242.393 1019.73 280.526 1022.28 318.735M1014.74 205.358C1044.59 204.072 1074.86 201.565 1105.42 197.697M806.579 97.1309C812.455 62.1021 817.959 29.3468 822.9 1.42307e-05M806.579 97.1309C801.464 127.619 796.07 159.83 790.522 193.015M806.579 97.1309C771.447 91.6851 738.216 84.5247 707.279 76.2589M1089.39 97.9301C1119.72 93.2997 1150.57 87.0079 1181.75 78.8256M1089.39 97.9301C1083.55 61.5383 1078.23 28.4028 1073.7 1.42307e-05M1089.39 97.9301C1094.39 129.105 1099.78 162.671 1105.42 197.697M950.5 461.26V614.507M950.5 461.26C921.513 460.637 892.691 459.523 864.079 457.959M950.5 461.26C977.461 461.839 1004.57 461.993 1031.78 461.688M873.096 316.625L864.079 457.959M873.096 316.625C838.667 314.472 804.781 311.213 771.505 306.979M1022.28 318.735C1025.48 366.953 1028.69 415.29 1031.78 461.688M1022.28 318.735C1055.76 317.573 1089.64 315.28 1123.85 311.749M790.522 193.015C784.315 230.133 777.917 268.47 771.505 306.979M790.522 193.015C763.847 188.977 737.954 184.814 712.54 179.277M1105.42 197.697C1141.38 193.147 1177.79 186.714 1214.5 178.168M1105.42 197.697C1111.35 234.462 1117.55 272.837 1123.85 311.749M950.5 614.507V763.865M950.5 614.507C918.892 614.098 886.723 613.73 854.16 613.401M950.5 614.507C981.608 614.909 1012.18 615.353 1042.04 615.839M864.079 457.959L854.16 613.401M864.079 457.959C824.927 455.819 786.168 452.835 747.913 449.116M1031.78 461.688C1035.45 516.989 1038.95 569.533 1042.04 615.839M1031.78 461.688C1050.11 461.483 1068.68 461.474 1087.1 460.842M771.505 306.979C763.548 354.76 755.57 402.807 747.913 449.116M771.505 306.979C727.941 301.435 685.424 294.217 644.106 285.623M1123.85 311.749C1165.89 307.412 1208.43 301.207 1251.37 292.935M1123.85 311.749C1128.4 339.855 1133.45 368.33 1138.05 396.591M950.5 763.865V793M950.5 763.865C914.826 763.762 879.33 764.198 844.483 765.058M950.5 763.865C984.325 763.961 1018.3 764.54 1052.05 765.699M854.16 613.401L844.483 765.058M854.16 613.401C810.39 612.96 765.906 612.589 721.106 612.28M1042.04 615.839C1046.43 681.834 1050 735.151 1052.05 765.699M1042.04 615.839C1087.85 616.584 1132.01 617.432 1173.97 618.393M747.913 449.116C738.239 507.619 729.073 563.352 721.106 612.28M747.913 449.116C697.924 444.256 648.796 438.139 600.781 431.002M844.483 765.058L842.7 793M844.483 765.058C793.032 766.327 742.994 768.519 695.885 771.272M1052.05 765.699C1053.05 780.64 1053.69 790.134 1053.9 793M1052.05 765.699C1102.47 767.43 1152.35 770.456 1200.37 775.098M721.106 612.28C709.374 684.323 700.236 741.613 695.885 771.272M721.106 612.28C663.652 611.884 605.68 611.59 548.031 611.385M1173.97 618.393C1238.89 619.878 1298.52 621.633 1350.77 623.695M1173.97 618.393C1168.61 586.05 1162.6 550.741 1156.75 515.021M1173.97 618.393C1184.32 680.906 1193.47 735.377 1200.37 775.098M695.885 771.272C694.08 783.577 693.1 791.127 693.1 793M695.885 771.272C621.493 775.619 554.402 781.359 500.575 787.057M1200.37 775.098C1246.03 779.511 1289.98 785.387 1331.1 793M1200.37 775.098C1201.48 781.451 1202.52 787.428 1203.5 793M707.279 76.2589C664.054 64.7098 625.307 51.0025 592.112 36.7981M707.279 76.2589C715.596 48.8715 723.402 23.2429 730.5 1.42307e-05M707.279 76.2589C701.382 95.6741 695.592 115.621 689.25 136.581M644.106 285.623C592.441 274.876 542.649 261.976 495.028 247.496M644.106 285.623C652.594 257.303 661.034 229.226 669.292 201.825M644.106 285.623C629.583 334.08 614.919 383.253 600.781 431.002M600.781 431.002C541.032 422.12 483.006 411.66 427.187 400.081M600.781 431.002C581.687 495.492 563.554 557.381 548.031 611.385M548.031 611.385C477.121 611.132 406.699 611.012 338.333 610.997M548.031 611.385C523.64 696.241 505.691 761.63 500.575 787.057M500.575 787.057C481.618 789.065 464.307 791.066 448.9 793M500.575 787.057C500.108 789.376 499.749 791.361 499.5 793M592.112 36.7981C598.233 23.7868 604.046 11.4868 609.5 1.42307e-05M592.112 36.7981C578.763 65.1801 563.951 96.9467 548.214 131.042M592.112 36.7981C563.483 24.5467 538.982 11.9255 519.3 1.42307e-05M495.028 247.496C513.382 206.869 531.331 167.616 548.214 131.042M495.028 247.496C472.619 297.099 449.605 348.751 427.187 400.081M495.028 247.496C432.369 228.446 373.469 206.663 319.004 183.461M427.187 400.081C395.19 473.342 364.408 545.946 338.333 610.997M427.187 400.081C380.144 390.322 333.744 380.08 290.126 369.003M338.333 610.997C308.785 684.706 285.281 748.72 272.9 793M338.333 610.997C254.665 610.977 174.078 611.115 99.4422 611.355M548.214 131.042C490.751 110.13 439.119 86.6428 394.711 62.9918M548.214 131.042C579.294 142.353 612.28 152.807 646.55 162.23M394.711 62.9918C410.946 38.4272 425.528 17.2485 437.9 1.42307e-05M394.711 62.9918C372.164 97.1045 346.432 137.747 319.004 183.461M394.711 62.9918C354.41 41.5284 320.059 19.9303 292.7 1.42307e-05M319.004 183.461C243.062 151.109 175.744 115.997 118.892 81.6831M319.004 183.461C299.21 216.453 278.498 252.564 257.5 290.292M118.892 81.6831C147.731 42.6996 171.261 15.5118 187.1 1.42307e-05M118.892 81.6831C71.7497 53.2301 31.8021 25.3261 0.100128 1.42307e-05M118.892 81.6831C85.2561 127.151 44.3997 188.663 0.100128 266.411M99.4422 611.355C128.608 542.387 159.654 474.921 192.05 411.215M99.4422 611.355C74.1741 671.108 50.8838 732.089 30.9001 793M99.4422 611.355C64.9636 611.465 31.7552 611.598 0.100128 611.748M157.774 331.608C100.21 314.217 47.4531 296.448 0.100128 278.946M1181.75 78.8256C1171.8 49.0157 1162.79 22.4252 1155.1 1.42307e-05M1181.75 78.8256C1191.82 108.973 1202.85 142.413 1214.5 178.168M1181.75 78.8256C1219.89 68.8166 1258.57 55.9785 1297.47 39.8923M1214.5 178.168C1226.29 214.387 1238.71 252.982 1251.37 292.935M1214.5 178.168C1258.26 167.981 1302.45 154.791 1346.84 138.209M1251.37 292.935C1266.78 341.621 1282.56 392.324 1297.98 443.201M1251.37 292.935C1290.65 285.368 1330.74 276.246 1370.61 265.067M1350.77 623.695C1334.47 565.39 1316.47 504.17 1297.98 443.201M1350.77 623.695C1367.76 684.499 1382.93 742.131 1394.9 793M1350.77 623.695C1384.05 625.008 1414.35 626.448 1441.1 628.021M1297.47 39.8923C1325.46 28.3262 1353.56 15.0806 1381.7 1.42307e-05M1297.47 39.8923C1288.44 22.574 1281.22 9.14746 1276.1 1.42307e-05M1297.47 39.8923C1310.53 64.9236 1327.32 98.0854 1346.84 138.209M1346.84 138.209C1378.18 126.504 1409.63 113.11 1441.1 97.8876M1346.84 138.209C1359.39 163.978 1373.05 192.619 1387.59 223.822M1297.98 443.201C1267.59 447.2 1237.17 450.509 1206.8 453.17M1297.98 443.201C1345.77 436.915 1393.54 428.923 1441.1 419.047M1432.48 245.819C1435.6 244.798 1437.99 244.114 1441.1 243.069M1415.25 282.651C1423.88 301.726 1432.08 321.554 1441.1 342.057M1440 0V1055.87H-144M1105.6 455.892C1105.6 433.113 1124.07 414.648 1146.85 414.648C1169.63 414.648 1188.1 433.113 1188.1 455.892C1188.1 478.672 1169.63 497.137 1146.85 497.137C1124.07 497.137 1105.6 478.672 1105.6 455.892ZM1086.9 455.892C1086.9 422.787 1113.74 395.95 1146.85 395.95C1179.96 395.95 1206.8 422.787 1206.8 455.892C1206.8 488.997 1179.96 515.835 1146.85 515.835C1113.74 515.835 1086.9 488.997 1086.9 455.892ZM645.8 169.379C645.8 150.548 661.067 135.283 679.9 135.283C698.733 135.283 714 150.548 714 169.379C714 188.209 698.733 203.474 679.9 203.474C661.067 203.474 645.8 188.209 645.8 169.379ZM1368.5 253.518C1368.5 235.599 1383.03 221.072 1400.95 221.072C1418.87 221.072 1433.4 235.599 1433.4 253.518C1433.4 271.437 1418.87 285.964 1400.95 285.964C1383.03 285.964 1368.5 271.437 1368.5 253.518ZM155.2 350.306C155.2 312.341 185.98 281.564 223.95 281.564C261.92 281.564 292.7 312.341 292.7 350.306C292.7 388.271 261.92 419.047 223.95 419.047C185.98 419.047 155.2 388.271 155.2 350.306ZM180.981 350.306C180.981 326.577 200.219 307.343 223.95 307.343C247.68 307.342 266.918 326.577 266.918 350.306C266.918 374.034 247.68 393.269 223.95 393.269C200.219 393.27 180.981 374.034 180.981 350.306Z" stroke="#EAEBED" stroke-opacity="0.1"/>
<path d="M1146.85 483.939C1162.34 483.939 1174.9 471.382 1174.9 455.892C1174.9 440.403 1162.34 427.846 1146.85 427.846C1131.36 427.846 1118.8 440.403 1118.8 455.892C1118.8 471.382 1131.36 483.939 1146.85 483.939Z" fill="#D9D9D9" fill-opacity="0.1"/>
</g>
</g>
<defs>
<clipPath id="clip0_3087_4295">
<rect width="1440" height="793" fill="white"/>
</clipPath>
</defs>
</svg>
