<svg width="650" height="650" viewBox="0 0 650 650" fill="none" xmlns="http://www.w3.org/2000/svg">
<g clip-path="url(#clip0_2375_800)">
<path d="M325 1.3457C339.692 1.3457 354.156 2.32467 368.329 4.22093M325 1.3457C91.2863 66.9956 93.2556 427.413 163.83 560.684M325 1.3457C298.534 1.3457 272.81 4.52227 248.19 10.5149M368.329 4.22093C177.157 51.6883 119.844 432.337 163.83 560.684M368.329 4.22093C387.279 6.75631 405.71 10.9315 423.474 16.599M163.83 560.684C129.145 541.875 52.2249 491.225 22.0257 439.085C16.7458 412.626 20.2172 388.785 33.774 370.618C73.1825 317.808 183.355 333.375 279.853 405.385C376.35 477.395 422.629 578.581 383.22 631.391C379.141 636.856 374.265 641.706 368.763 645.72M163.83 560.684C200.117 591.73 303.986 649.366 429.161 631.528C434.158 627.16 438.708 622.491 442.507 616.997C487.09 552.52 428.065 434.45 310.672 353.28C193.28 272.11 61.9735 258.576 17.3917 323.053C9.52944 334.424 5.06016 347.409 3.39438 361.618M163.83 560.684C226.503 603.596 388.818 665.504 536.689 569.833C537.787 568.434 538.796 566.943 539.812 565.469C591.114 491.059 517.296 351.172 374.936 253.021C232.575 154.87 75.5807 135.623 24.2788 210.032C22.595 212.475 21.037 214.937 19.6209 217.516M163.83 560.684C276.374 436.266 505.296 163.375 520.637 67.144M163.83 560.684C240.092 418.247 413.233 116.692 495.69 49.9625M163.83 560.684C196.764 420.654 325 94.1489 458.926 30.2676M163.83 560.684C152.998 361.618 290.206 30.2676 423.474 16.599M163.83 560.684C301.366 486.025 567.905 223.366 546.896 89.3849M163.83 560.684C310.672 532.454 638.998 265.259 573.436 117.546M163.83 560.684C310.672 560.684 660.471 368.329 600.037 154.31M163.83 560.684C349.291 592.851 673.602 414.612 624.424 201.906M163.83 560.684C302.809 602.598 661.128 529.828 641.083 255.083M163.83 560.684C287.58 603.367 560.981 613.397 645.465 370.618M163.83 560.684C75.2019 430.697 21.8286 141.797 248.19 10.5149M163.83 560.684C53.5374 431.352 -19.8981 165.272 191.074 30.2676M163.83 560.684C81.4972 481.246 -54.1284 291.847 107.52 85.2999M163.83 560.684C117.546 516.027 -54.785 393.932 46.9608 159.234M163.83 560.684C81.4972 501.27 7.33381 432.913 1.7547 308.587M163.83 560.684C135.029 549.523 70.0253 517.617 40.4116 479.277M163.83 560.684C138.21 554.427 81.1671 535.113 57.9456 507.904M163.83 560.684C145.596 559.382 103.602 553.068 81.4972 538.216C69.1875 513.519 67.3389 489.821 79.2261 473.892C101.682 443.799 164.083 452.386 218.602 493.07C273.121 533.755 299.113 591.131 276.656 621.224C269.389 630.962 257.894 636.545 243.882 638.405C217.663 626.004 179.588 581.423 163.83 560.684ZM163.83 560.684C149.216 563.746 116.626 568.035 103.176 560.684M163.83 560.684C154.748 566.523 132.843 577.302 117.874 573.709M163.83 560.684C158.468 568.07 144.922 583.486 133.63 586.044M163.83 560.684C162.203 565.369 157.37 579.391 151.049 597.982M163.83 560.684C163.939 574.277 165.34 603.018 170.066 609.23M163.83 560.684C167.878 573.741 178.733 603.713 189.761 619.131M163.83 560.684C174.85 581.808 201.234 625.397 218.602 630.758M163.83 560.684C188.507 586.149 248.33 639.024 290.206 646.805M163.83 560.684C191.099 585.081 263.62 636.797 335.541 648.486M163.83 560.684C275.2 608.919 489.999 648.94 612.448 473.892M248.19 10.5149C228.375 15.3378 209.273 21.9846 191.074 30.2676M44.1824 486.025C35.2059 460.133 36.4129 436.451 48.838 419.802C79.1535 379.177 167.91 394.14 247.081 453.221C326.252 512.302 365.857 593.128 335.541 633.753C330.814 640.088 324.542 644.887 317.228 648.563M490.216 603.367C541.517 528.957 475.419 394.449 342.551 302.842C209.684 211.235 60.3837 197.294 9.08167 271.704C7.52932 273.955 5.98978 276.212 4.65107 278.571M588.996 512.285C627.818 434.859 546.071 300.604 400.636 206.442C260.214 115.526 110.147 94.1401 50.6689 153.179M623.53 450.245C643.297 371.341 564.052 250.34 430.357 163.778C293.64 75.2613 145.986 53.9446 84.0851 108.866M138.781 60.2046C207.682 23.8563 335.49 47.7055 454.789 125.333C575.3 203.749 649.088 312.279 642.09 390.175M648.557 316.975C638.813 244.984 574.767 158.02 476.609 94.1489C381.9 32.5222 272.685 8.53808 202.996 25.1288M638.998 246.217C618.583 185.51 565.356 120.448 489.871 71.3299C414.327 22.1741 333.22 0.119227 269.424 6.09222M520.637 67.144C512.606 61.0421 504.283 55.3065 495.69 49.9625M520.637 67.144C529.784 74.0944 538.549 81.5203 546.896 89.3849M495.69 49.9625C483.919 42.6414 471.643 36.0552 458.926 30.2676M458.926 30.2676C447.452 25.0454 435.618 20.4735 423.474 16.599M546.896 89.3849C556.29 98.2341 565.153 107.639 573.436 117.546M573.436 117.546C583.127 129.14 592.022 141.423 600.037 154.31M600.037 154.31C609.417 169.393 617.592 185.302 624.424 201.906M624.424 201.906C631.439 218.95 637.04 236.724 641.083 255.083M641.083 255.083C646.041 277.598 648.654 300.994 648.654 325C648.654 340.484 647.567 355.714 645.465 370.618M645.465 370.618C640.277 407.39 628.911 442.175 612.448 473.892M191.074 30.2676C160.351 44.2504 132.199 62.8959 107.52 85.2999M107.52 85.2999C83.881 106.761 63.4296 131.67 46.9608 159.234M46.9608 159.234C20.624 203.314 4.47206 254.181 1.7547 308.587M1.7547 308.587C1.48317 314.024 1.34576 319.496 1.34576 325C1.34576 380.861 15.4976 433.417 40.4116 479.277M40.4116 479.277C45.7697 489.14 51.6256 498.694 57.9456 507.904M57.9456 507.904C71.1103 527.088 86.2885 544.783 103.176 560.684M103.176 560.684C107.941 565.17 112.843 569.514 117.874 573.709M117.874 573.709C122.995 577.978 128.249 582.092 133.63 586.044M133.63 586.044C139.299 590.207 145.109 594.189 151.049 597.982M151.049 597.982C157.248 601.94 163.59 605.694 170.066 609.23M170.066 609.23C176.501 612.747 183.07 616.049 189.761 619.131M189.761 619.131C199.141 623.451 208.763 627.336 218.602 630.758M218.602 630.758C241.415 638.697 265.391 644.154 290.206 646.805M290.206 646.805C301.636 648.027 313.245 648.654 325 648.654C328.527 648.654 332.041 648.598 335.541 648.486M335.541 648.486C456.14 644.626 560.078 574.792 612.448 473.892M107.52 507.904C120.671 490.28 159.739 497.193 194.779 523.341C229.82 549.491 247.567 584.976 234.415 602.598C221.264 620.221 182.196 613.309 147.156 587.16C112.115 561.01 94.3692 525.527 107.52 507.904Z" stroke="url(#paint0_linear_2375_800)"/>
</g>
<defs>
<linearGradient id="paint0_linear_2375_800" x1="534.322" y1="592.202" x2="399.843" y2="-43.8636" gradientUnits="userSpaceOnUse">
<stop offset="0.230769" stop-color="#C32F33" stop-opacity="0.1"/>
<stop offset="0.758924" stop-color="#C32F33" stop-opacity="0.6"/>
<stop offset="1" stop-color="#C32F33" stop-opacity="0.2"/>
</linearGradient>
<clipPath id="clip0_2375_800">
<rect width="650" height="650" fill="white"/>
</clipPath>
</defs>
</svg>
