<svg width="349" height="340" viewBox="0 0 349 340" fill="none" xmlns="http://www.w3.org/2000/svg">
<path d="M173.807 0.000719139C182.322 -0.0227121 190.723 0.563655 198.961 1.7188L199.011 1.70682L199.107 1.73973C203.799 2.40175 208.439 3.24695 213.017 4.27188C213.033 4.2756 213.05 4.2789 213.066 4.28262C213.25 4.31865 213.436 4.36252 213.623 4.41155C218.873 5.60653 224.041 7.03375 229.112 8.68636C232.868 9.91065 236.573 11.2575 240.218 12.7226C243.886 14.1971 247.496 15.791 251.041 17.5005C254.438 19.1391 257.776 20.8846 261.049 22.7312C264.156 24.4841 267.206 26.3285 270.192 28.2619C273.127 30.1617 276.002 32.1475 278.812 34.2151C283.262 37.4897 287.55 40.9716 291.661 44.6467L291.725 44.6798L291.764 44.7396C296.813 49.2602 301.595 54.0724 306.077 59.1552C309.994 63.5974 313.683 68.2454 317.125 73.0833C321.616 79.3966 325.684 86.0337 329.287 92.9595L329.312 92.9931L329.324 93.031C338.537 110.765 344.691 130.392 347.041 151.326C347.363 154.197 347.61 157.06 347.783 159.911C349.516 188.449 343.859 215.911 332.361 240.414C325.17 255.736 315.696 269.9 304.317 282.447C299.542 287.712 294.431 292.69 289.014 297.351L289.024 297.366C288.99 297.388 288.955 297.409 288.921 297.431C280.885 304.336 272.173 310.542 262.877 315.935C253.634 321.297 243.813 325.858 233.504 329.508C229.855 330.8 226.143 331.977 222.376 333.036L222.376 333.039C222.364 333.041 222.352 333.043 222.34 333.046C212.894 335.698 203.09 337.605 192.988 338.686C185.135 339.527 177.348 339.844 169.661 339.666C159.385 339.429 149.29 338.306 139.463 336.367C132.746 335.041 126.154 333.333 119.716 331.266C112.58 328.975 105.633 326.243 98.9133 323.099C94.0076 320.803 89.2229 318.288 84.5737 315.565C79.278 312.464 74.1583 309.092 69.2362 305.468C63.6979 301.39 58.4095 296.992 53.4029 292.298C47.5438 286.806 42.0706 280.908 37.0321 274.645C31.1352 267.314 25.8337 259.483 21.2089 251.213C17.2372 244.111 13.7665 236.684 10.8427 228.975C10.842 228.973 10.841 228.972 10.8403 228.971L10.8404 228.97C10.2703 227.466 9.71924 225.952 9.19124 224.427C5.22248 212.965 2.45491 200.91 1.04942 188.388C0.142953 180.311 -0.16747 172.303 0.083812 164.408C0.703979 144.928 4.74407 126.13 11.6874 108.642C19.7 88.461 31.5793 70.0254 46.531 54.2982L46.5539 54.2634L46.6021 54.2236C61.6696 38.3936 79.8519 25.3123 100.339 15.9651L100.376 15.9279L100.48 15.9015C115.66 8.99217 132.102 4.13151 149.479 1.71973C151.343 1.461 153.217 1.23002 155.102 1.02819C161.385 0.355453 167.626 0.0177049 173.807 0.000719139ZM154.473 330.773C150.38 333.01 146.21 334.71 141.973 335.819C150.984 337.472 160.214 338.438 169.598 338.66C172.78 337.514 175.868 336.193 178.865 334.712C170.938 333.94 162.776 332.628 154.473 330.773ZM130.322 323.947C127.279 326.45 124.192 328.688 121.065 330.639C127.104 332.537 133.277 334.118 139.562 335.362C144.105 334.4 148.584 332.736 152.983 330.436C145.516 328.713 137.941 326.551 130.322 323.947ZM198.005 335.527C192.411 335.613 186.644 335.401 180.74 334.886C178.012 336.295 175.207 337.57 172.322 338.703C179.088 338.759 185.929 338.431 192.821 337.695C194.579 337.002 196.307 336.279 198.005 335.527ZM107.007 314.622C104.572 317.606 102.227 320.239 99.9869 322.488C106.4 325.457 113.018 328.05 119.81 330.24C122.983 328.31 126.117 326.077 129.209 323.566C121.825 321.002 114.404 318.022 107.007 314.622ZM211.449 334.711C207.906 335.097 204.27 335.352 200.553 335.471C199.227 336.086 197.881 336.682 196.518 337.261C201.576 336.615 206.555 335.763 211.449 334.711ZM168.72 320.612C164.511 324.328 160.195 327.492 155.786 330.036C164.227 331.876 172.512 333.15 180.543 333.863C185.579 331.242 190.35 328.159 194.865 324.663C186.38 323.843 177.622 322.495 168.72 320.612ZM216.297 325.608C209.866 325.685 203.182 325.415 196.312 324.797C191.919 328.275 187.279 331.363 182.384 334.017C188.535 334.5 194.53 334.65 200.325 334.473C205.988 331.837 211.307 328.871 216.297 325.608ZM141.586 313.311C138.193 316.931 134.738 320.237 131.226 323.194C138.999 325.829 146.723 328 154.327 329.712C158.81 327.227 163.208 324.084 167.503 320.35C158.954 318.498 150.278 316.153 141.586 313.311ZM239.731 323.604C232.987 324.747 225.757 325.405 218.158 325.575C213.371 328.792 208.278 331.734 202.865 334.372C209.595 334.052 216.04 333.283 222.126 332.066C225.844 331.02 229.506 329.858 233.109 328.585C235.38 326.951 237.587 325.29 239.731 323.604ZM87.0123 304.347C86.0939 308.212 85.5261 311.726 85.3452 314.849C89.786 317.439 94.3497 319.84 99.0253 322.039C101.269 319.81 103.622 317.18 106.072 314.189C104.299 313.366 102.527 312.52 100.758 311.649C96.0433 309.325 91.4583 306.887 87.0123 304.347ZM115.555 303.273C112.838 307.132 110.202 310.66 107.662 313.817C115.147 317.247 122.655 320.245 130.121 322.817C133.649 319.882 137.123 316.586 140.538 312.967C132.186 310.197 123.825 306.967 115.555 303.273ZM68.1604 292.406C68.3235 296.771 68.9162 300.9 69.9723 304.759C74.6046 308.163 79.4136 311.339 84.3789 314.279C84.599 311.146 85.1892 307.649 86.1107 303.827C79.8386 300.209 73.8464 296.391 68.1604 292.406ZM182.933 305.534C178.646 310.87 174.213 315.649 169.65 319.78C178.636 321.653 187.467 322.98 196.009 323.764C201.057 319.736 205.779 315.187 210.186 310.186C201.389 309.215 192.269 307.666 182.933 305.534ZM91.102 290.855C89.5098 295.318 88.218 299.49 87.2598 303.33C91.7664 305.911 96.4171 308.389 101.204 310.748C103.043 311.654 104.885 312.533 106.727 313.386C109.265 310.243 111.903 306.72 114.627 302.859C111.905 301.63 109.192 300.354 106.494 299.024C101.211 296.421 96.0772 293.692 91.102 290.855ZM234.183 311.39C228.066 311.483 221.709 311.247 215.16 310.679C213.912 310.571 212.658 310.449 211.397 310.317C207.059 315.296 202.413 319.844 197.446 323.889C204.474 324.486 211.299 324.714 217.847 324.578C223.755 320.587 229.192 316.173 234.183 311.39ZM154.651 297.489C150.645 302.924 146.539 307.952 142.339 312.502C151.097 315.349 159.836 317.69 168.438 319.528C173.036 315.426 177.514 310.65 181.853 305.285C172.947 303.213 163.849 300.615 154.651 297.489ZM250.985 321.119C248.046 321.935 244.98 322.641 241.8 323.236C240.07 324.624 238.297 325.997 236.482 327.351C241.438 325.483 246.276 323.401 250.985 321.119ZM255.618 309.542C249.332 310.587 242.653 311.193 235.651 311.362C230.77 316.122 225.456 320.529 219.687 324.531C227.354 324.289 234.625 323.543 241.375 322.295C246.484 318.185 251.226 313.929 255.618 309.542ZM48.2714 276.717C49.4545 281.992 51.386 286.976 54.1403 291.611C58.7574 295.936 63.616 300.008 68.6896 303.808C67.7537 299.997 67.2472 295.946 67.1366 291.686C60.3961 286.908 54.0935 281.897 48.2714 276.717ZM126.663 286.441C123.051 292.226 119.536 297.584 116.145 302.436C124.473 306.149 132.891 309.388 141.294 312.159C145.508 307.624 149.631 302.597 153.659 297.149C144.724 294.078 135.697 290.508 126.663 286.441ZM274.503 304.624C269.213 306.593 263.463 308.133 257.321 309.244C253.042 313.59 248.425 317.811 243.457 321.891C248.024 320.962 252.339 319.797 256.361 318.398C258.383 317.33 260.38 316.227 262.35 315.085C266.671 311.684 270.718 308.193 274.503 304.624ZM69.1672 276.944C68.4012 281.899 68.0414 286.647 68.1249 291.152C73.8906 295.22 79.9771 299.119 86.3582 302.81C87.331 298.959 88.6321 294.792 90.2223 290.348C82.8363 286.102 75.8055 281.618 69.1672 276.944ZM98.698 272.206C95.8773 278.483 93.4391 284.403 91.4459 289.895C96.4509 292.752 101.619 295.502 106.941 298.124C109.686 299.477 112.447 300.774 115.217 302.021C118.606 297.179 122.124 291.822 125.745 286.027C122.597 284.599 119.448 283.11 116.303 281.56C110.251 278.578 104.378 275.452 98.698 272.206ZM197.047 285.152C194.341 289.629 191.56 293.888 188.704 297.898C187.037 300.238 185.345 302.495 183.629 304.662C193.009 306.786 202.166 308.32 210.989 309.266C216.079 303.376 220.742 296.88 224.999 289.89C215.983 288.894 206.629 287.315 197.047 285.152ZM251.342 291.122C247.409 291.212 243.375 291.17 239.251 290.994C234.96 290.81 230.571 290.481 226.097 290.009C221.875 296.984 217.247 303.482 212.196 309.391C213.22 309.495 214.238 309.592 215.253 309.68C222.155 310.278 228.835 310.505 235.237 310.367C241.253 304.463 246.606 298.015 251.342 291.122ZM33.9358 262.566C34.9753 266.412 36.277 270.247 37.8565 274.067C42.1682 279.422 46.8003 284.508 51.7211 289.3C49.5142 284.977 47.9605 280.39 47.0054 275.58C42.3199 271.34 37.9555 266.991 33.9358 262.566ZM167.256 278.577C163.373 284.973 159.374 291.017 155.273 296.638C164.5 299.764 173.624 302.356 182.549 304.416C184.354 302.15 186.137 299.783 187.891 297.32C190.671 293.416 193.382 289.272 196.021 284.92C186.907 282.826 177.591 280.205 168.168 277.057C167.864 277.565 167.562 278.073 167.256 278.577ZM272.998 289.093C266.589 290.208 259.757 290.873 252.578 291.09C247.906 297.967 242.626 304.411 236.698 310.329C243.783 310.112 250.519 309.441 256.833 308.315C262.887 302.143 268.259 295.72 272.998 289.093ZM46.9357 259.315C46.6507 264.784 46.9607 270.046 47.9256 275.057C53.8257 280.378 60.2372 285.526 67.1137 290.434C67.0782 285.937 67.4731 281.214 68.2571 276.3C60.6017 270.861 53.4757 265.173 46.9357 259.315ZM283.509 300.617C281.418 301.719 279.229 302.736 276.947 303.669C274.264 306.272 271.445 308.834 268.486 311.352C273.703 308.03 278.717 304.445 283.509 300.617ZM74.1433 256.603C71.9823 263.279 70.3595 269.714 69.3448 275.839C76.0267 280.562 83.1129 285.096 90.5672 289.388C92.5712 283.882 95.013 277.965 97.8272 271.707C89.4969 266.913 81.5866 261.857 74.1433 256.603ZM138.999 265.728C137.618 268.144 136.248 270.515 134.887 272.836C132.285 277.272 129.718 281.528 127.199 285.581C136.265 289.658 145.321 293.231 154.284 296.301C158.427 290.639 162.47 284.534 166.401 278.059C166.668 277.619 166.932 277.176 167.198 276.733C157.869 273.583 148.44 269.913 138.999 265.728ZM293.325 283.453C287.581 285.771 281.241 287.567 274.402 288.84C269.748 295.439 264.474 301.841 258.534 307.998C264.972 306.752 270.951 305.023 276.392 302.815C282.801 296.581 288.428 290.112 293.325 283.453ZM109.109 250.704C107.382 254.062 105.728 257.356 104.155 260.58C102.366 264.247 100.681 267.819 99.1118 271.285C104.801 274.539 110.685 277.67 116.75 280.659C119.925 282.224 123.103 283.726 126.28 285.167C128.815 281.091 131.401 276.805 134.025 272.332C135.368 270.043 136.72 267.704 138.082 265.321C134.414 263.683 130.746 261.966 127.082 260.171C120.91 257.146 114.914 253.983 109.109 250.704ZM307.056 276.105C303.467 278.623 299.467 280.824 295.102 282.71C290.405 289.249 285.018 295.609 278.893 301.749C282.27 300.239 285.42 298.531 288.323 296.628C293.713 291.993 298.798 287.042 303.548 281.807C304.759 279.9 305.928 277.999 307.056 276.105ZM30.8639 243.278C31.164 249.013 31.9922 254.745 33.393 260.457C37.4657 265.042 41.9117 269.552 46.7063 273.948C45.8694 268.995 45.6468 263.816 45.9821 258.455C40.512 253.498 35.4616 248.423 30.8639 243.278ZM50.6493 238.026C48.6959 244.921 47.4525 251.614 47.0122 258.03C53.5703 263.948 60.7304 269.7 68.4391 275.199C69.4841 269.065 71.1252 262.643 73.2894 255.998C65.157 250.214 57.5893 244.195 50.6493 238.026ZM20.3737 245.463C20.8976 247.228 21.4727 248.992 22.1034 250.755C26.1383 257.966 30.6907 264.842 35.7067 271.34C34.4134 267.883 33.3409 264.416 32.4786 260.941C27.9771 255.859 23.931 250.683 20.3737 245.463ZM209.759 261.352C205.915 269.454 201.851 277.122 197.59 284.247C207.188 286.401 216.553 287.965 225.572 288.943C226.177 287.935 226.775 286.918 227.364 285.889C230.919 279.677 234.17 273.11 237.13 266.266C228.295 265.183 219.138 263.545 209.759 261.352ZM264.372 267.833C261.278 267.876 258.121 267.836 254.907 267.714C249.482 267.508 243.892 267.065 238.163 266.39C235.158 273.364 231.853 280.055 228.231 286.384C227.716 287.283 227.194 288.175 226.667 289.06C230.962 289.504 235.178 289.815 239.301 289.992C243.656 290.178 247.906 290.214 252.037 290.102C256.761 283.093 260.858 275.636 264.372 267.833ZM181.244 253.171C177.207 261.2 173.022 268.903 168.698 276.174C178.129 279.318 187.45 281.931 196.565 284.014C200.835 276.897 204.911 269.229 208.765 261.118C199.762 258.979 190.559 256.33 181.244 253.171ZM286.714 265.89C280.066 267.02 272.958 267.661 265.474 267.813C261.994 275.6 257.941 283.051 253.267 290.065C260.519 289.815 267.396 289.103 273.821 287.929C278.825 280.794 283.104 273.428 286.714 265.89ZM82.9228 234.242C81.8578 236.583 80.8428 238.907 79.8795 241.211C77.831 246.11 76.0197 250.915 74.4704 255.603C81.9353 260.884 89.8749 265.967 98.242 270.787C99.8057 267.336 101.481 263.784 103.257 260.143C104.839 256.902 106.503 253.589 108.24 250.212C99.3281 245.142 90.8708 239.795 82.9228 234.242ZM152.205 241.789C147.914 249.816 143.668 257.538 139.5 264.851C148.953 269.039 158.393 272.705 167.73 275.851C172.059 268.584 176.248 260.88 180.29 252.846C171.007 249.665 161.616 245.98 152.205 241.789ZM307.2 260.249C301.364 262.611 294.904 264.419 287.922 265.679C284.365 273.195 280.149 280.542 275.222 287.665C282.22 286.3 288.664 284.377 294.451 281.901C299.48 274.872 303.708 267.636 307.2 260.249ZM16.5964 224.945C17.0277 230.732 17.982 236.536 19.5006 242.339C23.1099 247.9 27.2853 253.425 31.9846 258.851C30.7353 253.271 30.023 247.677 29.8038 242.083C24.8381 236.428 20.4203 230.695 16.5964 224.945ZM32.4494 219.913C31.1198 227.148 30.5369 234.42 30.7945 241.69C35.4217 246.939 40.5267 252.12 46.073 257.182C46.5756 250.777 47.8567 244.121 49.8217 237.286C43.7096 231.803 38.0925 226.204 33.0151 220.548C32.8255 220.337 32.6375 220.124 32.4494 219.913ZM122.109 226.63C117.623 234.602 113.418 242.358 109.57 249.809C115.369 253.086 121.358 256.247 127.526 259.269C131.209 261.074 134.897 262.798 138.583 264.444C142.75 257.133 146.998 249.411 151.291 241.381C147.672 239.757 144.051 238.059 140.432 236.286C134.138 233.202 128.025 229.975 122.109 226.63ZM318.255 254.632C315.272 256.516 312.036 258.197 308.57 259.677C305.187 266.984 301.094 274.147 296.23 281.114C300.699 279.065 304.75 276.67 308.333 273.932C312.118 267.411 315.414 260.976 318.255 254.632ZM59.0681 215.661C57.6415 218.751 56.3249 221.819 55.127 224.86C53.517 228.948 52.122 232.984 50.9586 236.954C57.8962 243.146 65.4706 249.189 73.6185 254.998C75.1564 250.372 76.9435 245.642 78.956 240.829C79.9471 238.459 80.9939 236.068 82.0919 233.659C73.8409 227.853 66.145 221.827 59.0681 215.661ZM15.7873 238.253C16.9341 240.782 18.1406 243.277 19.4076 245.736C19.1127 244.742 18.8349 243.748 18.573 242.755C17.6033 241.257 16.6749 239.755 15.7873 238.253ZM310.865 273.186C310.288 273.671 309.697 274.145 309.094 274.609C308.581 275.492 308.059 276.376 307.528 277.261C308.661 275.919 309.774 274.561 310.865 273.186ZM273.213 243.51C271.592 243.539 269.954 243.544 268.299 243.524C261.508 243.44 254.432 242.939 247.133 242.029C244.616 250.088 241.77 257.92 238.576 265.428C244.178 266.082 249.645 266.511 254.952 266.712C258.311 266.84 261.604 266.874 264.825 266.821C268.137 259.333 270.919 251.532 273.213 243.51ZM220.164 237.01C217.042 245.12 213.714 252.952 210.199 260.424C219.573 262.608 228.721 264.234 237.541 265.304C240.745 257.8 243.601 249.967 246.127 241.901C237.73 240.813 229.044 239.183 220.164 237.01ZM8.19648 210.366C8.6223 214.862 9.26799 219.45 10.1489 224.128C10.6661 225.621 11.2057 227.103 11.7635 228.575C13.5186 232.271 15.5387 235.972 17.8089 239.663C16.5497 234.178 15.7838 228.696 15.4765 223.234C12.7111 218.941 10.2774 214.643 8.19648 210.366ZM17.725 200.93C16.519 208.201 16.0713 215.542 16.4659 222.916C20.2769 228.806 24.7241 234.688 29.7542 240.495C29.5919 233.3 30.2393 226.11 31.6065 218.96C26.361 212.988 21.7165 206.954 17.725 200.93ZM95.4155 209.826C90.9278 217.784 86.8762 225.642 83.3502 233.315C91.3036 238.878 99.7719 244.237 108.7 249.317C112.55 241.864 116.754 234.108 121.239 226.138C112.142 220.96 103.515 215.497 95.4155 209.826ZM328.107 246.725C325.642 249.254 322.862 251.554 319.793 253.627C317.114 259.74 314.017 265.936 310.47 272.211C311.965 270.941 313.369 269.605 314.673 268.201C319.68 261.389 324.174 254.211 328.107 246.725ZM296.06 241.232C289.266 242.548 281.964 243.3 274.257 243.488C271.978 251.504 269.213 259.305 265.923 266.801C273.457 266.627 280.59 265.955 287.237 264.785C290.848 257.089 293.769 249.218 296.06 241.232ZM192.667 228.738C189.148 236.807 185.489 244.679 181.698 252.265C191.011 255.419 200.21 258.061 209.204 260.191C212.724 252.722 216.059 244.887 219.186 236.769C210.499 234.608 201.63 231.931 192.667 228.738ZM316.244 234.95C310.502 237.575 304.105 239.594 297.163 241.013C294.899 248.996 292.012 256.868 288.442 264.567C295.5 263.25 301.996 261.362 307.826 258.907C311.428 251.067 314.209 243.06 316.244 234.95ZM164.95 217.323C160.843 225.394 156.744 233.283 152.681 240.9C162.087 245.087 171.471 248.767 180.745 251.94C184.539 244.354 188.2 236.478 191.723 228.401C182.859 225.211 173.906 221.518 164.95 217.323ZM39.3547 196.383C36.4077 203.743 34.1498 211.183 32.6857 218.665C33.0415 219.069 33.4004 219.471 33.7618 219.874C38.7155 225.392 44.1869 230.858 50.1348 236.216C51.2802 232.36 52.6395 228.45 54.1963 224.497C55.4364 221.349 56.8025 218.172 58.2853 214.974C51.3525 208.884 45.022 202.661 39.3547 196.383ZM72.0489 191.646C67.2838 199.401 63.0665 207.119 59.51 214.712C66.5767 220.883 74.2675 226.917 82.5194 232.73C86.0529 225.056 90.1077 217.2 94.5948 209.248C86.5307 203.562 78.9964 197.67 72.0489 191.646ZM136.342 202.154C131.548 210.165 126.944 218.058 122.602 225.755C128.502 229.091 134.598 232.308 140.877 235.384C144.506 237.163 148.138 238.864 151.766 240.492C155.832 232.87 159.935 224.975 164.046 216.896C159.828 214.904 155.608 212.802 151.398 210.587C146.241 207.874 141.219 205.059 136.342 202.154ZM327.681 228.263C324.567 230.574 321.132 232.621 317.408 234.405C315.428 242.495 312.713 250.486 309.191 258.315C312.723 256.746 315.999 254.961 318.994 252.96C322.657 244.564 325.526 236.328 327.681 228.263ZM8.25229 184.038C7.4729 191.556 7.34965 199.372 7.95316 207.49C10.029 212.043 12.5133 216.631 15.3856 221.218C15.1276 213.996 15.6648 206.811 16.9183 199.699C13.5191 194.453 10.6188 189.217 8.25229 184.038ZM3.72838 199.703C4.84762 205.826 6.29839 211.821 8.0599 217.672C7.57615 214.316 7.21362 211.008 6.96696 207.749C5.74427 205.054 4.66303 202.37 3.72838 199.703ZM336.915 219.478C334.602 222.333 331.945 224.933 328.974 227.277C326.894 235.314 324.111 243.521 320.545 251.886C324.092 249.343 327.212 246.479 329.859 243.292C330.398 242.207 330.926 241.118 331.442 240.021C333.682 232.947 335.494 226.102 336.915 219.478ZM24.3105 177.329C21.4628 184.607 19.3202 192.005 17.9751 199.482C21.9383 205.561 26.5806 211.663 31.8524 217.715C33.3642 210.269 35.651 202.868 38.611 195.554C37.8094 194.656 37.02 193.758 36.2457 192.858C31.8059 187.698 27.817 182.507 24.3105 177.329ZM279.682 211.981C278.366 212.037 277.038 212.078 275.699 212.099C269.059 212.204 262.145 211.883 255.021 211.137C252.949 221.322 250.43 231.349 247.437 241.055C254.638 241.947 261.619 242.437 268.318 242.52C270.064 242.542 271.791 242.535 273.498 242.501C276.271 232.603 278.308 222.374 279.682 211.981ZM230.398 207.029C229.06 211.473 227.664 215.871 226.208 220.209C224.402 225.59 222.504 230.882 220.525 236.064C229.39 238.228 238.056 239.851 246.43 240.929C249.426 231.235 251.948 221.213 254.022 211.028C246.359 210.185 238.457 208.853 230.398 207.029ZM110.565 185.014C105.315 193.031 100.402 201.037 95.9138 208.946C104.008 214.618 112.634 220.082 121.733 225.262C126.081 217.557 130.689 209.658 135.486 201.641C126.684 196.362 118.359 190.794 110.565 185.014ZM301.996 209.11C295.35 210.622 288.216 211.563 280.697 211.934C279.329 222.326 277.303 232.563 274.541 242.479C282.281 242.275 289.589 241.499 296.366 240.155C299.22 229.944 301.055 219.553 301.996 209.11ZM204.474 199.621C200.862 209.183 197.056 218.624 193.068 227.814C202.022 231.001 210.878 233.671 219.549 235.824C221.538 230.62 223.444 225.304 225.259 219.896C226.706 215.586 228.092 211.219 229.422 206.806C221.237 204.916 212.893 202.522 204.474 199.621ZM51.7816 171.894C47.0694 179.579 43.0233 187.414 39.7739 195.346C45.4378 201.651 51.7761 207.904 58.7281 214.025C62.2979 206.433 66.5214 198.724 71.285 190.982C64.1295 184.73 57.6073 178.339 51.7816 171.894ZM320.566 202.767C315.235 205.329 309.357 207.364 303.022 208.872C302.099 219.315 300.288 229.71 297.465 239.929C304.442 238.469 310.841 236.395 316.549 233.707C319.009 223.509 320.299 213.154 320.566 202.767ZM178.887 189.313C177.926 191.285 176.965 193.253 176.001 195.215C172.479 202.382 168.94 209.471 165.407 216.426C174.347 220.613 183.282 224.297 192.125 227.478C196.111 218.295 199.918 208.857 203.53 199.295C195.358 196.444 187.118 193.117 178.887 189.313ZM1.53036 162.631C1.37896 163.246 1.22839 163.863 1.08215 164.484C0.835281 172.315 1.14568 180.257 2.0449 188.27C2.20008 189.652 2.37244 191.029 2.56078 192.4C3.60282 196.484 5.01368 200.627 6.77441 204.804C6.34732 196.996 6.5917 189.47 7.44321 182.223C4.55061 175.556 2.55475 168.993 1.53036 162.631ZM88.8163 167.099C82.9233 174.967 77.471 182.889 72.5831 190.779C79.5152 196.797 87.0374 202.686 95.0929 208.369C99.5896 200.45 104.509 192.437 109.763 184.416C102.266 178.815 95.2673 173.02 88.8163 167.099ZM152.694 175.516C150.82 178.498 148.961 181.475 147.122 184.446C143.624 190.098 140.196 195.723 136.858 201.292C141.719 204.187 146.725 206.994 151.867 209.698C156.073 211.911 160.289 214.01 164.503 216C168.039 209.041 171.579 201.949 175.103 194.777C176.064 192.821 177.023 190.859 177.981 188.892C173.898 186.988 169.817 184.966 165.749 182.827C161.282 180.477 156.928 178.035 152.694 175.516ZM13.6911 158.494C11.2259 165.994 9.45519 173.852 8.47135 182.071C10.8043 187.408 13.7202 192.819 17.182 198.252C18.59 190.846 20.7712 183.523 23.6338 176.322C19.6516 170.336 16.3194 164.371 13.6911 158.494ZM332.769 195.209C329.4 197.881 325.654 200.233 321.576 202.271C321.343 212.632 320.104 222.964 317.71 233.146C321.5 231.275 324.971 229.123 328.092 226.693C330.866 215.877 332.359 205.373 332.769 195.209ZM341.419 212.816C340.483 214.501 339.447 216.115 338.316 217.66C337.32 222.543 336.111 227.547 334.676 232.673C337.331 226.227 339.588 219.598 341.419 212.816ZM36.7247 152.87C31.98 160.462 27.9514 168.256 24.7589 176.198C28.3297 181.524 32.4232 186.873 37.0063 192.2C37.672 192.973 38.3476 193.747 39.0337 194.519C42.3106 186.6 46.372 178.784 51.087 171.121C48.573 168.311 46.1904 165.493 43.9473 162.67C41.3532 159.406 38.9433 156.135 36.7247 152.87ZM340.951 187.19C338.826 189.788 336.435 192.182 333.8 194.373C333.453 204.476 332.046 214.913 329.385 225.657C332.423 223.134 335.099 220.329 337.381 217.243C339.525 206.665 340.666 196.657 340.951 187.19ZM128.487 159.302C127.409 160.761 126.34 162.224 125.279 163.688C120.354 170.488 115.615 177.334 111.118 184.172C118.897 189.944 127.209 195.506 136.001 200.779C139.342 195.206 142.772 189.577 146.272 183.922C148.108 180.956 149.965 177.982 151.836 175.004C143.574 170.048 135.774 164.788 128.487 159.302ZM69.5527 147.169C63.1733 154.904 57.3809 162.869 52.3314 171.003C58.1448 177.454 64.6625 183.853 71.8201 190.115C76.7208 182.215 82.1818 174.287 88.079 166.419C81.2621 160.112 75.0669 153.667 69.5527 147.169ZM238.424 176.741C236.145 186.651 233.558 196.465 230.69 206.066C238.72 207.88 246.59 209.205 254.219 210.041C254.935 206.472 255.601 202.884 256.209 199.284C257.279 192.947 258.18 186.573 258.925 180.203C252.28 179.467 245.424 178.313 238.424 176.741ZM281.889 181.041C280.217 181.116 278.523 181.16 276.808 181.171C271.375 181.206 265.729 180.919 259.919 180.31C259.172 186.699 258.269 193.091 257.195 199.445C256.591 203.027 255.929 206.597 255.217 210.149C262.273 210.884 269.118 211.2 275.689 211.096C277.077 211.074 278.452 211.031 279.814 210.972C280.5 205.609 281.013 200.205 281.359 194.782C281.652 190.209 281.824 185.624 281.889 181.041ZM8.06112 141.623C5.82981 147.478 3.86075 153.623 2.17814 160.072C2.97794 166.584 4.84275 173.344 7.6929 180.239C8.76953 172.187 10.5986 164.484 13.0919 157.126C10.8331 151.868 9.14272 146.684 8.06112 141.623ZM214.937 170.047C211.919 179.159 208.72 188.279 205.349 197.298C205.177 197.76 205.002 198.22 204.829 198.68C213.229 201.574 221.551 203.961 229.713 205.843C232.582 196.242 235.171 186.429 237.449 176.52C230.074 174.825 222.543 172.668 214.937 170.047ZM302.304 178.239C296.288 179.709 289.782 180.626 282.891 180.991C282.827 185.61 282.653 190.231 282.358 194.839C282.014 200.224 281.506 205.594 280.827 210.924C288.354 210.544 295.473 209.589 302.087 208.064C302.926 198.128 302.962 188.149 302.304 178.239ZM346.891 178.082C346.589 178.656 346.279 179.224 345.968 179.787C344.788 181.923 343.456 183.951 341.986 185.876C341.784 195.131 340.768 204.902 338.798 215.216C339.433 214.251 340.033 213.263 340.594 212.247C341.335 210.906 342.006 209.566 342.598 208.178C344.932 198.409 346.389 188.346 346.891 178.082ZM192.431 161.008C188.124 170.165 183.743 179.336 179.327 188.409C187.531 192.2 195.742 195.514 203.884 198.353C204.059 197.886 204.237 197.419 204.411 196.951C207.78 187.938 210.977 178.824 213.993 169.719C206.847 167.223 199.638 164.32 192.431 161.008ZM318.552 172.284C313.953 174.667 308.837 176.568 303.292 177.992C303.958 187.901 303.934 197.881 303.111 207.822C309.444 206.293 315.301 204.234 320.59 201.645C320.773 191.847 320.052 182.025 318.552 172.284ZM25.5241 132.827C20.9275 140.444 17.0944 148.527 14.1661 157.081C16.751 163.034 20.0758 169.095 24.09 175.191C27.3189 167.28 31.367 159.52 36.116 151.967C31.8133 145.534 28.2598 139.127 25.5241 132.827ZM108.662 142.664C107.525 143.963 106.396 145.266 105.279 146.573C99.7282 153.066 94.4182 159.657 89.4211 166.291C95.8526 172.198 102.834 177.983 110.315 183.575C114.813 176.738 119.549 169.897 124.47 163.103C125.535 161.633 126.609 160.165 127.691 158.7C120.88 153.531 114.523 148.165 108.662 142.664ZM169.614 149.103C164.077 157.59 158.59 166.141 153.227 174.664C157.441 177.171 161.773 179.599 166.219 181.938C170.277 184.073 174.348 186.089 178.42 187.988C182.836 178.915 187.217 169.745 191.525 160.588C187.611 158.77 183.696 156.834 179.795 154.775C176.323 152.943 172.929 151.049 169.614 149.103ZM55.3668 128.009C48.6094 135.695 42.5384 143.698 37.3095 151.944C39.5783 155.303 42.0547 158.674 44.7317 162.042C46.9044 164.776 49.2095 167.507 51.6388 170.23C56.7102 162.089 62.5163 154.124 68.8985 146.397C65.2712 142.077 61.9448 137.737 58.9382 133.399C57.6925 131.602 56.5023 129.804 55.3668 128.009ZM330.606 163.79C327.388 166.865 323.66 169.531 319.488 171.788C321.006 181.523 321.75 191.342 321.599 201.142C325.708 199.05 329.461 196.629 332.816 193.885C333.14 183.482 332.332 173.44 330.606 163.79ZM6.67831 126.873C4.2914 135.708 2.62636 144.802 1.74225 154.082C1.76401 155.135 1.81762 156.196 1.89896 157.264C3.58133 151.169 5.52046 145.349 7.69768 139.793C6.87753 135.376 6.52782 131.058 6.67831 126.873ZM147.672 134.599C141.296 142.42 135.069 150.414 129.085 158.493C136.35 163.963 144.127 169.21 152.369 174.154C157.73 165.632 163.218 157.082 168.754 148.596C161.298 144.179 154.255 139.491 147.672 134.599ZM91.0646 123.976C83.6326 131.171 76.626 138.66 70.2029 146.384C75.6978 152.87 81.8784 159.307 88.6839 165.609C93.6779 158.983 98.9807 152.403 104.52 145.924C105.648 144.604 106.788 143.289 107.936 141.978C101.731 136.101 96.0899 130.075 91.0646 123.976ZM338.278 154.017C336.409 157.289 334.128 160.265 331.47 162.943C333.241 172.592 334.102 182.63 333.841 193.027C336.499 190.743 338.89 188.244 340.992 185.531C341.214 174.27 340.224 163.782 338.278 154.017ZM20.2367 116.445C15.9065 123.673 12.0479 131.474 8.73534 139.885C9.71365 145.031 11.3406 150.324 13.5813 155.708C16.5662 147.242 20.4334 139.24 25.0425 131.696C22.8711 126.52 21.2573 121.421 20.2367 116.445ZM244.314 146.813C242.73 156.479 240.831 166.163 238.645 175.761C245.612 177.326 252.433 178.474 259.041 179.206C260.159 169.432 260.903 159.669 261.298 150.057C255.789 149.33 250.109 148.248 244.314 146.813ZM280.785 151.117C278.61 151.184 276.389 151.184 274.129 151.116C270.294 150.999 266.341 150.687 262.293 150.183C261.897 159.79 261.153 169.546 260.035 179.314C265.808 179.918 271.414 180.204 276.808 180.169C278.528 180.158 280.227 180.113 281.902 180.037C282.003 170.342 281.61 160.659 280.785 151.117ZM224.116 140.523C221.369 149.949 218.412 159.514 215.252 169.092C222.829 171.703 230.328 173.853 237.671 175.54C239.858 165.933 241.757 156.24 243.34 146.567C237.039 144.967 230.607 142.952 224.116 140.523ZM298.365 148.841C293.243 150.097 287.684 150.842 281.787 151.081C282.61 160.62 283.002 170.298 282.902 179.987C289.787 179.62 296.264 178.698 302.234 177.227C302.219 177.019 302.206 176.811 302.19 176.604C301.497 167.25 300.191 157.965 298.365 148.841ZM44.8859 107.656C37.8011 115.095 31.4909 123.133 26.1653 131.777C28.8562 138.097 32.389 144.546 36.7039 151.039C41.9617 142.795 48.0513 134.801 54.8143 127.129C50.7381 120.58 47.407 114.06 44.8859 107.656ZM342.824 141.968C342.047 145.688 340.796 149.259 339.023 152.657C341.055 162.421 342.139 172.906 342.014 184.162C343.133 182.609 344.162 180.991 345.093 179.305C345.774 178.073 346.436 176.858 346.993 175.61C347.168 170.453 347.102 165.247 346.784 160.005C345.778 153.681 344.448 147.678 342.824 141.968ZM205.62 132.532C201.47 141.629 197.202 150.855 192.858 160.099C200.03 163.394 207.201 166.281 214.307 168.764C217.47 159.177 220.431 149.604 223.179 140.17C217.353 137.956 211.483 135.409 205.62 132.532ZM129.928 119.917C122.834 127.035 115.927 134.393 109.324 141.906C115.163 147.388 121.498 152.737 128.287 157.891C134.27 149.815 140.496 141.822 146.872 134.001C140.816 129.459 135.156 124.745 129.928 119.917ZM311.937 143.744C308.15 145.784 303.925 147.399 299.337 148.595C301.176 157.772 302.492 167.114 303.189 176.524C303.2 176.675 303.21 176.826 303.221 176.978C308.754 175.545 313.837 173.632 318.388 171.239C318.263 170.458 318.133 169.678 317.999 168.898C316.534 160.418 314.483 152.01 311.937 143.744ZM77.9388 105.624C70.0874 112.471 62.7452 119.694 56.0601 127.224C57.2335 129.087 58.4666 130.955 59.7615 132.823C62.7183 137.089 65.9876 141.359 69.5507 145.61C75.989 137.879 83.0021 130.389 90.4293 123.201C86.681 118.599 83.2832 113.957 80.2578 109.309C79.4587 108.081 78.6858 106.853 77.9388 105.624ZM187.313 122.424C181.603 130.9 175.858 139.545 170.165 148.261C173.453 150.191 176.821 152.07 180.266 153.888C184.153 155.939 188.054 157.868 191.953 159.679C196.301 150.428 200.572 141.194 204.725 132.091C200.862 130.173 197.003 128.113 193.164 125.909C191.181 124.77 189.231 123.607 187.313 122.424ZM19.3139 98.0649C16.9881 101.564 14.7491 105.22 12.6043 109.038C10.936 113.242 9.43845 117.523 8.11512 121.871C7.39592 127.024 7.51039 132.428 8.40636 138.014C11.7508 129.757 15.6243 122.093 19.953 114.984C18.8867 109.141 18.6529 103.476 19.3139 98.0649ZM322.692 135.528C319.912 138.541 316.601 141.112 312.834 143.248C315.42 151.616 317.501 160.131 318.985 168.721C319.101 169.392 319.213 170.065 319.321 170.737C323.502 168.442 327.213 165.731 330.389 162.605C328.627 153.194 325.994 144.159 322.692 135.528ZM114.22 103.549C107.976 108.584 101.889 113.833 96.0315 119.267C94.6034 120.592 93.1886 121.927 91.7892 123.274C96.7922 129.352 102.412 135.359 108.597 141.22C115.199 133.71 122.104 126.354 129.195 119.238C123.701 114.113 118.695 108.861 114.22 103.549ZM168.956 109.722C161.986 117.489 155.067 125.556 148.31 133.82C154.863 138.688 161.876 143.356 169.304 147.755C175.001 139.032 180.749 130.381 186.463 121.898C180.269 118.04 174.421 113.962 168.956 109.722ZM40.0349 90.3464C33.03 97.7349 26.6345 105.984 21.0076 115.171C21.955 120.203 23.5283 125.377 25.6919 130.644C31.0586 122.038 37.3942 114.036 44.4891 106.629C42.3799 101.092 40.8808 95.645 40.0349 90.3464ZM329.23 125.469C328.597 126.942 327.864 128.376 327.025 129.768C325.97 131.517 324.772 133.155 323.443 134.687C326.773 143.312 329.441 152.338 331.246 161.74C333.759 159.126 335.913 156.237 337.667 153.073C337.77 152.888 337.87 152.702 337.969 152.516C335.918 142.792 332.918 133.793 329.23 125.469ZM68.6017 86.868C60.3499 92.9636 52.634 99.6254 45.6506 106.859C48.1319 113.249 51.4359 119.774 55.5085 126.345C62.2133 118.811 69.5653 111.591 77.4156 104.754C73.8355 98.7668 70.8804 92.7813 68.6017 86.868ZM276.652 120.775C275.714 120.75 274.766 120.712 273.809 120.658C270.127 120.451 266.305 120.024 262.374 119.382C262.731 129.029 262.729 139.016 262.335 149.177C266.384 149.684 270.336 149.996 274.167 150.112C276.386 150.18 278.565 150.18 280.697 150.116C279.8 140.124 278.428 130.293 276.652 120.775ZM248.263 116.27C247.348 126.02 246.076 135.907 244.474 145.817C250.231 147.246 255.871 148.324 261.339 149.049C261.732 138.872 261.73 128.871 261.366 119.213C257.11 118.482 252.73 117.5 248.263 116.27ZM290.72 119.899C286.662 120.566 282.29 120.862 277.676 120.794C279.443 130.299 280.807 140.111 281.7 150.082C287.577 149.847 293.095 149.106 298.163 147.861C296.212 138.322 293.697 128.966 290.72 119.899ZM232.19 110.893C229.829 120.201 227.228 129.802 224.398 139.556C230.851 141.973 237.242 143.979 243.5 145.572C245.102 135.65 246.371 125.754 247.283 115.997C242.336 114.598 237.288 112.895 232.19 110.893ZM154.263 97.0718C146.268 104.088 138.345 111.503 130.638 119.206C135.841 124.009 141.477 128.7 147.509 133.221C154.269 124.953 161.192 116.88 168.168 109.105C163.202 105.212 158.557 101.186 154.263 97.0718ZM218.159 104.67C214.267 113.439 210.213 122.461 206.038 131.618C211.857 134.474 217.682 137.003 223.461 139.202C226.291 129.441 228.893 119.834 231.253 110.522C226.911 108.787 222.536 106.836 218.159 104.67ZM301.73 116.842C298.687 118.11 295.333 119.069 291.719 119.727C294.683 128.772 297.189 138.103 299.136 147.615C303.707 146.419 307.897 144.803 311.637 142.767C308.87 133.93 305.532 125.26 301.73 116.842ZM102.036 86.8627C95.0965 91.691 88.3854 96.8056 81.9797 102.17C80.8797 103.092 79.7889 104.02 78.7075 104.956C79.4758 106.223 80.2728 107.49 81.0977 108.758C84.0895 113.354 87.4486 117.946 91.1547 122.5C92.5408 121.167 93.9405 119.844 95.3538 118.533C101.223 113.087 107.323 107.828 113.578 102.782C110.056 98.5478 106.869 94.2776 104.045 90.0033C103.354 88.9569 102.685 87.9095 102.036 86.8627ZM331.976 114.969C331.614 118.168 330.879 121.249 329.752 124.186C333.492 132.472 336.559 141.425 338.689 151.096C340.411 147.53 341.564 143.771 342.203 139.843C339.496 130.85 336.05 122.595 331.976 114.969ZM39.7009 73.2494C32.8733 79.981 26.4712 87.5878 20.6011 96.1584C19.6738 101.726 19.7428 107.6 20.7466 113.694C26.4116 104.595 32.8307 96.422 39.8473 89.0971C39.0772 83.6289 39.0141 78.3254 39.7009 73.2494ZM343.64 136.31C343.544 137.473 343.407 138.625 343.228 139.763C344.202 143.016 345.078 146.365 345.854 149.815C345.296 145.247 344.555 140.744 343.64 136.31ZM204.53 97.2136C199.065 105.109 193.488 113.266 187.875 121.59C189.774 122.76 191.704 123.911 193.666 125.038C197.478 127.226 201.309 129.272 205.143 131.176C209.318 122.017 213.371 112.994 217.264 104.224C214.118 102.646 210.972 100.958 207.839 99.1585C206.724 98.5184 205.621 97.8695 204.53 97.2136ZM311.095 111.08C308.688 113.228 305.853 115.014 302.651 116.443C306.438 124.829 309.765 133.465 312.531 142.267C316.287 140.113 319.565 137.52 322.29 134.485C321.739 133.073 321.172 131.671 320.586 130.282C317.779 123.623 314.583 117.218 311.095 111.08ZM141.579 83.4576C132.553 89.4864 123.632 95.9988 115.003 102.918C119.455 108.201 124.436 113.426 129.905 118.526C137.616 110.82 145.542 103.399 153.541 96.3771C149.174 92.1444 145.176 87.8217 141.579 83.4576ZM63.9076 69.8439C55.7376 75.5566 48.0176 82.0595 40.9094 89.4319C41.6969 94.7519 43.1575 100.238 45.2568 105.832C52.2604 98.6177 59.986 91.9762 68.2352 85.8988C66.2058 80.4633 64.7501 75.0933 63.9076 69.8439ZM20.4205 92.159C18.6902 95.4084 17.0663 98.7169 15.5518 102.079C16.8856 99.9262 18.2518 97.8292 19.647 95.7859C19.8567 94.5626 20.1152 93.3536 20.4205 92.159ZM189.891 87.443C183.161 94.2733 176.374 101.481 169.63 108.973C175.059 113.182 180.87 117.231 187.025 121.064C192.636 112.744 198.211 104.59 203.674 96.6976C198.83 93.7504 194.227 90.6521 189.891 87.443ZM330.766 98.1609C331.992 103.343 332.47 108.375 332.14 113.164C336.238 120.629 339.736 128.701 342.523 137.481C342.702 135.854 342.798 134.199 342.813 132.519C340.035 120.486 335.966 108.99 330.766 98.1609ZM317.018 103.44C316.74 103.985 316.443 104.521 316.125 105.048C314.94 107.013 313.507 108.79 311.851 110.382C315.402 116.612 318.657 123.117 321.509 129.886C322.031 131.125 322.539 132.374 323.034 133.63C324.189 132.256 325.237 130.798 326.169 129.253C327.145 127.634 327.976 125.952 328.666 124.216C325.271 116.755 321.324 109.842 317.018 103.44ZM93.8171 70.7911C92.3553 71.5958 90.9019 72.4143 89.4585 73.248C82.5315 77.2491 75.8277 81.5831 69.4386 86.2529C71.6872 92.1352 74.6183 98.1025 78.1861 104.086C79.2292 103.185 80.2816 102.29 81.3416 101.402C87.7826 96.0081 94.5323 90.865 101.514 86.0096C98.4155 80.9126 95.8362 75.8208 93.8171 70.7911ZM44.4367 58.0231C36.1891 67.1293 28.9492 77.0892 22.866 87.7271C22.1236 89.6823 21.5255 91.6873 21.0687 93.7372C26.8946 85.4765 33.2198 78.128 39.9466 71.6115C40.7512 66.8531 42.2354 62.3058 44.4367 58.0231ZM131.193 68.9642C121.477 74.1948 111.977 79.9966 102.863 86.2909C103.513 87.3421 104.186 88.3944 104.881 89.4463C107.688 93.6946 110.856 97.9408 114.361 102.153C122.992 95.2301 131.916 88.7147 140.943 82.6811C137.278 78.1702 134.039 73.6185 131.263 69.0789C131.24 69.0409 131.216 69.0022 131.193 68.9642ZM177.876 77.6679C170.281 83.4865 162.623 89.766 155.023 96.4074C159.29 100.491 163.905 104.49 168.841 108.357C175.577 100.872 182.358 93.6686 189.083 86.8398C185.112 83.865 181.369 80.7975 177.876 77.6679ZM269.507 91.0094C268.546 91.0286 267.571 91.0283 266.583 91.0018C264.483 90.9455 262.322 90.7843 260.11 90.5229C260.773 95.8977 261.315 101.463 261.721 107.182C261.981 110.847 262.185 114.576 262.336 118.358C266.306 119.013 270.162 119.448 273.871 119.657C274.744 119.706 275.608 119.742 276.464 119.766C274.564 109.769 272.218 100.124 269.507 91.0094ZM249.895 88.6643C249.701 97.3466 249.182 106.24 248.357 115.254C252.78 116.478 257.116 117.456 261.328 118.188C261.179 114.491 260.977 110.845 260.722 107.261C260.311 101.464 259.76 95.8284 259.085 90.3938C256.099 90.0009 253.026 89.4241 249.895 88.6643ZM278.828 90.0042C276.23 90.5471 273.456 90.8706 270.544 90.9801C273.252 100.117 275.592 109.779 277.487 119.79C282.076 119.868 286.401 119.583 290.402 118.936C287.058 108.88 283.152 99.1861 278.828 90.0042ZM238.296 85.0967C236.555 93.0425 234.599 101.35 232.439 109.911C237.486 111.897 242.482 113.588 247.377 114.979C248.197 105.972 248.713 97.0891 248.9 88.4194C245.421 87.5357 241.874 86.4271 238.296 85.0967ZM286.145 87.6794C284.198 88.5521 282.085 89.2518 279.831 89.7814C284.154 98.9834 288.06 108.694 291.403 118.766C294.997 118.122 298.317 117.176 301.316 115.93C296.835 106.118 291.726 96.6544 286.145 87.6794ZM319.546 95.8441C319.139 98.1302 318.467 100.321 317.522 102.394C321.812 108.718 325.752 115.54 329.162 122.893C330.222 119.874 330.868 116.697 331.119 113.391C327.666 107.135 323.787 101.306 319.546 95.8441ZM63.2728 54.3281C55.4454 59.3971 47.9443 65.2873 40.8852 72.0947C40.054 77.2207 40.0193 82.6041 40.7362 88.1773C47.8576 80.8674 55.5791 74.4162 63.741 68.745C63.0277 63.8127 62.8606 58.9918 63.2728 54.3281ZM228.567 80.9532C225.384 88.2919 222.04 95.918 218.567 103.75C222.892 105.892 227.214 107.822 231.502 109.539C233.661 100.982 235.613 92.6792 237.351 84.74C234.434 83.6251 231.499 82.3624 228.567 80.9532ZM292.485 83.7075C290.89 85.0855 289.072 86.2649 287.061 87.2501C292.642 96.2366 297.754 105.71 302.238 115.532C305.426 114.108 308.23 112.329 310.587 110.193C305.125 100.699 298.969 91.8522 292.485 83.7075ZM219.357 76.0295C214.735 82.5607 209.965 89.3685 205.103 96.3863C206.17 97.0276 207.25 97.6612 208.341 98.2875C211.444 100.069 214.558 101.741 217.672 103.304C221.144 95.4755 224.486 87.8525 227.668 80.517C225.336 79.3726 223.006 78.137 220.691 76.8073C220.243 76.5503 219.799 76.2906 219.357 76.0295ZM167.623 67.5344C159.239 72.2005 150.788 77.3413 142.421 82.8985C145.993 87.2247 149.962 91.5128 154.299 95.7125C161.888 89.0783 169.536 82.805 177.122 76.9881C173.704 73.8852 170.531 70.7243 167.623 67.5344ZM89.3392 55.1202C80.8579 59.1485 72.6389 63.822 64.8227 69.2093C65.6274 74.4527 67.0553 79.8297 69.0741 85.284C75.4287 80.6516 82.0877 76.3512 88.9625 72.3802C90.4474 71.5225 91.9425 70.6802 93.4468 69.8531C91.5078 64.8576 90.1251 59.928 89.3392 55.1202ZM124.68 56.3442C114.47 60.3708 104.397 65.0195 94.7022 70.305C96.6972 75.2933 99.2547 80.3558 102.341 85.4369C111.455 79.1445 120.957 73.3423 130.676 68.1078C128.322 64.1668 126.316 60.2335 124.68 56.3442ZM296.688 78.7845C295.725 80.3537 294.567 81.7694 293.232 83.0327C299.712 91.1678 305.868 100.002 311.338 109.484C312.859 107.995 314.177 106.346 315.27 104.534C315.671 103.869 316.037 103.186 316.373 102.49C315.614 101.38 314.846 100.284 314.066 99.2046C308.629 91.6739 302.721 84.8901 296.688 78.7845ZM319.35 83.3533C320.07 87.2199 320.215 90.9539 319.756 94.4792C323.937 99.7905 327.778 105.449 331.22 111.511C331.395 105.801 330.432 99.7367 328.41 93.4663C325.809 90.0245 322.748 86.6449 319.35 83.3533ZM208.856 69.0512C202.875 74.5726 196.765 80.4865 190.603 86.7197C194.895 89.8907 199.451 92.9529 204.247 95.8684C209.108 88.852 213.876 82.0446 218.497 75.5141C215.102 73.4698 211.882 71.3058 208.856 69.0512ZM65.8321 42.1086C59.5682 45.8599 53.379 50.1196 47.3075 54.9402C47.0772 55.3052 46.8569 55.679 46.6411 56.0595L45.957 57.2912C43.6785 61.4154 42.0991 65.8119 41.1836 70.4283C48.2028 63.782 55.6453 58.022 63.4008 53.0573C63.8216 49.2923 64.6263 45.6347 65.8321 42.1086ZM158.386 56.0548C149.532 59.7102 140.724 63.8753 132.081 68.4912C132.093 68.511 132.105 68.5309 132.117 68.5507C134.885 73.0772 138.12 77.6186 141.784 82.1218C150.134 76.5732 158.566 71.4377 166.934 66.7734C163.746 63.2195 160.888 59.6326 158.386 56.0548ZM298.819 74.0288C298.416 75.3633 297.881 76.651 297.209 77.885C303.343 84.0753 309.354 90.9616 314.879 98.6133C315.547 99.5381 316.206 100.475 316.859 101.422C317.754 99.3241 318.366 97.0997 318.704 94.7713C312.714 87.2071 306.027 80.3487 298.819 74.0288ZM200.133 61.8249C193.124 66.42 185.94 71.5216 178.69 77.0482C182.151 80.1417 185.86 83.1754 189.795 86.1185C195.954 79.8855 202.062 73.969 208.044 68.4427C205.229 66.3067 202.587 64.093 200.133 61.8249ZM88.8231 40.9908C80.419 44.4517 72.2207 48.6344 64.346 53.6399C63.8662 58.3068 63.9808 63.1458 64.6621 68.1092C72.485 62.7511 80.7035 58.1011 89.1788 54.0912C88.5217 49.5975 88.3922 45.2151 88.8231 40.9908ZM262.007 69.4181C261.632 69.4041 261.254 69.3866 260.873 69.362C259.473 69.272 258.027 69.1099 256.543 68.879C257.909 75.3305 259.061 82.2349 259.983 89.4967C262.253 89.7726 264.468 89.9416 266.616 89.9992C267.492 90.0227 268.355 90.0262 269.207 90.0134C267.024 82.7774 264.61 75.8827 262.007 69.4181ZM249.683 67.3792C249.974 73.9648 250.049 80.7321 249.916 87.6357C252.998 88.3914 256.021 88.9682 258.958 89.3647C258.026 82.0748 256.86 75.1551 255.482 68.7022C253.599 68.3707 251.66 67.9297 249.683 67.3792ZM267.812 69.1718C266.322 69.3707 264.746 69.4598 263.1 69.4436C265.685 75.9002 268.08 82.7777 270.247 89.9884C273.12 89.8943 275.843 89.5896 278.385 89.0744C275.076 82.1201 271.531 75.4638 267.812 69.1718ZM242.408 64.9204C241.266 71.0108 239.966 77.4274 238.513 84.1046C242.026 85.4161 245.506 86.5125 248.919 87.3885C249.048 80.4675 248.967 73.6858 248.667 67.0893C246.612 66.4825 244.52 65.7576 242.408 64.9204ZM120.583 43.3384C116.853 44.4224 113.138 45.6033 109.451 46.8898C102.959 49.1545 96.5512 51.7404 90.2832 54.6755C91.0415 59.4572 92.4032 64.3734 94.3337 69.3682C104.025 64.0908 114.092 59.4455 124.298 55.4197C122.636 51.3264 121.388 47.2852 120.583 43.3384ZM272.614 68.0335C271.456 68.4517 270.207 68.7759 268.881 69.0071C272.579 75.2871 276.103 81.9251 279.393 88.8562C281.621 88.3457 283.7 87.6684 285.608 86.8236C281.503 80.2791 277.152 73.9972 272.614 68.0335ZM299.759 67.5027C299.752 69.3813 299.54 71.203 299.112 72.9519C306.254 79.1808 312.899 85.9332 318.874 93.3711C319.217 89.8252 318.947 86.0574 318.083 82.1442C312.61 77 306.342 72.0842 299.759 67.5027ZM236.565 62.3323C234.156 67.9953 231.618 73.9109 228.966 80.0307C231.839 81.4125 234.712 82.652 237.568 83.7479C239.022 77.0596 240.322 70.6345 241.463 64.5391C239.837 63.8704 238.201 63.135 236.565 62.3323ZM193.173 54.6835C187.055 57.4256 180.807 60.4737 174.495 63.806C172.511 64.8537 170.521 65.9312 168.527 67.0337C171.408 70.1819 174.55 73.3031 177.934 76.3682C185.178 70.8406 192.365 65.732 199.383 61.123C197.147 59.0143 195.074 56.8615 193.173 54.6835ZM276.761 65.8253C275.82 66.5428 274.757 67.1515 273.587 67.6523C278.105 73.6046 282.439 79.8706 286.528 86.3967C288.517 85.4309 290.304 84.2737 291.861 82.9244C286.956 76.8169 281.87 71.1094 276.761 65.8253ZM231.193 59.4556C227.569 64.4829 223.807 69.7464 219.94 75.2063C220.355 75.4513 220.772 75.6949 221.193 75.9362C223.475 77.2469 225.771 78.4642 228.067 79.5926C230.72 73.4698 233.26 67.5516 235.669 61.8866C234.318 61.2041 232.966 60.4775 231.62 59.7046C231.477 59.6224 231.335 59.5383 231.193 59.4556ZM152.749 46.8876C143.711 49.4365 134.611 52.4631 125.613 55.9752C127.231 59.8195 129.22 63.718 131.563 67.6347C140.183 63.0287 148.968 58.8681 157.803 55.2124C157.371 54.5809 156.949 53.9505 156.54 53.32C155.143 51.1686 153.878 49.0209 152.749 46.8876ZM316.655 74.1593C317.651 76.6813 318.434 79.174 318.991 81.6203C321.461 83.9536 323.768 86.3362 325.872 88.7565C323.046 83.7221 319.967 78.8515 316.655 74.1593ZM224.584 55.1917C219.722 59.2619 214.714 63.6665 209.61 68.3594C212.583 70.5666 215.745 72.6868 219.08 74.6919C222.946 69.2338 226.707 63.9721 230.329 58.9456C228.322 57.7465 226.403 56.4916 224.584 55.1917ZM279.37 63.0948C278.848 63.8625 278.236 64.559 277.54 65.1838C282.637 70.4581 287.709 76.1536 292.605 82.2463C293.892 81.0195 295.002 79.6497 295.915 78.1351C295.931 78.1086 295.946 78.0812 295.962 78.0546C290.436 72.5211 284.818 67.5517 279.37 63.0948ZM186.704 46.1635C177.627 48.7491 168.462 51.938 159.339 55.6655C161.827 59.2044 164.667 62.7544 167.836 66.2735C169.907 65.1268 171.973 64.0072 174.033 62.9195C180.265 59.6294 186.439 56.6139 192.491 53.8938C190.316 51.3383 188.382 48.7512 186.704 46.1635ZM91.538 29.5738C83.355 32.7244 75.2071 36.6043 67.1773 41.3119C65.8667 44.8594 64.9754 48.5526 64.4911 52.3662C72.3683 47.4173 80.5615 43.2806 88.954 39.8565C89.4045 36.3029 90.2591 32.866 91.538 29.5738ZM68.2805 36.2216C62.6809 40.4501 57.3634 45.0015 52.3542 49.844C56.972 46.4731 61.6475 43.4078 66.3646 40.6283C66.9295 39.1342 67.5662 37.6641 68.2805 36.2216ZM218.759 50.5948C213.023 53.7268 207.079 57.2985 201 61.2559C203.42 63.4802 206.022 65.654 208.794 67.7515C213.891 63.0628 218.892 58.6602 223.751 54.5876C221.986 53.2926 220.32 51.9574 218.759 50.5948ZM298.907 60.4582C299.374 62.4333 299.654 64.3727 299.735 66.2606C306.122 70.6736 312.24 75.4122 317.657 80.3787C316.947 77.6793 315.958 74.9193 314.706 72.12C310.234 67.9216 304.8 64.0185 298.907 60.4582ZM119.531 31.5432C109.498 33.6954 99.5557 36.6511 89.8797 40.5582C89.4013 44.7644 89.4943 49.142 90.1289 53.6443C96.345 50.7447 102.696 48.1869 109.127 45.9433C112.858 44.6417 116.616 43.4462 120.39 42.351C119.702 38.6496 119.406 35.0353 119.531 31.5432ZM280.851 59.9774C280.618 60.7596 280.301 61.5113 279.901 62.231C285.337 66.6748 290.949 71.629 296.472 77.1441C297.114 75.92 297.618 74.6376 297.987 73.3035C292.54 68.5849 286.802 64.168 280.851 59.9774ZM148.484 37.0157C139.511 38.514 130.485 40.5056 121.548 43.06C122.339 46.9662 123.574 50.9766 125.23 55.0505C134.197 51.5495 143.266 48.5294 152.277 45.9812C150.727 42.9531 149.455 39.9558 148.484 37.0157ZM249.071 43.3923C251.896 50.4037 254.327 58.6435 256.32 67.8268C257.909 68.0862 259.454 68.266 260.943 68.3618C261.161 68.3758 261.379 68.3856 261.594 68.3961C257.774 59.0457 253.558 50.6186 249.071 43.3923ZM247.26 41.6532C248.438 49.495 249.224 57.7517 249.636 66.3229C251.551 66.8666 253.428 67.3071 255.252 67.6424C253.079 57.7244 250.395 48.9403 247.26 41.6532ZM250.998 44.625C255.181 51.6062 259.112 59.6188 262.693 68.4351C264.296 68.4691 265.82 68.4006 267.252 68.2324C262.1 59.6089 256.627 51.6821 250.998 44.625ZM281.35 55.8913C281.383 56.938 281.305 57.9531 281.11 58.9291C287.058 63.1041 292.798 67.5073 298.255 72.2089C298.632 70.4802 298.794 68.6733 298.75 66.804C295.039 64.2524 291.237 61.8064 287.429 59.4877C285.399 58.2518 283.369 57.0519 281.35 55.8913ZM214.254 46.2797C207.78 48.5188 201.04 51.1868 194.132 54.2534C196.005 56.3837 198.047 58.4905 200.247 60.5555C206.305 56.6048 212.235 53.0319 217.966 49.8907C216.646 48.7028 215.407 47.4968 214.254 46.2797ZM246.233 41.5673C245.314 48.3237 244.099 55.8256 242.597 63.9162C244.629 64.7277 246.642 65.4292 248.618 66.0239C248.2 57.5242 247.411 49.339 246.233 41.5673ZM252.314 44.6685C257.863 51.6923 263.257 59.5517 268.333 68.085C269.635 67.8784 270.852 67.5828 271.974 67.1993C265.709 59.0369 259.101 51.4794 252.314 44.6685ZM183.209 40.0231C173.614 41.6403 163.718 43.8349 153.739 46.6121C154.825 48.6491 156.04 50.704 157.381 52.7686C157.825 53.4522 158.282 54.1367 158.753 54.8217C167.88 51.0837 177.053 47.8835 186.142 45.2821C185.988 45.0366 185.835 44.7926 185.686 44.5472C184.77 43.0374 183.944 41.5268 183.209 40.0231ZM245.195 41.7849C242.671 47.8747 239.914 54.4455 236.958 61.4061C238.527 62.177 240.094 62.8854 241.651 63.5309C243.107 55.6736 244.292 48.3768 245.195 41.7849ZM253.622 44.5612C260.296 51.3121 266.793 58.7786 272.957 66.8292C274.111 66.3563 275.149 65.7825 276.058 65.1041C268.444 57.2893 260.793 50.4156 253.622 44.5612ZM244.172 41.6452C240.285 46.9161 236.137 52.6034 231.784 58.6364C231.897 58.7017 232.009 58.7686 232.122 58.8336C233.433 59.5861 234.748 60.2942 236.062 60.9595C238.969 54.1148 241.684 47.6478 244.172 41.6452ZM296.656 53.7205C297.427 55.5226 298.062 57.3109 298.552 59.0749C303.866 62.2318 308.846 65.67 313.134 69.3588C310.649 66.0908 308.05 62.9152 305.339 59.8399C302.92 57.6227 299.964 55.5847 296.656 53.7205ZM259.3 48.0034C265.009 52.9017 270.935 58.4007 276.84 64.4649C277.515 63.8641 278.102 63.1966 278.594 62.4617C271.685 56.8541 265.073 52.0708 259.3 48.0034ZM98.6177 17.8684C88.5055 22.6484 78.9743 28.3488 70.1254 34.8477C69.236 36.4663 68.4473 38.1229 67.7571 39.8145C75.771 35.1953 83.8993 31.394 92.0564 28.305C92.6142 26.9979 93.2386 25.7138 93.9355 24.4565C95.262 22.0626 96.8545 19.9054 98.6177 17.8684ZM244.007 40.1903C238.146 44.2874 231.898 49.1013 225.382 54.5248C227.137 55.7702 228.985 56.9756 230.919 58.1282C235.533 51.733 239.919 45.7265 244.007 40.1903ZM209.756 40.8791C202.52 42.118 195.149 43.7951 187.715 45.8776C189.378 48.4157 191.294 50.955 193.446 53.4651C200.325 50.4027 207.044 47.729 213.508 45.4785C212.117 43.9533 210.863 42.4144 209.756 40.8791ZM280.44 50.8815C280.852 52.1789 281.131 53.4508 281.265 54.6855C283.483 55.9545 285.719 57.2698 287.953 58.63C291.557 60.8244 295.16 63.1347 298.69 65.544C298.556 63.659 298.221 61.7165 297.693 59.7328C292.186 56.4822 286.317 53.527 280.487 50.9027C280.471 50.8957 280.456 50.8885 280.44 50.8815ZM253.995 43.0574C260.892 47.8806 269.722 53.9727 279.116 61.591C279.49 60.8873 279.777 60.144 279.98 59.3659C271.66 53.5584 262.931 48.1874 253.995 43.0574ZM121.284 21.1441C111.841 22.9288 102.304 25.5248 92.8071 29.093C91.4438 32.3859 90.5231 35.8389 90.0237 39.4215C99.6765 35.5607 109.587 32.6385 119.581 30.5082C119.775 27.2671 120.336 24.1363 121.284 21.1441ZM146.393 27.606C139.802 28.1545 133.181 28.9923 126.581 30.1622C124.566 30.5193 122.553 30.9067 120.544 31.3267C120.4 34.7884 120.677 38.3823 121.357 42.0737C130.256 39.5335 139.242 37.5485 148.176 36.0514C147.284 33.1689 146.683 30.3454 146.393 27.606ZM180.632 33.6165C170.484 34.0928 160.025 35.1323 149.485 36.85C150.451 39.7439 151.715 42.7039 153.263 45.7052C163.247 42.9188 173.151 40.7139 182.76 39.0838C181.907 37.2461 181.195 35.4198 180.632 33.6165ZM243.123 39.5891C235.912 42.0346 228.033 45.59 219.705 50.0843C221.221 51.393 222.836 52.6769 224.545 53.9232C231.039 48.5108 237.27 43.697 243.123 39.5891ZM254.32 42.0849C263.208 47.1823 271.903 52.5234 280.204 58.2977C280.356 57.3411 280.39 56.3394 280.313 55.299C270.89 49.9321 261.782 45.4299 254.32 42.0849ZM240.932 39.2948C233.117 40.5522 224.481 42.7948 215.299 45.9178C216.421 47.0841 217.623 48.2421 218.903 49.3821C226.681 45.1673 234.082 41.7578 240.932 39.2948ZM278.282 45.914C278.955 47.1466 279.525 48.3715 279.985 49.5784C280.29 49.7141 280.596 49.8504 280.902 49.988C286.429 52.4761 292.008 55.2687 297.292 58.3353C296.744 56.5578 296.048 54.7511 295.208 52.9264C290.092 50.2016 284.242 47.8691 278.282 45.914ZM207.337 37.1116C199.937 37.6305 192.196 38.5415 184.241 39.8511C184.928 41.2339 185.695 42.626 186.542 44.0222C186.739 44.3471 186.942 44.6714 187.147 44.9964C194.554 42.9109 201.902 41.2251 209.121 39.9713C208.999 39.7927 208.877 39.6153 208.759 39.4369C208.246 38.6609 207.772 37.8845 207.337 37.1116ZM254.114 40.8946C261.549 44.2048 270.687 48.6917 280.172 54.063C279.986 52.858 279.659 51.6088 279.194 50.3261C270.136 46.3196 261.265 43.1333 254.114 40.8946ZM293.705 47.8753C294.543 49.3196 295.304 50.7616 295.976 52.1988C297.849 53.2072 299.624 54.2703 301.274 55.3885C298.83 52.8063 296.305 50.3011 293.705 47.8753ZM240.436 38.3598C230.993 38.1965 221.067 39.0054 210.865 40.6923C211.954 42.1693 213.185 43.6502 214.546 45.1197C223.802 41.9492 232.524 39.6578 240.436 38.3598ZM179.239 27.106C168.854 26.5955 158.165 26.6748 147.392 27.5239C147.679 30.2263 148.277 33.022 149.172 35.8861C159.716 34.161 170.181 33.1129 180.336 32.627C179.805 30.7547 179.435 28.9101 179.239 27.106ZM205.608 33.5507C197.922 33.2273 189.9 33.213 181.667 33.5692C182.229 35.3254 182.939 37.1087 183.788 38.9103C191.711 37.597 199.427 36.6776 206.811 36.1446C206.357 35.274 205.955 34.4083 205.608 33.5507ZM274.745 40.5442C275.425 41.4272 276.057 42.3104 276.64 43.191C276.953 43.6658 277.252 44.1416 277.537 44.6156C283.42 46.4984 289.272 48.7572 294.478 51.4127C293.489 49.4397 292.339 47.4485 291.032 45.4556C286.544 43.1863 280.769 41.6128 274.745 40.5442ZM125.396 12.467C117.384 13.342 109.198 14.7612 100.901 16.8287C98.5514 19.3347 96.4634 21.9556 94.8102 24.9391C94.2873 25.8826 93.8058 26.8421 93.363 27.8157C102.801 24.331 112.272 21.7945 121.648 20.0528C122.44 17.806 123.455 15.6411 124.703 13.5714C124.927 13.1992 125.158 12.8309 125.396 12.467ZM254.09 39.8351C261.088 42.0135 269.764 45.1084 278.671 48.9993C278.176 47.8388 277.573 46.6556 276.868 45.4564C276.517 45.3449 276.165 45.2354 275.813 45.1265C268.121 42.7443 260.426 40.9938 254.09 39.8351ZM146.723 18.1661C138.75 18.5491 130.615 19.4377 122.404 20.9351C121.412 23.9129 120.816 27.0419 120.6 30.2931C122.535 29.8913 124.473 29.5185 126.412 29.1747C133.039 28.0001 139.685 27.1597 146.302 26.6087C146.072 23.6821 146.205 20.8574 146.723 18.1661ZM237.217 37.34C228.556 36.4637 218.848 36.3568 208.449 37.0337C208.804 37.6449 209.186 38.2607 209.595 38.879C209.794 39.1808 210.001 39.4821 210.213 39.7847C219.486 38.2273 228.537 37.3901 237.217 37.34ZM267.651 39.5126C262.194 38.8802 256.883 38.6011 252.493 38.5313C259.161 39.6818 267.612 41.5375 276.064 44.1522C275.978 44.0183 275.892 43.8831 275.804 43.7489C275.045 42.6006 274.196 41.4469 273.265 40.2931C271.399 39.9891 269.518 39.729 267.651 39.5126ZM230.919 35.8435C223.393 34.7694 215.267 33.993 206.715 33.5986C207.061 34.4105 207.458 35.2338 207.907 36.0659C216.047 35.5183 223.773 35.4458 230.919 35.8435ZM204.374 29.4967C196.606 28.4064 188.529 27.5971 180.255 27.1591C180.457 28.9238 180.828 30.7346 181.365 32.5789C189.565 32.2165 197.558 32.2196 205.223 32.53C204.857 31.5027 204.572 30.4899 204.374 29.4967ZM278.267 35.0634C276.459 34.3496 274.059 34.0396 271.322 34.0314C270.537 34.029 269.727 34.0527 268.9 34.0968C270.713 35.8282 272.353 37.5922 273.804 39.3632C279.033 40.2334 284.158 41.4744 288.508 43.2192C285.201 40.3751 281.785 37.6542 278.267 35.0634ZM179.551 19.298C169.425 18.1368 158.748 17.6519 147.753 18.1212C147.216 20.7863 147.072 23.5988 147.302 26.5267C158.075 25.6766 168.762 25.592 179.147 26.0968C178.974 23.7456 179.102 21.4692 179.551 19.298ZM205.429 29.6471C205.638 30.6008 205.93 31.5791 206.305 32.577C216.339 33.0228 225.796 33.9919 234.401 35.3517C225.473 33.1053 215.729 31.1317 205.429 29.6471ZM267.531 34.1881C265.867 34.3196 264.149 34.5271 262.427 34.7902C257.939 35.4757 253.447 36.5252 249.876 37.5115C254.716 37.4979 261.136 37.7473 267.773 38.5164C269.272 38.6901 270.784 38.891 272.292 39.1212C270.871 37.4617 269.278 35.8105 267.531 34.1881ZM205.281 23.8478C204.979 25.3273 204.969 26.9228 205.234 28.6052C218.151 30.4512 230.203 33.0658 240.88 36.0256C231.469 31.6313 219.305 27.2154 205.281 23.8478ZM262.539 29.9694C260.642 30.5095 258.726 31.2597 256.879 32.1229C253.823 33.5512 250.996 35.2659 248.817 36.7686C252.537 35.7108 257.409 34.5429 262.282 33.7985C263.703 33.5815 265.127 33.4018 266.523 33.2697C265.268 32.1503 263.938 31.0484 262.539 29.9694ZM256.886 25.9884C255.401 27.153 253.939 28.5989 252.577 30.1404C250.799 32.1542 249.222 34.2979 248.018 36.1064C250.27 34.5359 253.239 32.7204 256.461 31.2148C258.101 30.4478 259.819 29.755 261.548 29.2177C260.065 28.111 258.509 27.0313 256.886 25.9884ZM243.075 18.8214C243.533 20.3985 243.964 22.1613 244.358 23.9871C245.186 27.8227 245.861 31.9601 246.324 35.2777C247.023 32.2694 248.116 27.5426 249.446 21.7226C247.315 20.6398 245.185 19.6731 243.075 18.8214ZM250.363 22.1964C249.085 27.7901 248.029 32.3546 247.339 35.3257C248.544 33.5321 250.092 31.4466 251.83 29.4791C253.12 28.0182 254.529 26.6045 255.993 25.4217C255.106 24.868 254.2 24.3249 253.276 23.7943C252.307 23.2377 251.335 22.7052 250.363 22.1964ZM234.806 16.0408C236.419 18.4778 237.993 21.0963 239.454 23.6848C241.739 27.7348 243.761 31.729 245.254 34.8681C244.798 31.6709 244.156 27.8021 243.38 24.2058C242.924 22.0902 242.421 20.0766 241.887 18.3526C239.486 17.4295 237.116 16.6589 234.806 16.0408ZM149.009 11.3762C141.766 11.263 134.308 11.5518 126.689 12.3303C126.295 12.9043 125.917 13.4893 125.558 14.0853C124.447 15.9279 123.525 17.8518 122.785 19.8467C130.941 18.3862 139.019 17.5203 146.937 17.151C147.402 15.1427 148.09 13.2131 149.009 11.3762ZM206.474 20.6951C206.073 21.3837 205.756 22.1115 205.525 22.8757C217.339 25.713 227.839 29.2899 236.498 32.973C228.644 28.8361 218.45 24.4379 206.474 20.6951ZM226.109 14.4043C225.551 14.3474 224.999 14.3011 224.455 14.2661C222.948 14.1691 221.502 14.1576 220.128 14.2282C221.7 15.4267 223.266 16.6611 224.81 17.9137C231.362 23.229 237.558 28.8875 242.282 33.4763C238.892 28.8836 234.575 23.4395 230.099 18.5519C228.776 17.1063 227.437 15.7134 226.109 14.4043ZM180.55 19.4143C180.1 21.5519 179.974 23.807 180.156 26.1491C188.401 26.5807 196.451 27.3795 204.196 28.4578C203.96 26.7671 203.989 25.1429 204.305 23.6159C196.856 21.864 188.894 20.4112 180.55 19.4143ZM227.725 14.5972C228.765 15.6499 229.808 16.7456 230.839 17.8713C235.451 22.9078 239.891 28.5253 243.335 33.2101C241.999 30.4959 240.372 27.3557 238.581 24.1822C236.935 21.2652 235.155 18.3296 233.347 15.6697C231.42 15.203 229.541 14.8443 227.725 14.5972ZM218.611 14.3429C216.858 14.5198 215.237 14.8448 213.772 15.3141C223.578 20.9789 232.814 27.2953 239.892 32.5727C235.444 28.3293 229.949 23.377 224.177 18.6946C222.339 17.2038 220.475 15.7442 218.611 14.3429ZM212.533 15.76C211.392 16.2199 210.363 16.7799 209.458 17.4388C219.781 21.9636 228.969 26.8293 236.229 31.1312C229.547 26.2961 221.379 20.841 212.795 15.9099C212.707 15.8597 212.62 15.81 212.533 15.76ZM130.261 6.49813C121.842 8.63707 113.697 11.3683 105.869 14.6401C112.722 13.143 119.488 12.0743 126.134 11.3787C127.362 9.63798 128.743 8.00284 130.261 6.49813ZM269.742 29.1686C267.874 28.9548 265.843 29.162 263.765 29.6513C265.218 30.7959 266.597 31.9654 267.893 33.1539C269.072 33.0697 270.224 33.0247 271.332 33.0281C272.986 33.033 274.554 33.1457 275.968 33.3988C273.925 31.9451 271.849 30.5347 269.742 29.1686ZM208.573 18.1488C207.999 18.6582 207.489 19.2161 207.046 19.8222C215.324 22.422 222.752 25.3304 229.146 28.2507C223.096 24.9296 216.134 21.4439 208.573 18.1488ZM181.159 14.5052C171.433 12.7677 161.026 11.63 150.123 11.3972C149.175 13.2033 148.463 15.1109 147.978 17.1064C158.975 16.6527 169.652 17.148 179.78 18.3152C180.116 17.0016 180.573 15.7291 181.159 14.5052ZM182.181 14.6903C181.589 15.8867 181.124 17.1366 180.784 18.433C189.13 19.435 197.095 20.8893 204.548 22.6427C204.781 21.8616 205.099 21.1109 205.499 20.3921C198.313 18.1857 190.501 16.2199 182.181 14.6903ZM260.75 23.7167C259.761 24.0774 258.751 24.6399 257.745 25.3474C259.497 26.4834 261.171 27.661 262.76 28.8713C264.549 28.3952 266.333 28.1012 268.044 28.082C265.651 26.5698 263.219 25.1138 260.75 23.7167ZM155.598 3.18956C153.582 2.98127 151.568 2.82149 149.562 2.71909C143.675 3.53787 137.895 4.63919 132.236 6.00763C130.47 7.59114 128.872 9.34894 127.464 11.2444C134.998 10.51 142.373 10.2504 149.538 10.3809C149.68 10.1261 149.825 9.87185 149.976 9.62087C151.46 7.15918 153.368 5.03616 155.598 3.18956ZM185.814 9.62498C184.713 10.7328 183.753 11.9548 182.947 13.2914C182.853 13.4464 182.763 13.6029 182.674 13.7599C191.014 15.3062 198.843 17.2871 206.044 19.5083C206.489 18.8581 207 18.2606 207.57 17.7135C200.717 14.7631 193.389 11.98 185.814 9.62498ZM250.595 21.1843C251.657 21.7364 252.719 22.3162 253.778 22.9242C254.823 23.5241 255.844 24.1403 256.842 24.7696C257.763 24.0937 258.699 23.5189 259.637 23.0928C256.859 21.5474 254.034 20.0762 251.167 18.6805C250.972 19.5343 250.781 20.3693 250.595 21.1843ZM157.005 3.34134C154.512 5.26875 152.416 7.50849 150.832 10.1359C150.778 10.2253 150.726 10.3156 150.673 10.4055C161.55 10.6668 171.932 11.8209 181.637 13.5692C181.782 13.3027 181.933 13.0388 182.091 12.7774C182.851 11.5174 183.738 10.3575 184.742 9.2969C175.702 6.54327 166.328 4.41145 157.005 3.34134ZM191.506 5.49378C189.698 6.44035 188.07 7.55249 186.646 8.83374C194.23 11.2149 201.56 14.0162 208.408 16.9801C209.306 16.2627 210.322 15.6494 211.442 15.1387C204.832 11.4042 198.028 8.02254 191.506 5.49378ZM241.375 14.2792C241.797 15.0805 242.192 16.0711 242.561 17.1711C242.608 17.3085 242.651 17.4488 242.697 17.5904C245.008 18.4952 247.342 19.5369 249.677 20.7144C249.861 19.9064 250.051 19.0791 250.243 18.2336C247.33 16.8367 244.373 15.5171 241.375 14.2792ZM198.957 2.7504C196.717 3.29671 194.631 4.00946 192.725 4.89262C199.284 7.49935 206.073 10.9229 212.621 14.6533C214.09 14.1074 215.709 13.7156 217.449 13.4745C210.873 8.6214 204.349 4.59754 198.957 2.7504ZM230.54 10.2191C231.678 11.586 232.826 13.1316 233.96 14.784C236.41 15.3931 238.929 16.1758 241.483 17.1264C240.899 15.4617 240.307 14.2432 239.735 13.6117C236.71 12.3979 233.643 11.2666 230.54 10.2191ZM203.105 3.36623C208 5.6656 213.471 9.24138 218.908 13.3098C220.681 13.1534 222.562 13.1396 224.526 13.2659C224.674 13.2754 224.822 13.2869 224.971 13.298C223.568 11.9635 222.179 10.737 220.829 9.66249C218.083 7.47693 215.543 5.95769 213.393 5.38927C213.193 5.34361 212.992 5.29611 212.791 5.25114C209.592 4.53472 206.362 3.90536 203.105 3.36623ZM218.238 6.56476C219.287 7.22888 220.364 8.00718 221.456 8.87599C223.123 10.203 224.839 11.7543 226.567 13.4452C228.477 13.654 230.46 13.9856 232.497 14.44C231.217 12.6311 229.93 10.9833 228.671 9.6001C225.237 8.48362 221.757 7.47175 218.238 6.56476ZM190.275 5.02595C184.405 2.83604 178.791 1.37046 173.784 1.00357C169.043 1.01709 164.266 1.22067 159.462 1.62029C159.027 1.89737 158.601 2.18118 158.184 2.47317C167.396 3.60835 176.637 5.75284 185.545 8.49243C186.936 7.16971 188.522 6.01612 190.275 5.02595ZM157.406 1.80236C156.672 1.87186 155.938 1.94688 155.203 2.02558C155.016 2.04559 154.829 2.06608 154.642 2.08666C155.337 2.15228 156.032 2.22302 156.727 2.30059C156.95 2.13227 157.176 1.96582 157.406 1.80236ZM196.469 2.39877C191.367 1.75325 186.204 1.32672 180.992 1.12974C184.348 1.9057 187.862 3.02213 191.455 4.39756C193.014 3.61323 194.69 2.94803 196.469 2.39877Z" fill="url(#paint0_linear_2406_2325)" fill-opacity="0.2"/>
<defs>
<linearGradient id="paint0_linear_2406_2325" x1="46.5201" y1="42.4594" x2="150.986" y2="368.044" gradientUnits="userSpaceOnUse">
<stop offset="0.0721154" stop-color="#C9CACB" stop-opacity="0.2"/>
<stop offset="0.293269" stop-color="#C9CACB"/>
<stop offset="0.620192" stop-color="#C9CACB" stop-opacity="0.5"/>
</linearGradient>
</defs>
</svg>
