<svg width="650" height="633" viewBox="0 0 650 633" fill="none" xmlns="http://www.w3.org/2000/svg">
<path d="M325.037 1.52176C340.896 1.47825 356.543 2.56705 371.886 4.71195L371.979 4.6897L372.158 4.75082C380.898 5.98007 389.54 7.54947 398.065 9.4526C398.096 9.45949 398.126 9.46561 398.158 9.47252C398.5 9.53943 398.845 9.62088 399.195 9.71192C408.971 11.9308 418.596 14.5809 428.041 17.6495C435.038 19.9228 441.937 22.4236 448.725 25.1441C455.557 27.8821 462.28 30.8417 468.883 34.0158C475.21 37.0585 481.427 40.2997 487.522 43.7285C493.311 46.9832 498.99 50.4079 504.553 53.998C510.017 57.5256 515.372 61.2129 520.605 65.052C528.893 71.1325 536.88 77.5977 544.536 84.4218L544.655 84.4832L544.728 84.5944C554.132 92.9883 563.038 101.924 571.385 111.362C578.681 119.61 585.553 128.241 591.962 137.224C600.326 148.946 607.905 161.27 614.613 174.131L614.66 174.193L614.682 174.263C631.841 207.192 643.305 243.636 647.679 282.506C648.279 287.838 648.739 293.154 649.061 298.449C652.289 351.438 641.753 402.43 620.338 447.928C606.945 476.377 589.302 502.679 568.107 525.977C559.216 535.753 549.697 544.997 539.606 553.652L539.625 553.678C539.562 553.721 539.498 553.758 539.435 553.799C524.466 566.621 508.242 578.145 490.927 588.16C473.712 598.116 455.423 606.584 436.223 613.361C429.425 615.76 422.513 617.946 415.495 619.912V619.918C415.475 619.921 415.451 619.925 415.428 619.931C397.837 624.855 379.576 628.396 360.761 630.403C346.137 631.965 331.632 632.553 317.317 632.224C298.177 631.783 279.375 629.698 261.075 626.097C248.563 623.636 236.285 620.463 224.295 616.626C211.006 612.372 198.067 607.299 185.551 601.46C176.414 597.199 167.503 592.527 158.844 587.473C148.981 581.712 139.446 575.453 130.278 568.723C119.964 561.151 110.114 552.984 100.79 544.269C89.8773 534.072 79.6835 523.119 70.2995 511.488C59.3169 497.879 49.443 483.337 40.8295 467.981C33.4324 454.794 26.9683 441.004 21.5228 426.689C21.5215 426.685 21.5197 426.683 21.5184 426.68C20.4564 423.889 19.4304 421.076 18.447 418.244C11.0553 396.962 5.90083 374.576 3.28316 351.325C1.59489 336.326 1.01674 321.458 1.48474 306.799C2.63979 270.628 10.1643 235.722 23.0961 203.251C38.019 165.778 60.144 131.546 87.9908 102.343L88.0337 102.278L88.1234 102.205C116.186 72.8109 150.05 48.5212 188.208 31.1649L188.275 31.0958L188.468 31.0469C216.741 18.2174 247.365 9.19193 279.727 4.71368C283.199 4.23325 286.691 3.80436 290.202 3.4296C301.902 2.18045 313.525 1.5533 325.037 1.52176ZM289.028 615.71C281.405 619.864 273.639 623.021 265.748 625.08C282.53 628.149 299.723 629.943 317.198 630.355C323.126 628.227 328.876 625.775 334.458 623.025C319.694 621.59 304.494 619.154 289.028 615.71ZM244.048 603.035C238.381 607.682 232.631 611.838 226.807 615.462C238.056 618.985 249.553 621.921 261.257 624.231C269.72 622.444 278.06 619.355 286.253 615.085C272.348 611.886 258.238 607.87 244.048 603.035ZM370.105 624.539C359.688 624.697 348.946 624.302 337.95 623.347C332.869 625.963 327.645 628.331 322.272 630.435C334.873 630.539 347.614 629.928 360.45 628.564C363.726 627.277 366.943 625.933 370.105 624.539ZM200.625 585.721C196.091 591.261 191.724 596.15 187.55 600.326C199.496 605.839 211.822 610.654 224.47 614.72C230.379 611.136 236.216 606.99 241.977 602.328C228.223 597.567 214.401 592.032 200.625 585.721ZM395.144 623.021C388.545 623.74 381.774 624.213 374.851 624.432C372.381 625.576 369.876 626.681 367.336 627.758C376.756 626.559 386.031 624.976 395.144 623.021ZM315.563 596.843C307.724 603.743 299.685 609.618 291.474 614.342C307.195 617.758 322.627 620.124 337.585 621.448C346.964 616.581 355.85 610.856 364.257 604.364C348.454 602.842 332.143 600.339 315.563 596.843ZM404.175 606.12C392.198 606.262 379.747 605.761 366.954 604.614C358.77 611.071 350.128 616.807 341.014 621.733C352.468 622.63 363.635 622.909 374.428 622.582C384.973 617.685 394.88 612.178 404.175 606.12ZM265.029 583.286C258.707 590.007 252.273 596.147 245.732 601.637C260.209 606.53 274.596 610.56 288.756 613.74C297.108 609.127 305.297 603.288 313.298 596.357C297.374 592.917 281.215 588.564 265.029 583.286ZM447.82 602.398C435.258 604.521 421.794 605.742 407.639 606.059C398.726 612.031 389.24 617.494 379.157 622.394C391.691 621.798 403.695 620.37 415.032 618.11C421.956 616.17 428.777 614.012 435.485 611.646C439.715 608.613 443.825 605.528 447.82 602.398ZM163.386 566.641C161.676 573.818 160.618 580.344 160.281 586.142C168.552 590.952 177.052 595.409 185.76 599.492C189.94 595.354 194.322 590.47 198.883 584.917C195.583 583.388 192.283 581.819 188.988 580.199C180.206 575.885 171.667 571.357 163.386 566.641ZM216.547 564.647C211.485 571.812 206.575 578.363 201.845 584.224C215.785 590.595 229.769 596.162 243.674 600.937C250.246 595.488 256.715 589.368 263.077 582.647C247.52 577.505 231.949 571.506 216.547 564.647ZM128.275 544.47C128.579 552.576 129.682 560.241 131.65 567.407C140.277 573.727 149.234 579.625 158.481 585.082C158.891 579.266 159.991 572.772 161.707 565.675C150.025 558.958 138.865 551.868 128.275 544.47ZM342.034 568.846C334.052 578.754 325.793 587.627 317.297 595.298C334.033 598.775 350.479 601.24 366.388 602.694C375.789 595.216 384.584 586.769 392.792 577.484C376.408 575.68 359.422 572.804 342.034 568.846ZM171.003 541.589C168.037 549.876 165.632 557.623 163.847 564.754C172.24 569.546 180.902 574.148 189.819 578.527C193.242 580.21 196.673 581.841 200.105 583.425C204.832 577.589 209.743 571.048 214.818 563.879C209.749 561.598 204.696 559.226 199.671 556.757C189.832 551.924 180.269 546.856 171.003 541.589ZM437.485 579.718C426.093 579.892 414.253 579.454 402.056 578.4C399.733 578.199 397.396 577.972 395.047 577.728C386.968 586.972 378.317 595.417 369.064 602.929C382.153 604.037 394.865 604.459 407.062 604.206C418.066 596.796 428.192 588.601 437.485 579.718ZM289.36 553.907C281.899 564 274.253 573.334 266.429 581.783C282.743 587.071 299.017 591.418 315.04 594.829C323.601 587.212 331.943 578.344 340.023 568.384C323.436 564.536 306.491 559.712 289.36 553.907ZM468.78 597.785C463.305 599.299 457.596 600.609 451.674 601.715C448.45 604.294 445.149 606.841 441.767 609.356C450.999 605.887 460.008 602.022 468.78 597.785ZM477.407 576.287C465.702 578.227 453.261 579.354 440.221 579.666C431.129 588.506 421.234 596.688 410.489 604.119C424.769 603.67 438.309 602.285 450.882 599.969C460.396 592.337 469.227 584.434 477.407 576.287ZM91.2324 515.337C93.4359 525.133 97.0333 534.386 102.163 542.993C110.762 551.025 119.811 558.584 129.26 565.64C127.517 558.563 126.574 551.042 126.368 543.133C113.814 534.26 102.076 524.956 91.2324 515.337ZM237.235 533.394C230.508 544.135 223.961 554.084 217.644 563.093C233.156 569.987 248.833 576.002 264.485 581.146C272.333 572.726 280.012 563.393 287.514 553.276C270.871 547.573 254.061 540.945 237.235 533.394ZM512.582 567.155C502.728 570.812 492.018 573.671 480.581 575.734C472.61 583.805 464.013 591.641 454.758 599.219C463.264 597.493 471.3 595.329 478.793 592.732C482.557 590.749 486.278 588.7 489.945 586.579C497.993 580.266 505.531 573.783 512.582 567.155ZM130.15 515.759C128.723 524.96 128.053 533.776 128.209 542.141C138.947 549.694 150.283 556.934 162.168 563.787C163.98 556.636 166.403 548.901 169.365 540.647C155.608 532.765 142.514 524.437 130.15 515.759ZM185.15 506.961C179.897 518.617 175.356 529.609 171.643 539.806C180.965 545.112 190.592 550.217 200.504 555.087C205.616 557.599 210.756 560.006 215.915 562.324C222.227 553.332 228.781 543.384 235.524 532.625C229.66 529.972 223.797 527.207 217.938 524.331C206.666 518.792 195.73 512.989 185.15 506.961ZM368.321 531C363.281 539.313 358.102 547.221 352.782 554.667C349.68 559.012 346.526 563.201 343.332 567.226C360.802 571.169 377.855 574.018 394.289 575.775C403.769 564.839 412.454 552.777 420.382 539.797C403.589 537.948 386.167 535.016 368.321 531ZM469.443 542.087C462.118 542.252 454.605 542.174 446.926 541.846C438.934 541.506 430.76 540.895 422.426 540.018C414.564 552.97 405.945 565.035 396.537 576.008C398.443 576.2 400.34 576.38 402.229 576.544C415.084 577.654 427.525 578.076 439.448 577.819C450.655 566.857 460.623 554.884 469.443 542.087ZM64.5329 489.062C66.4689 496.202 68.8931 503.325 71.8351 510.416C79.8655 520.36 88.4926 529.805 97.6574 538.702C93.5471 530.674 90.6534 522.156 88.8746 513.225C80.1478 505.354 72.0195 497.278 64.5329 489.062ZM312.836 518.79C305.604 530.667 298.156 541.889 290.518 552.328C307.703 558.131 324.696 562.946 341.321 566.77C344.683 562.562 348.001 558.167 351.268 553.592C356.448 546.343 361.495 538.65 366.412 530.568C349.436 526.68 332.087 521.814 314.537 515.968C313.969 516.912 313.406 517.856 312.836 518.79ZM509.777 538.317C497.842 540.387 485.116 541.623 471.745 542.025C463.044 554.795 453.212 566.761 442.17 577.749C455.365 577.347 467.911 576.099 479.67 574.01C490.946 562.549 500.951 550.623 509.777 538.317ZM88.7446 483.024C88.214 493.18 88.7913 502.95 90.5882 512.254C101.577 522.134 113.518 531.694 126.325 540.808C126.259 532.456 126.995 523.687 128.455 514.564C114.197 504.464 100.925 493.902 88.7446 483.024ZM529.355 559.716C525.461 561.762 521.384 563.65 517.134 565.383C512.137 570.216 506.886 574.973 501.375 579.648C511.09 573.48 520.428 566.824 529.355 559.716ZM139.418 477.99C135.393 490.385 132.371 502.332 130.481 513.706C142.926 522.477 156.123 530.896 170.007 538.866C173.739 528.643 178.287 517.655 183.528 506.035C168.013 497.132 153.281 487.744 139.418 477.99ZM260.209 494.932C257.638 499.419 255.087 503.822 252.55 508.132C247.704 516.366 242.923 524.269 238.232 531.797C255.117 539.367 271.985 546 288.676 551.703C296.394 541.187 303.924 529.851 311.246 517.83C311.743 517.012 312.235 516.189 312.73 515.367C295.355 509.517 277.792 502.705 260.209 494.932ZM547.637 527.844C536.937 532.148 525.131 535.483 512.394 537.847C503.724 550.102 493.901 561.989 482.84 573.422C494.829 571.108 505.965 567.898 516.098 563.797C528.037 552.222 538.515 540.21 547.637 527.844ZM204.541 467.035C201.325 473.27 198.244 479.388 195.315 485.374C191.981 492.182 188.845 498.815 185.921 505.252C196.516 511.293 207.475 517.107 218.771 522.657C224.684 525.562 230.603 528.352 236.52 531.028C241.243 523.46 246.058 515.501 250.945 507.195C253.446 502.945 255.964 498.601 258.501 494.178C251.671 491.134 244.838 487.946 238.015 484.614C226.518 478.997 215.353 473.125 204.541 467.035ZM573.209 514.201C566.524 518.876 559.076 522.964 550.945 526.466C542.199 538.607 532.166 550.416 520.758 561.818C527.048 559.014 532.914 555.843 538.319 552.31C548.358 543.703 557.829 534.509 566.675 524.789C568.933 521.246 571.11 517.716 573.209 514.201ZM58.8116 453.247C59.3705 463.894 60.913 474.538 63.522 485.145C71.1072 493.658 79.3877 502.033 88.3175 510.195C86.7586 500.997 86.3442 491.381 86.9687 481.428C76.7808 472.224 67.3746 462.8 58.8116 453.247ZM95.661 443.495C92.0231 456.296 89.7073 468.724 88.8872 480.639C101.101 491.627 114.437 502.308 128.794 512.518C130.74 501.13 133.797 489.203 137.828 476.867C122.681 466.127 108.587 454.95 95.661 443.495ZM39.274 457.306C40.2497 460.58 41.3206 463.857 42.4955 467.13C50.0103 480.52 58.489 493.286 67.831 505.352C65.4224 498.935 63.4249 492.495 61.8189 486.044C53.435 476.606 45.8991 466.996 39.274 457.306ZM391.997 486.807C384.839 501.85 377.27 516.089 369.334 529.319C387.21 533.32 404.65 536.224 421.448 538.039C422.575 536.166 423.69 534.278 424.785 532.368C431.406 520.833 437.461 508.64 442.974 495.932C426.519 493.921 409.465 490.879 391.997 486.807ZM493.713 498.842C487.951 498.922 482.069 498.847 476.083 498.622C465.979 498.238 455.568 497.415 444.9 496.161C439.303 509.111 433.146 521.536 426.4 533.288C425.443 534.958 424.469 536.613 423.487 538.255C431.486 539.08 439.339 539.659 447.018 539.987C455.129 540.333 463.044 540.398 470.738 540.191C479.538 527.178 487.167 513.33 493.713 498.842ZM338.888 471.615C331.372 486.524 323.577 500.828 315.522 514.33C333.087 520.168 350.447 525.02 367.423 528.887C375.376 515.672 382.967 501.433 390.147 486.373C373.379 482.4 356.237 477.481 338.888 471.615ZM535.323 495.233C522.941 497.33 509.703 498.521 495.764 498.804C489.282 513.263 481.736 527.099 473.029 540.122C486.535 539.659 499.343 538.335 511.31 536.157C520.631 522.909 528.599 509.23 535.323 495.233ZM155.769 436.467C153.786 440.816 151.896 445.131 150.101 449.408C146.286 458.505 142.913 467.428 140.027 476.132C153.93 485.938 168.717 495.377 184.301 504.326C187.213 497.918 190.333 491.322 193.642 484.564C196.589 478.545 199.688 472.391 202.923 466.121C186.323 456.708 170.572 446.779 155.769 436.467ZM284.804 450.482C276.814 465.387 268.904 479.725 261.142 493.305C278.748 501.079 296.331 507.888 313.719 513.728C321.782 500.236 329.584 485.93 337.112 471.012C319.822 465.106 302.332 458.264 284.804 450.482ZM573.477 484.757C562.608 489.144 550.578 492.502 537.572 494.842C530.95 508.798 523.097 522.439 513.919 535.665C526.954 533.131 538.954 529.561 549.732 524.964C559.099 511.911 566.975 498.475 573.477 484.757ZM32.2389 419.205C33.0422 429.951 34.8195 440.728 37.6479 451.502C44.3699 461.83 52.1466 472.088 60.8989 482.164C58.5721 471.803 57.2455 461.414 56.8372 451.028C47.5886 440.527 39.3608 429.882 32.2389 419.205ZM61.7644 409.862C59.288 423.297 58.2026 436.798 58.6823 450.298C67.3003 460.044 76.8082 469.664 87.138 479.064C88.0741 467.171 90.4599 454.811 94.1198 442.121C82.7363 431.939 72.2746 421.543 62.8181 411.041C62.4648 410.648 62.1149 410.253 61.7644 409.862ZM228.752 422.334C220.397 437.137 212.565 451.54 205.398 465.374C216.199 471.459 227.355 477.329 238.841 482.94C245.7 486.289 252.569 489.492 259.434 492.549C267.197 478.973 275.106 464.633 283.102 449.723C276.362 446.708 269.618 443.556 262.878 440.263C251.155 434.536 239.772 428.545 228.752 422.334ZM594.067 474.33C588.511 477.828 582.484 480.948 576.029 483.696C569.728 497.265 562.105 510.565 553.046 523.501C561.371 519.697 568.914 515.249 575.587 510.165C582.637 498.058 588.775 486.109 594.067 474.33ZM111.341 401.966C108.684 407.703 106.232 413.401 104.001 419.048C101.002 426.639 98.4039 434.132 96.2373 441.503C109.158 453.001 123.265 464.222 138.441 475.009C141.305 466.421 144.633 457.637 148.381 448.699C150.227 444.299 152.177 439.859 154.222 435.385C138.855 424.606 124.521 413.416 111.341 401.966ZM30.7318 443.916C32.8678 448.613 35.1149 453.245 37.4747 457.81C36.9254 455.965 36.408 454.12 35.9202 452.275C34.1142 449.494 32.3849 446.707 30.7318 443.916ZM580.303 508.781C579.228 509.681 578.129 510.561 577.005 511.423C576.049 513.062 575.077 514.704 574.088 516.348C576.2 513.857 578.273 511.334 580.303 508.781ZM510.177 453.679C507.16 453.731 504.108 453.74 501.027 453.703C488.379 453.547 475.2 452.618 461.606 450.927C456.917 465.89 451.616 480.434 445.669 494.377C456.101 495.589 466.283 496.386 476.167 496.76C482.423 496.996 488.556 497.062 494.555 496.961C500.724 483.057 505.905 468.573 510.177 453.679ZM411.376 441.609C405.561 456.667 399.363 471.211 392.818 485.083C410.275 489.14 427.313 492.16 443.741 494.146C449.707 480.211 455.028 465.667 459.731 450.689C444.092 448.669 427.914 445.642 411.376 441.609ZM16.5943 392.134C17.3874 400.483 18.59 409.002 20.2305 417.689C21.1937 420.461 22.1987 423.211 23.2378 425.946C26.5064 432.808 30.269 439.68 34.4971 446.535C32.1519 436.35 30.7255 426.171 30.1529 416.028C25.0027 408.056 20.4698 400.077 16.5943 392.134ZM34.3409 374.613C32.0947 388.115 31.2609 401.747 31.9958 415.436C39.0937 426.374 47.3763 437.295 56.7446 448.079C56.4425 434.719 57.6481 421.368 60.1947 408.094C50.4251 397.003 41.7749 385.799 34.3409 374.613ZM179.037 391.131C170.678 405.908 163.133 420.498 156.565 434.747C171.378 445.077 187.15 455.027 203.78 464.46C210.948 450.622 218.78 436.219 227.133 421.422C210.19 411.806 194.123 401.663 179.037 391.131ZM612.416 459.648C607.825 464.343 602.647 468.614 596.931 472.462C591.943 483.813 586.173 495.319 579.567 506.97C582.354 504.611 584.966 502.131 587.397 499.523C596.721 486.876 605.09 473.548 612.416 459.648ZM552.731 449.449C540.076 451.892 526.476 453.288 512.122 453.636C507.877 468.521 502.728 483.005 496.6 496.924C510.632 496.602 523.917 495.354 536.298 493.182C543.024 478.893 548.462 464.276 552.731 449.449ZM360.163 426.249C353.611 441.231 346.796 455.848 339.734 469.934C357.081 475.789 374.212 480.697 390.965 484.651C397.521 470.783 403.73 456.233 409.556 441.16C393.377 437.148 376.858 432.177 360.163 426.249ZM590.321 437.783C579.629 442.657 567.715 446.407 554.783 449.041C550.567 463.865 545.19 478.481 538.541 492.778C551.688 490.331 563.785 486.826 574.643 482.268C581.352 467.709 586.531 452.843 590.321 437.783ZM308.541 405.051C300.892 420.039 293.258 434.687 285.691 448.831C303.211 456.606 320.688 463.438 337.959 469.329C345.027 455.245 351.846 440.619 358.405 425.624C341.898 419.7 325.224 412.841 308.541 405.051ZM74.6254 366.17C69.1365 379.836 64.9315 393.652 62.2044 407.546C62.8673 408.295 63.5357 409.041 64.2088 409.79C73.4349 420.037 83.6252 430.185 94.703 440.133C96.8362 432.974 99.3679 425.713 102.267 418.374C104.577 412.528 107.121 406.63 109.883 400.691C96.9709 389.383 85.1806 377.829 74.6254 366.17ZM135.517 357.375C126.642 371.774 118.788 386.104 112.164 400.203C125.325 411.664 139.649 422.867 155.018 433.661C161.599 419.411 169.151 404.824 177.508 390.059C162.489 379.501 148.457 368.561 135.517 357.375ZM255.26 376.887C246.333 391.762 237.758 406.418 229.67 420.709C240.658 426.903 252.014 432.877 263.706 438.589C270.465 441.892 277.23 445.051 283.989 448.073C291.561 433.92 299.203 419.262 306.86 404.26C299.002 400.561 291.144 396.657 283.301 392.546C273.697 387.508 264.343 382.28 255.26 376.887ZM611.624 425.365C605.822 429.656 599.427 433.458 592.491 436.77C588.801 451.793 583.745 466.631 577.185 481.168C583.763 478.254 589.865 474.94 595.443 471.226C602.265 455.634 607.61 440.341 611.624 425.365ZM16.6982 343.248C15.2466 357.208 15.0171 371.722 16.1411 386.793C20.0073 395.249 24.6343 403.767 29.9838 412.284C29.5033 398.876 30.5036 385.535 32.8384 372.327C26.5075 362.586 21.1058 352.864 16.6982 343.248ZM8.27263 372.336C10.3572 383.704 13.0592 394.836 16.3399 405.701C15.4389 399.47 14.7638 393.328 14.3044 387.275C12.0271 382.271 10.0134 377.287 8.27263 372.336ZM628.82 409.054C624.512 414.357 619.566 419.182 614.03 423.535C610.156 438.459 604.973 453.697 598.332 469.23C604.938 464.509 610.749 459.19 615.68 453.273C616.682 451.259 617.668 449.235 618.627 447.198C622.801 434.065 626.174 421.353 628.82 409.054ZM46.6061 330.791C41.3024 344.304 37.3119 358.042 34.8065 371.925C42.188 383.213 50.8341 394.544 60.6526 405.781C63.4681 391.954 67.7274 378.212 73.2401 364.631C71.7473 362.962 70.2771 361.296 68.835 359.626C60.566 350.044 53.1367 340.405 46.6061 330.791ZM522.228 395.134C519.775 395.236 517.301 395.312 514.807 395.352C502.443 395.547 489.564 394.951 476.295 393.566C472.436 412.478 467.747 431.098 462.171 449.119C475.584 450.774 488.584 451.685 501.061 451.839C504.314 451.88 507.531 451.867 510.708 451.804C515.875 433.425 519.667 414.431 522.228 395.134ZM430.438 385.939C427.944 394.19 425.344 402.356 422.632 410.411C419.269 420.404 415.736 430.23 412.05 439.852C428.559 443.869 444.701 446.883 460.295 448.885C465.875 430.885 470.572 412.275 474.437 393.363C460.163 391.799 445.447 389.325 430.438 385.939ZM207.253 345.06C197.475 359.946 188.323 374.813 179.965 389.498C195.041 400.03 211.105 410.177 228.053 419.795C236.149 405.487 244.732 390.82 253.666 375.935C237.272 366.133 221.767 355.793 207.253 345.06ZM563.787 389.802C551.407 392.609 538.12 394.357 524.116 395.046C521.57 414.342 517.797 433.35 512.651 451.763C527.068 451.385 540.679 449.944 553.299 447.448C558.616 428.487 562.032 409.194 563.787 389.802ZM382.155 372.182C375.426 389.939 368.338 407.468 360.912 424.533C377.587 430.45 394.081 435.407 410.23 439.405C413.936 429.744 417.486 419.871 420.867 409.831C423.56 401.827 426.143 393.717 428.618 385.523C413.374 382.016 397.835 377.568 382.155 372.182ZM97.7701 320.699C88.9936 334.969 81.4579 349.517 75.4062 364.243C85.955 375.952 97.7596 387.562 110.708 398.928C117.356 384.833 125.222 370.518 134.094 356.143C120.768 344.533 108.62 332.666 97.7701 320.699ZM598.373 378.026C588.444 382.783 577.494 386.56 565.697 389.36C563.977 408.753 560.604 428.053 555.346 447.029C568.342 444.316 580.258 440.466 590.891 435.475C595.471 416.539 597.873 397.312 598.373 378.026ZM334.499 353.041C332.709 356.703 330.919 360.358 329.124 364.001C322.564 377.309 315.975 390.472 309.393 403.387C326.043 411.162 342.684 418.002 359.156 423.909C366.58 406.857 373.668 389.334 380.397 371.577C365.175 366.284 349.829 360.105 334.499 353.041ZM4.17889 303.498C3.8969 304.641 3.61648 305.788 3.34412 306.94C2.88433 321.48 3.46244 336.228 5.1372 351.105C5.42622 353.672 5.74724 356.228 6.09801 358.775C8.03877 366.358 10.6665 374.051 13.9457 381.807C13.1503 367.31 13.6055 353.335 15.1914 339.878C9.804 327.498 6.08678 315.311 4.17889 303.498ZM166.746 311.796C155.77 326.405 145.616 341.115 136.512 355.765C149.423 366.939 163.433 377.873 178.436 388.428C186.811 373.722 195.972 358.844 205.758 343.95C191.795 333.55 178.76 322.789 166.746 311.796ZM285.717 327.423C282.227 332.96 278.763 338.49 275.337 344.006C268.823 354.501 262.438 364.945 256.221 375.285C265.275 380.66 274.598 385.873 284.175 390.895C292.01 395.003 299.862 398.902 307.711 402.596C314.295 389.675 320.888 376.505 327.451 363.188C329.241 359.555 331.027 355.912 332.811 352.261C325.207 348.726 317.608 344.972 310.031 340.999C301.71 336.635 293.603 332.102 285.717 327.423ZM26.8279 295.816C22.2365 309.742 18.9387 324.335 17.1062 339.595C21.4513 349.506 26.8819 359.554 33.3294 369.641C35.9519 355.89 40.0143 342.291 45.3458 328.92C37.9291 317.805 31.7228 306.73 26.8279 295.816ZM621.098 363.99C614.824 368.952 607.849 373.319 600.254 377.104C599.82 396.342 597.51 415.528 593.052 434.434C600.112 430.958 606.577 426.962 612.388 422.451C617.554 402.367 620.335 382.863 621.098 363.99ZM637.209 396.685C635.467 399.812 633.536 402.81 631.429 405.679C629.576 414.746 627.325 424.036 624.65 433.555C629.595 421.588 633.798 409.278 637.209 396.685ZM69.7271 285.375C60.8903 299.471 53.387 313.944 47.4411 328.691C54.0916 338.579 61.7157 348.513 70.2514 358.403C71.4914 359.838 72.7497 361.276 74.0276 362.711C80.1307 348.005 87.6949 333.491 96.4764 319.263C91.7942 314.046 87.3567 308.813 83.179 303.572C78.3474 297.51 73.8592 291.437 69.7271 285.375ZM636.337 349.102C632.379 353.925 627.926 358.37 623.019 362.439C622.372 381.198 619.754 400.578 614.796 420.526C620.454 415.844 625.438 410.635 629.688 404.904C633.683 385.261 635.806 366.679 636.337 349.102ZM240.63 297.317C238.625 300.027 236.634 302.742 234.657 305.462C225.483 318.088 216.659 330.801 208.281 343.498C222.769 354.214 238.252 364.541 254.627 374.332C260.849 363.985 267.236 353.533 273.754 343.032C277.176 337.525 280.632 332.003 284.117 326.474C268.729 317.271 254.204 307.504 240.63 297.317ZM130.868 274.789C118.987 289.151 108.199 303.941 98.7939 319.045C109.621 331.022 121.76 342.904 135.091 354.532C144.218 339.864 154.389 325.143 165.373 310.531C152.676 298.821 141.138 286.854 130.868 274.789ZM445.384 329.698C441.14 348.1 436.323 366.323 430.982 384.149C445.935 387.519 460.593 389.979 474.802 391.529C476.137 384.903 477.376 378.242 478.508 371.558C480.501 359.792 482.179 347.957 483.567 336.127C471.19 334.76 458.421 332.618 445.384 329.698ZM526.336 337.683C523.222 337.823 520.067 337.905 516.875 337.925C506.754 337.991 496.241 337.456 485.42 336.326C484.027 348.189 482.345 360.058 480.346 371.856C479.22 378.508 477.988 385.136 476.662 391.73C489.802 393.097 502.551 393.683 514.791 393.49C517.374 393.449 519.935 393.371 522.472 393.261C523.751 383.302 524.705 373.267 525.351 363.197C525.895 354.707 526.217 346.194 526.336 337.683ZM16.3422 264.49C12.1865 275.361 8.51916 286.773 5.38534 298.746C6.87496 310.841 10.3481 323.393 15.6564 336.194C17.6616 321.242 21.0682 306.938 25.7119 293.277C21.5048 283.514 18.3566 273.888 16.3422 264.49ZM401.64 317.269C396.02 334.187 390.063 351.122 383.783 367.87C383.463 368.727 383.137 369.581 382.815 370.436C398.459 375.809 413.961 380.242 429.16 383.736C434.505 365.91 439.326 347.687 443.57 329.287C429.833 326.141 415.806 322.136 401.64 317.269ZM564.36 332.482C553.156 335.209 541.037 336.913 528.202 337.59C528.083 346.168 527.759 354.747 527.21 363.303C526.569 373.303 525.623 383.272 524.36 393.171C538.377 392.466 551.638 390.692 563.954 387.86C565.517 369.41 565.584 350.882 564.36 332.482ZM647.402 332.189C646.839 333.254 646.26 334.308 645.683 335.354C643.483 339.322 641.003 343.086 638.265 346.661C637.888 363.845 635.996 381.988 632.329 401.14C633.51 399.349 634.629 397.513 635.672 395.627C637.052 393.138 638.302 390.651 639.404 388.072C643.752 369.933 646.467 351.248 647.402 332.189ZM359.726 300.485C351.702 317.489 343.543 334.517 335.32 351.364C350.6 358.403 365.89 364.558 381.055 369.829C381.382 368.961 381.712 368.095 382.038 367.226C388.313 350.489 394.265 333.567 399.882 316.66C386.575 312.026 373.148 306.635 359.726 300.485ZM594.62 321.423C586.054 325.848 576.528 329.378 566.198 332.022C567.439 350.42 567.394 368.952 565.863 387.411C577.658 384.572 588.565 380.748 598.417 375.943C598.756 357.748 597.413 339.51 594.62 321.423ZM48.8664 248.157C40.3052 262.301 33.1664 277.31 27.7125 293.193C32.5266 304.248 38.7192 315.501 46.1955 326.82C52.2092 312.131 59.7484 297.723 68.5935 283.698C60.5798 271.753 53.9616 259.856 48.8664 248.157ZM203.707 266.423C201.589 268.835 199.489 271.254 197.406 273.682C187.07 285.738 177.179 297.976 167.872 310.295C179.851 321.263 192.853 332.005 206.788 342.388C215.163 329.693 223.984 316.99 233.151 304.375C235.134 301.645 237.133 298.92 239.148 296.2C226.464 286.602 214.625 276.638 203.707 266.423ZM317.23 278.379C306.916 294.139 296.696 310.016 286.71 325.843C294.556 330.497 302.624 335.006 310.907 339.348C318.465 343.312 326.045 347.056 333.631 350.584C341.855 333.737 350.015 316.709 358.038 299.705C350.747 296.33 343.457 292.735 336.19 288.911C329.723 285.509 323.402 281.992 317.23 278.379ZM104.447 239.211C91.8618 253.483 80.5548 268.342 70.8163 283.655C75.0419 289.892 79.6541 296.151 84.6399 302.405C88.6863 307.482 92.9796 312.551 97.5041 317.61C106.949 302.492 117.763 287.702 129.65 273.354C122.894 265.335 116.699 257.276 111.099 249.22C108.779 245.884 106.562 242.545 104.447 239.211ZM617.07 305.65C611.076 311.36 604.135 316.31 596.363 320.501C599.19 338.577 600.576 356.811 600.295 375.008C607.948 371.123 614.937 366.628 621.186 361.531C621.789 342.217 620.284 323.569 617.07 305.65ZM13.7668 237.102C9.32123 253.507 6.22015 270.394 4.57351 287.624C4.61406 289.579 4.7139 291.549 4.8654 293.532C7.99875 282.216 11.6103 271.408 15.6653 261.092C14.1378 252.891 13.4865 244.874 13.7668 237.102ZM276.364 251.448C264.487 265.972 252.889 280.814 241.744 295.816C255.275 305.972 269.759 315.715 285.11 324.895C295.096 309.07 305.316 293.195 315.628 277.439C301.74 269.238 288.622 260.532 276.364 251.448ZM170.933 231.723C157.091 245.083 144.042 258.988 132.079 273.33C142.313 285.375 153.824 297.326 166.499 309.029C175.8 296.725 185.677 284.508 195.993 272.475C198.095 270.025 200.219 267.584 202.355 265.149C190.798 254.237 180.293 243.048 170.933 231.723ZM631.359 287.503C627.88 293.58 623.629 299.104 618.681 304.079C621.977 321.994 623.581 340.634 623.095 359.939C628.045 355.698 632.498 351.058 636.413 346.02C636.827 325.109 634.983 305.635 631.359 287.503ZM39.0188 217.739C30.954 231.161 23.7675 245.647 17.5979 261.264C19.4199 270.818 22.4501 280.646 26.6234 290.644C32.1826 274.925 39.3852 260.066 47.9695 246.059C43.9251 236.448 40.9197 226.979 39.0188 217.739ZM456.354 274.127C453.404 292.076 449.867 310.057 445.798 327.879C458.772 330.786 471.475 332.917 483.783 334.275C485.865 316.126 487.252 297.998 487.986 280.151C477.726 278.801 467.147 276.791 456.354 274.127ZM524.28 282.119C520.229 282.244 516.093 282.244 511.885 282.117C504.743 281.901 497.38 281.322 489.839 280.386C489.102 298.223 487.716 316.338 485.636 334.476C496.386 335.598 506.827 336.129 516.873 336.064C520.078 336.043 523.241 335.959 526.36 335.82C526.55 317.817 525.817 299.836 524.28 282.119ZM418.736 262.448C413.622 279.95 408.113 297.711 402.229 315.497C416.341 320.345 430.307 324.336 443.982 327.468C448.057 309.63 451.594 291.633 454.54 273.67C442.806 270.699 430.825 266.959 418.736 262.448ZM557.022 277.893C547.483 280.224 537.129 281.609 526.146 282.052C527.681 299.765 528.411 317.735 528.225 335.727C541.046 335.043 553.109 333.333 564.23 330.601C564.202 330.216 564.176 329.829 564.148 329.445C562.857 312.077 560.425 294.835 557.022 277.893ZM84.9271 201.419C71.7317 215.231 59.9794 230.157 50.0606 246.207C55.0723 257.944 61.6521 269.919 69.6884 281.974C79.4809 266.666 90.8225 251.823 103.418 237.576C95.8264 225.417 89.6225 213.31 84.9271 201.419ZM639.827 265.13C638.378 272.038 636.048 278.669 632.746 284.979C636.533 303.109 638.55 322.577 638.319 343.479C640.401 340.595 642.317 337.59 644.053 334.459C645.32 332.171 646.553 329.916 647.592 327.598C647.916 318.023 647.793 308.357 647.203 298.624C645.327 286.881 642.85 275.733 639.827 265.13ZM384.29 247.611C376.56 264.501 368.612 281.633 360.521 298.797C373.877 304.916 387.234 310.276 400.469 314.888C406.358 297.086 411.873 279.31 416.991 261.792C406.142 257.682 395.209 252.953 384.29 247.611ZM243.314 224.187C230.104 237.403 217.24 251.067 204.942 265.017C215.817 275.195 227.614 285.128 240.26 294.697C251.401 279.701 262.999 264.861 274.872 250.337C263.593 241.903 253.051 233.151 243.314 224.187ZM582.299 268.43C575.246 272.216 567.377 275.216 558.832 277.437C562.258 294.477 564.709 311.822 566.009 329.296C566.029 329.575 566.048 329.857 566.068 330.138C576.371 327.477 585.838 323.925 594.316 319.483C594.083 318.033 593.841 316.584 593.59 315.136C590.861 299.389 587.041 283.778 582.299 268.43ZM146.487 197.647C131.864 210.359 118.189 223.771 105.739 237.755C107.924 241.214 110.221 244.683 112.632 248.151C118.139 256.071 124.228 264 130.864 271.894C142.855 257.538 155.917 243.631 169.75 230.284C162.769 221.74 156.441 213.12 150.806 204.489C149.318 202.208 147.878 199.928 146.487 197.647ZM350.192 228.843C339.557 244.58 328.859 260.632 318.254 276.817C324.38 280.401 330.651 283.888 337.067 287.263C344.308 291.072 351.572 294.654 358.835 298.017C366.932 280.84 374.886 263.693 382.621 246.79C375.428 243.229 368.239 239.405 361.089 235.311C357.398 233.197 353.764 231.038 350.192 228.843ZM37.3001 183.61C32.9682 190.109 28.7982 196.897 24.8036 203.985C21.6966 211.791 18.9074 219.741 16.4428 227.813C15.1033 237.381 15.3165 247.418 16.9852 257.79C23.2141 242.458 30.4284 228.227 38.4904 215.027C36.5045 204.176 36.069 193.657 37.3001 183.61ZM602.33 253.174C597.153 258.767 590.986 263.542 583.972 267.508C588.788 283.046 592.662 298.856 595.426 314.806C595.642 316.053 595.851 317.303 596.054 318.55C603.839 314.29 610.75 309.254 616.666 303.451C613.384 285.975 608.48 269.198 602.33 253.174ZM214.059 193.793C202.429 203.143 191.093 212.887 180.184 222.978C177.524 225.439 174.889 227.919 172.283 230.42C181.601 241.704 192.067 252.86 203.588 263.742C215.884 249.797 228.742 236.139 241.949 222.926C231.717 213.409 222.393 203.657 214.059 193.793ZM316.004 205.256C303.021 219.677 290.135 234.657 277.55 250.002C289.755 259.041 302.818 267.709 316.651 275.875C327.263 259.679 337.966 243.616 348.609 227.865C337.074 220.701 326.183 213.13 316.004 205.256ZM75.8921 169.278C62.8459 182.998 50.9343 198.314 40.4546 215.373C42.2189 224.717 45.1493 234.324 49.1787 244.104C59.1742 228.124 70.9741 213.265 84.1879 199.513C80.2596 189.23 77.4677 179.117 75.8921 169.278ZM614.507 234.495C613.33 237.23 611.965 239.894 610.4 242.477C608.437 245.725 606.204 248.767 603.731 251.612C609.931 267.627 614.9 284.387 618.262 301.844C622.942 296.989 626.954 291.627 630.221 285.751C630.413 285.407 630.601 285.062 630.785 284.716C626.965 266.661 621.378 249.952 614.507 234.495ZM129.097 162.82C113.728 174.138 99.3576 186.508 86.3513 199.939C90.9726 211.804 97.1262 223.92 104.711 236.122C117.199 222.133 130.892 208.726 145.512 196.031C138.845 184.914 133.341 173.8 129.097 162.82ZM516.584 225.778C514.835 225.734 513.07 225.663 511.287 225.562C504.432 225.177 497.313 224.384 489.99 223.192C490.657 241.106 490.653 259.649 489.919 278.517C497.461 279.459 504.819 280.038 511.954 280.254C516.089 280.378 520.145 280.38 524.116 280.261C522.445 261.707 519.892 243.452 516.584 225.778ZM463.711 217.413C462.005 235.517 459.636 253.876 456.652 272.278C467.374 274.931 477.88 276.934 488.064 278.28C488.794 259.383 488.791 240.812 488.113 222.88C480.186 221.522 472.029 219.698 463.711 217.413ZM542.785 224.151C535.226 225.391 527.085 225.94 518.49 225.816C521.781 243.463 524.321 261.682 525.984 280.198C536.932 279.762 547.209 278.384 556.648 276.072C553.014 258.361 548.328 240.987 542.785 224.151ZM433.774 207.431C429.376 224.713 424.532 242.542 419.263 260.653C431.28 265.142 443.183 268.865 454.84 271.824C457.822 253.4 460.185 235.024 461.886 216.907C452.67 214.31 443.268 211.147 433.774 207.431ZM288.637 181.766C273.747 194.793 258.991 208.564 244.637 222.865C254.329 231.784 264.826 240.494 276.06 248.89C288.648 233.538 301.544 218.545 314.535 204.111C305.286 196.882 296.637 189.407 288.637 181.766ZM407.641 195.875C400.393 212.158 392.842 228.91 385.068 245.913C395.906 251.216 406.753 255.913 417.516 259.996C422.789 241.87 427.633 224.032 432.03 206.74C423.943 203.519 415.793 199.898 407.641 195.875ZM563.291 218.477C557.624 220.83 551.375 222.611 544.646 223.833C550.165 240.628 554.832 257.955 558.458 275.616C566.971 273.397 574.775 270.396 581.743 266.614C576.587 250.205 570.37 234.108 563.291 218.477ZM191.368 162.81C178.443 171.775 165.943 181.272 154.013 191.233C151.964 192.944 149.932 194.668 147.918 196.405C149.349 198.759 150.834 201.112 152.37 203.465C157.942 211.999 164.199 220.526 171.101 228.982C173.683 226.508 176.289 224.051 178.922 221.615C189.854 211.504 201.213 201.739 212.865 192.369C206.303 184.507 200.37 176.578 195.108 168.641C193.821 166.698 192.575 164.754 191.368 162.81ZM619.623 214.999C618.947 220.938 617.578 226.661 615.479 232.112C622.447 247.5 628.157 264.123 632.126 282.08C635.331 275.46 637.479 268.478 638.669 261.185C633.629 244.487 627.211 229.157 619.623 214.999ZM75.27 137.532C62.554 150.032 50.6304 164.156 39.6975 180.07C37.9704 190.409 38.0989 201.317 39.9685 212.631C50.5194 195.737 62.4747 180.56 75.5429 166.959C74.1086 156.805 73.9911 146.957 75.27 137.532ZM641.345 254.625C641.166 256.786 640.913 258.923 640.58 261.036C642.392 267.078 644.025 273.296 645.469 279.703C644.431 271.22 643.049 262.857 641.345 254.625ZM382.26 182.03C372.081 196.69 361.692 211.837 351.24 227.292C354.775 229.465 358.37 231.602 362.026 233.695C369.124 237.759 376.259 241.557 383.399 245.092C391.175 228.085 398.726 211.331 405.976 195.046C400.115 192.116 394.256 188.982 388.421 185.641C386.344 184.453 384.292 183.247 382.26 182.03ZM580.731 207.777C576.248 211.767 570.968 215.081 565.005 217.736C572.058 233.307 578.256 249.341 583.406 265.687C590.403 261.686 596.508 256.872 601.583 251.236C600.557 248.615 599.499 246.012 598.408 243.432C593.182 231.068 587.228 219.175 580.731 207.777ZM265.014 156.487C248.203 167.682 231.588 179.774 215.519 192.622C223.809 202.432 233.086 212.133 243.273 221.604C257.633 207.293 272.397 193.514 287.293 180.476C279.159 172.617 271.715 164.591 265.014 156.487ZM120.354 131.209C105.138 141.816 90.7596 153.891 77.521 167.58C78.9877 177.459 81.708 187.646 85.6179 198.032C98.6618 184.637 113.05 172.305 128.414 161.02C124.635 150.927 121.923 140.956 120.354 131.209ZM39.3611 172.644C36.1383 178.678 33.1141 184.821 30.2934 191.064C32.7775 187.067 35.3218 183.173 37.9205 179.379C38.3111 177.107 38.7923 174.862 39.3611 172.644ZM354.993 163.887C342.459 176.57 329.818 189.954 317.26 203.864C327.371 211.679 338.192 219.199 349.657 226.316C360.106 210.866 370.491 195.728 380.665 181.072C371.642 175.599 363.069 169.846 354.993 163.887ZM617.368 183.789C619.653 193.412 620.541 202.754 619.927 211.646C627.561 225.508 634.076 240.496 639.267 256.801C639.598 253.777 639.777 250.706 639.805 247.587C634.631 225.242 627.053 203.897 617.368 183.789ZM591.763 193.592C591.245 194.603 590.692 195.599 590.101 196.577C587.892 200.226 585.224 203.525 582.141 206.481C588.753 218.05 594.815 230.129 600.127 242.696C601.101 244.997 602.045 247.315 602.967 249.648C605.12 247.097 607.072 244.39 608.806 241.521C610.626 238.515 612.172 235.393 613.457 232.168C607.134 218.315 599.782 205.48 591.763 193.592ZM176.06 132.967C173.337 134.462 170.63 135.982 167.942 137.53C155.041 144.959 142.555 153.007 130.656 161.678C134.843 172.6 140.303 183.68 146.947 194.791C148.89 193.117 150.85 191.457 152.825 189.807C164.821 179.791 177.392 170.241 190.394 161.226C184.624 151.761 179.82 142.307 176.06 132.967ZM84.0905 109.26C68.7294 126.168 55.2455 144.662 43.9158 164.415C42.5329 168.045 41.4192 171.768 40.5684 175.575C51.4189 160.236 63.1992 146.591 75.7278 134.491C77.2262 125.655 79.9904 117.212 84.0905 109.26ZM245.672 129.575C227.576 139.288 209.881 150.061 192.907 161.748C194.119 163.7 195.371 165.654 196.665 167.607C201.893 175.495 207.793 183.38 214.321 191.202C230.398 178.347 247.017 166.249 263.831 155.045C257.003 146.669 250.973 138.218 245.801 129.788C245.758 129.718 245.715 129.646 245.672 129.575ZM332.616 145.737C318.472 156.541 304.207 168.201 290.053 180.533C298.002 188.115 306.595 195.54 315.788 202.72C328.334 188.822 340.963 175.447 353.488 162.767C346.092 157.243 339.123 151.548 332.616 145.737ZM503.275 170.51C501.485 170.545 499.669 170.545 497.831 170.495C493.92 170.391 489.893 170.092 485.775 169.606C487.01 179.586 488.018 189.921 488.774 200.54C489.258 207.345 489.638 214.269 489.919 221.291C497.313 222.507 504.495 223.315 511.405 223.702C513.029 223.796 514.64 223.861 516.232 223.905C512.694 205.342 508.326 187.433 503.275 170.51ZM466.748 166.155C466.389 182.277 465.421 198.79 463.886 215.527C472.122 217.801 480.199 219.618 488.044 220.975C487.764 214.111 487.388 207.341 486.915 200.685C486.148 189.921 485.122 179.457 483.865 169.366C478.303 168.637 472.582 167.566 466.748 166.155ZM520.637 168.643C515.796 169.651 510.63 170.252 505.206 170.455C510.25 187.422 514.608 205.362 518.139 223.95C526.684 224.095 534.741 223.565 542.193 222.364C535.963 203.692 528.688 185.692 520.637 168.643ZM445.146 159.531C441.903 174.285 438.262 189.71 434.237 205.606C443.637 209.294 452.944 212.433 462.061 215.017C463.588 198.293 464.547 181.799 464.897 165.7C458.418 164.06 451.812 162.001 445.146 159.531ZM534.265 164.326C530.638 165.947 526.701 167.246 522.503 168.229C530.555 185.316 537.829 203.348 544.056 222.049C550.749 220.852 556.933 219.096 562.518 216.782C554.174 198.563 544.657 180.991 534.265 164.326ZM596.473 179.487C595.715 183.732 594.463 187.798 592.703 191.648C600.691 203.392 608.031 216.058 614.382 229.712C616.355 224.106 617.558 218.207 618.027 212.068C611.596 200.451 604.37 189.628 596.473 179.487ZM119.172 102.398C104.594 111.811 90.6232 122.748 77.4759 135.388C75.9278 144.906 75.8632 154.902 77.1984 165.251C90.4618 151.678 104.843 139.699 120.044 129.168C118.716 120.01 118.404 111.058 119.172 102.398ZM427.026 151.837C421.098 165.464 414.871 179.624 408.401 194.166C416.456 198.144 424.506 201.728 432.494 204.915C436.513 189.027 440.149 173.61 443.386 158.868C437.953 156.798 432.488 154.454 427.026 151.837ZM546.071 156.951C543.102 159.51 539.714 161.7 535.969 163.529C546.365 180.216 555.886 197.805 564.235 216.043C570.175 213.399 575.395 210.097 579.787 206.131C569.614 188.5 558.149 172.074 546.071 156.951ZM409.873 142.694C401.264 154.822 392.38 167.463 383.325 180.494C385.314 181.684 387.324 182.861 389.356 184.024C395.135 187.331 400.935 190.436 406.734 193.339C413.201 178.802 419.427 164.648 425.351 151.027C421.008 148.902 416.671 146.608 412.357 144.139C411.523 143.661 410.696 143.179 409.873 142.694ZM313.522 126.92C297.907 135.585 282.167 145.13 266.584 155.449C273.237 163.482 280.627 171.444 288.706 179.242C302.839 166.924 317.085 155.275 331.211 144.474C324.847 138.713 318.938 132.844 313.522 126.92ZM167.72 103.869C151.923 111.349 136.616 120.027 122.058 130.03C123.557 139.766 126.217 149.751 129.977 159.878C141.812 151.277 154.214 143.292 167.018 135.918C169.784 134.326 172.568 132.762 175.37 131.226C171.759 121.95 169.183 112.797 167.72 103.869ZM233.54 106.142C214.524 113.619 195.764 122.251 177.708 132.065C181.424 141.327 186.187 150.727 191.934 160.162C208.909 148.478 226.608 137.705 244.709 127.985C240.323 120.667 236.587 113.364 233.54 106.142ZM553.899 147.81C552.105 150.724 549.948 153.353 547.462 155.698C559.531 170.804 570.998 187.208 581.186 204.815C584.017 202.048 586.471 198.988 588.507 195.621C589.254 194.387 589.937 193.119 590.563 191.827C589.148 189.766 587.717 187.731 586.267 185.727C576.138 171.743 565.135 159.147 553.899 147.81ZM596.106 156.293C597.447 163.473 597.719 170.406 596.862 176.952C604.649 186.815 611.805 197.321 618.213 208.577C618.539 197.975 616.746 186.715 612.98 175.072C608.136 168.681 602.435 162.405 596.106 156.293ZM390.315 129.737C379.175 139.989 367.796 150.97 356.321 162.544C364.313 168.432 372.8 174.118 381.733 179.532C390.784 166.504 399.664 153.863 408.271 141.737C401.948 137.941 395.952 133.923 390.315 129.737ZM123.939 79.7089C112.272 86.6745 100.745 94.5841 89.4372 103.535C89.0083 104.213 88.598 104.907 88.1961 105.614L86.922 107.901C82.6781 115.559 79.7368 123.722 78.0317 132.294C91.1047 119.953 104.966 109.258 119.41 100.039C120.194 93.0479 121.693 86.2564 123.939 79.7089ZM296.316 105.605C279.826 112.392 263.421 120.126 247.324 128.697C247.346 128.734 247.369 128.771 247.391 128.807C252.548 137.213 258.572 145.645 265.397 154.007C280.947 143.704 296.653 134.168 312.238 125.507C306.299 118.908 300.976 112.248 296.316 105.605ZM557.868 138.98C557.119 141.457 556.123 143.848 554.869 146.14C566.293 157.634 577.489 170.421 587.779 184.629C589.023 186.346 590.252 188.085 591.468 189.844C593.133 185.949 594.275 181.818 594.905 177.495C583.747 163.449 571.292 150.714 557.868 138.98ZM374.069 116.319C361.014 124.851 347.635 134.324 334.132 144.586C340.58 150.33 347.486 155.963 354.814 161.428C366.285 149.854 377.661 138.868 388.802 128.607C383.562 124.641 378.641 120.53 374.069 116.319ZM166.758 77.6334C151.106 84.0597 135.837 91.8262 121.171 101.121C120.277 109.786 120.491 118.772 121.76 127.988C136.329 118.039 151.636 109.404 167.421 101.959C166.197 93.6146 165.956 85.4772 166.758 77.6334ZM489.309 130.418C488.61 130.392 487.904 130.36 487.195 130.314C484.587 130.147 481.894 129.846 479.132 129.417C481.676 141.396 483.822 154.217 485.537 167.701C489.765 168.213 493.89 168.527 497.893 168.634C499.522 168.677 501.131 168.684 502.716 168.66C498.651 155.224 494.155 142.422 489.309 130.418ZM466.354 126.632C466.897 138.861 467.037 151.426 466.789 164.245C472.53 165.648 478.16 166.719 483.628 167.456C481.894 153.919 479.722 141.071 477.154 129.089C473.647 128.473 470.036 127.654 466.354 126.632ZM500.118 129.961C497.345 130.33 494.41 130.495 491.344 130.465C496.157 142.454 500.617 155.225 504.653 168.614C510.004 168.439 515.078 167.873 519.81 166.917C513.649 154.004 507.047 141.644 500.118 129.961ZM452.804 122.067C450.679 133.375 448.258 145.29 445.55 157.688C452.093 160.124 458.574 162.16 464.931 163.786C465.173 150.935 465.022 138.343 464.461 126.094C460.636 124.967 456.74 123.621 452.804 122.067ZM225.911 81.9926C218.962 84.0053 212.043 86.1981 205.177 88.5868C193.087 92.7919 181.152 97.5936 169.478 103.044C170.89 111.922 173.426 121.051 177.022 130.325C195.071 120.526 213.822 111.901 232.83 104.425C229.733 96.8249 227.411 89.321 225.911 81.9926ZM509.062 127.847C506.905 128.624 504.581 129.226 502.109 129.655C508.997 141.316 515.56 153.641 521.687 166.511C525.837 165.563 529.711 164.306 533.265 162.737C525.619 150.585 517.514 138.921 509.062 127.847ZM559.62 126.861C559.607 130.35 559.212 133.732 558.413 136.98C571.715 148.546 584.091 161.084 595.219 174.895C595.858 168.311 595.355 161.315 593.746 154.048C583.555 144.496 571.879 135.369 559.62 126.861ZM441.922 117.261C437.437 127.776 432.708 138.761 427.769 150.124C433.12 152.69 438.473 154.991 443.79 157.026C446.5 144.607 448.921 132.677 451.044 121.359C448.016 120.117 444.971 118.751 441.922 117.261ZM361.106 103.058C349.711 108.15 338.075 113.81 326.321 119.998C322.624 121.943 318.919 123.944 315.203 125.991C320.569 131.836 326.421 137.632 332.724 143.323C346.217 133.059 359.601 123.574 372.672 115.016C368.509 111.1 364.646 107.103 361.106 103.058ZM516.787 123.747C515.035 125.079 513.055 126.209 510.874 127.139C519.289 138.192 527.36 149.827 534.976 161.945C538.681 160.151 542.009 158.002 544.909 155.497C535.773 144.157 526.303 133.558 516.787 123.747ZM431.917 111.92C425.169 121.254 418.162 131.028 410.958 141.166C411.731 141.621 412.51 142.073 413.292 142.521C417.544 144.955 421.818 147.215 426.095 149.31C431.036 137.941 435.766 126.952 440.253 116.434C437.737 115.166 435.219 113.817 432.712 112.382C432.446 112.229 432.183 112.073 431.917 111.92ZM285.818 88.5828C268.985 93.3156 252.036 98.9354 235.278 105.457C238.293 112.595 241.997 119.834 246.359 127.107C262.414 118.554 278.777 110.829 295.23 104.041C294.426 102.868 293.64 101.697 292.878 100.527C290.276 96.5318 287.92 92.5439 285.818 88.5828ZM591.087 139.222C592.943 143.905 594.4 148.533 595.439 153.076C600.039 157.408 604.336 161.832 608.253 166.326C602.99 156.978 597.257 147.934 591.087 139.222ZM419.608 104.002C410.552 111.56 401.227 119.738 391.719 128.452C397.256 132.551 403.147 136.488 409.357 140.211C416.557 130.076 423.562 120.306 430.309 110.973C426.57 108.746 422.997 106.416 419.608 104.002ZM521.646 118.677C520.672 120.102 519.533 121.396 518.238 122.556C527.729 132.349 537.176 142.925 546.294 154.238C548.691 151.96 550.759 149.417 552.461 146.604C552.491 146.555 552.517 146.504 552.547 146.455C542.256 136.18 531.793 126.953 521.646 118.677ZM349.057 87.2383C332.152 92.0394 315.082 97.9606 298.093 104.882C302.725 111.453 308.014 118.045 313.917 124.579C317.774 122.45 321.622 120.371 325.458 118.351C337.065 112.242 348.564 106.643 359.837 101.592C355.787 96.8469 352.183 92.0431 349.057 87.2383ZM171.815 56.4341C156.574 62.2841 141.399 69.4884 126.444 78.2298C124.003 84.8169 122.343 91.6743 121.441 98.7555C136.112 89.5664 151.371 81.8852 167.002 75.5272C167.841 68.9288 169.433 62.547 171.815 56.4341ZM128.499 68.778C118.07 76.6294 108.166 85.0807 98.8365 94.0723C107.437 87.813 116.145 82.1214 124.93 76.9604C125.982 74.186 127.168 71.4563 128.499 68.778ZM408.761 95.4665C398.076 101.282 387.007 107.914 375.685 115.262C380.19 119.392 385.037 123.429 390.201 127.324C399.692 118.617 409.008 110.442 418.056 102.88C414.771 100.476 411.666 97.9965 408.761 95.4665ZM558.033 113.781C558.903 117.449 559.425 121.05 559.576 124.555C571.469 132.749 582.866 141.548 592.953 150.77C591.63 145.758 589.79 140.633 587.457 135.435C579.13 127.639 569.007 120.392 558.033 113.781ZM223.95 60.091C205.264 64.0871 186.747 69.5753 168.726 76.8303C167.835 84.6404 168.009 92.7688 169.191 101.129C180.768 95.7449 192.596 90.9953 204.573 86.8294C211.522 84.4125 218.521 82.1927 225.552 80.1589C224.269 73.286 223.719 66.5751 223.95 60.091ZM524.403 112.888C523.971 114.341 523.38 115.737 522.635 117.073C532.76 125.324 543.21 134.523 553.496 144.764C554.692 142.491 555.631 140.11 556.318 137.633C546.173 128.871 535.488 120.67 524.403 112.888ZM277.874 70.2523C261.162 73.0343 244.353 76.7325 227.709 81.4756C229.182 88.7286 231.48 96.1753 234.564 103.74C251.265 97.2393 268.158 91.6313 284.938 86.8998C282.052 81.2771 279.684 75.7117 277.874 70.2523ZM465.214 82.0926C470.475 95.1117 475.003 110.411 478.715 127.463C481.674 127.945 484.552 128.279 487.325 128.457C487.733 128.483 488.137 128.501 488.539 128.521C481.425 111.158 473.571 95.5107 465.214 82.0926ZM461.841 78.8633C464.037 93.4244 465.501 108.756 466.266 124.671C469.833 125.68 473.33 126.498 476.728 127.121C472.68 108.705 467.682 92.3942 461.841 78.8633ZM468.805 84.3814C476.593 97.3443 483.917 112.222 490.584 128.593C493.57 128.656 496.408 128.529 499.075 128.217C489.48 112.204 479.288 97.4854 468.805 84.3814ZM525.334 105.301C525.394 107.245 525.25 109.129 524.887 110.942C535.965 118.694 546.656 126.87 556.819 135.6C557.519 132.39 557.821 129.035 557.739 125.564C550.828 120.826 543.746 116.284 536.654 111.979C532.875 109.684 529.093 107.456 525.334 105.301ZM400.37 87.4541C388.311 91.6118 375.76 96.5655 362.892 102.26C366.38 106.215 370.183 110.127 374.281 113.962C385.564 106.626 396.608 99.9916 407.282 94.159C404.825 91.9534 402.516 89.7139 400.37 87.4541ZM459.93 78.7038C458.218 91.2493 455.954 105.179 453.156 120.202C456.941 121.709 460.692 123.012 464.372 124.116C463.592 108.333 462.122 93.1347 459.93 78.7038ZM471.254 84.4622C481.589 97.5042 491.635 112.098 501.09 127.943C503.514 127.559 505.78 127.01 507.872 126.298C496.201 111.142 483.894 97.109 471.254 84.4622ZM342.548 75.8365C324.68 78.8395 306.247 82.9143 287.661 88.0712C289.684 91.8536 291.949 95.6693 294.444 99.5028C295.271 100.772 296.124 102.043 297 103.315C313.998 96.3743 331.083 90.432 348.011 85.6016C347.726 85.1458 347.439 84.6927 347.161 84.2369C345.455 81.4337 343.917 78.6286 342.548 75.8365ZM457.995 79.108C453.296 90.4156 448.161 102.617 442.654 115.541C445.576 116.973 448.494 118.288 451.394 119.487C454.106 104.897 456.313 91.3479 457.995 79.108ZM473.69 84.263C486.12 96.7984 498.222 110.662 509.702 125.611C511.85 124.733 513.785 123.667 515.478 122.408C501.295 107.897 487.046 95.1337 473.69 84.263ZM456.09 78.8484C448.85 88.6357 441.125 99.196 433.019 110.398C433.228 110.52 433.436 110.644 433.649 110.764C436.089 112.162 438.538 113.477 440.985 114.712C446.401 102.002 451.456 89.9943 456.09 78.8484ZM553.841 101.27C555.275 104.617 556.46 107.937 557.372 111.213C567.268 117.074 576.544 123.459 584.529 130.308C579.902 124.24 575.06 118.343 570.011 112.633C565.508 108.516 560.002 104.732 553.841 101.27ZM484.265 90.6546C494.898 99.7499 505.935 109.961 516.934 121.221C518.19 120.105 519.283 118.866 520.199 117.501C507.333 107.089 495.017 98.2071 484.265 90.6546ZM185.001 34.6991C166.167 43.5747 148.415 54.1594 131.935 66.2268C130.278 69.2322 128.809 72.3082 127.524 75.4492C142.449 66.8723 157.588 59.8137 172.78 54.078C173.819 51.651 174.982 49.2667 176.28 46.932C178.751 42.487 181.717 38.4815 185.001 34.6991ZM455.782 76.147C444.868 83.7547 433.23 92.6933 421.094 102.764C424.363 105.076 427.806 107.314 431.408 109.455C440.002 97.58 448.169 86.4267 455.782 76.147ZM391.993 77.426C378.516 79.7264 364.788 82.8404 350.942 86.7073C354.04 91.4202 357.608 96.1353 361.616 100.796C374.428 95.1098 386.94 90.1451 398.981 85.9663C396.388 83.1342 394.053 80.2768 391.993 77.426ZM523.637 95.9988C524.407 98.4079 524.924 100.77 525.174 103.062C529.307 105.418 533.471 107.861 537.63 110.387C544.342 114.461 551.055 118.751 557.629 123.225C557.378 119.724 556.754 116.118 555.772 112.434C545.516 106.398 534.583 100.911 523.725 96.0381C523.697 96.0253 523.667 96.0119 523.637 95.9988ZM474.385 81.4707C487.232 90.4266 503.676 101.739 521.172 115.885C521.868 114.578 522.403 113.198 522.783 111.753C507.287 100.969 491.028 90.9964 474.385 81.4707ZM227.215 40.7815C209.628 44.0952 191.867 48.9157 174.179 55.5412C171.639 61.6556 169.925 68.0671 168.995 74.7196C186.973 67.5507 205.432 62.1246 224.045 58.1691C224.406 52.1507 225.451 46.3374 227.215 40.7815ZM273.982 52.7802C261.704 53.7986 249.373 55.3543 237.081 57.5266C233.328 58.1895 229.58 58.9089 225.837 59.6888C225.569 66.1166 226.086 72.7899 227.351 79.6441C243.927 74.9276 260.661 71.2416 277.3 68.4618C275.639 63.1094 274.52 57.8667 273.982 52.7802ZM337.749 63.9405C318.848 64.8251 299.369 66.7551 279.738 69.9447C281.538 75.3182 283.894 80.8145 286.777 86.3873C305.37 81.2134 323.817 77.1192 341.712 74.0924C340.125 70.6801 338.799 67.2889 337.749 63.9405ZM454.136 75.0307C440.706 79.5717 426.033 86.1734 410.523 94.5185C413.344 96.9485 416.354 99.3327 419.537 101.647C431.63 91.5967 443.235 82.6585 454.136 75.0307ZM474.992 79.665C491.543 89.13 507.738 99.0475 523.198 109.769C523.481 107.993 523.546 106.133 523.401 104.201C505.851 94.2359 488.888 85.8762 474.992 79.665ZM450.057 74.4843C435.5 76.8191 419.418 80.9831 402.317 86.7822C404.404 88.9478 406.643 91.0977 409.027 93.2145C423.513 85.3884 437.299 79.0575 450.057 74.4843ZM519.618 86.7749C520.872 89.0637 521.933 91.3381 522.79 93.5791C523.358 93.8312 523.928 94.0842 524.498 94.3396C534.794 98.9596 545.182 104.145 555.024 109.839C554.005 106.539 552.707 103.184 551.142 99.7957C541.614 94.7364 530.719 90.4051 519.618 86.7749ZM387.488 70.4305C373.703 71.3939 359.288 73.0855 344.472 75.5172C345.75 78.0847 347.178 80.6698 348.756 83.2623C349.125 83.8655 349.501 84.4676 349.883 85.0712C363.68 81.1987 377.365 78.0685 390.808 75.7404C390.581 75.4088 390.354 75.0795 390.134 74.7481C389.179 73.3073 388.298 71.8655 387.488 70.4305ZM474.606 77.4549C488.454 83.6013 505.473 91.9327 523.138 101.906C522.792 99.6689 522.183 97.3492 521.319 94.9676C504.447 87.5282 487.927 81.6117 474.606 77.4549ZM548.345 90.4167C549.906 93.0986 551.321 95.7761 552.575 98.4448C556.061 100.317 559.369 102.291 562.44 104.367C557.888 99.5728 553.185 94.921 548.345 90.4167ZM449.131 72.7482C431.544 72.4449 413.059 73.947 394.056 77.0792C396.085 79.8216 398.377 82.5714 400.912 85.3002C418.153 79.4131 434.396 75.1584 449.131 72.7482ZM335.154 51.8517C315.812 50.9039 295.906 51.051 275.842 52.6277C276.375 57.6455 277.49 62.8367 279.155 68.1548C298.795 64.9517 318.284 63.0056 337.199 62.1033C336.208 58.6267 335.521 55.2016 335.154 51.8517ZM384.267 63.8184C369.951 63.218 355.01 63.1914 339.676 63.8527C340.725 67.1137 342.047 70.4251 343.627 73.7703C358.383 71.3317 372.754 69.6245 386.508 68.6348C385.662 67.0184 384.914 65.4108 384.267 63.8184ZM513.031 76.8042C514.297 78.4439 515.476 80.0835 516.56 81.7187C517.145 82.6004 517.7 83.4838 518.231 84.3641C529.189 87.8601 540.087 92.0543 549.783 96.9852C547.943 93.3216 545.801 89.6243 543.365 85.9239C535.008 81.7101 524.252 78.7885 513.031 76.8042ZM234.874 24.6694C219.951 26.2943 204.705 28.9295 189.252 32.7684C184.877 37.4216 180.988 42.2884 177.909 47.8283C176.935 49.58 176.039 51.3617 175.214 53.1695C192.791 46.6991 210.431 41.989 227.895 38.7551C229.368 34.5831 231.258 30.5632 233.583 26.7201C234.002 26.0292 234.432 25.3452 234.874 24.6694ZM474.561 75.4874C487.597 79.5323 503.754 85.2792 520.343 92.5037C519.421 90.3491 518.298 88.152 516.985 85.9254C516.331 85.7182 515.675 85.5148 515.022 85.3127C500.696 80.8893 486.362 77.639 474.561 75.4874ZM274.594 35.2519C259.747 35.9629 244.594 37.6129 229.303 40.3933C227.455 45.9227 226.343 51.7326 225.941 57.7697C229.545 57.0235 233.154 56.3311 236.768 55.6929C249.108 53.5119 261.488 51.9513 273.81 50.9283C273.382 45.4942 273.63 40.2492 274.594 35.2519ZM443.136 70.8544C427.005 69.2274 408.925 69.0287 389.557 70.2858C390.22 71.4207 390.929 72.564 391.691 73.7122C392.064 74.2726 392.449 74.832 392.842 75.3939C410.113 72.502 426.972 70.9477 443.136 70.8544ZM499.82 74.8886C489.655 73.7144 479.765 73.1961 471.587 73.0667C484.006 75.2029 499.748 78.6487 515.489 83.5036C515.329 83.255 515.169 83.0039 515.003 82.7548C513.589 80.6225 512.008 78.4802 510.274 76.3378C506.801 75.7733 503.296 75.2904 499.82 74.8886ZM431.408 68.0759C417.389 66.0814 402.255 64.6396 386.329 63.9074C386.972 65.4149 387.713 66.9436 388.547 68.4886C403.708 67.4719 418.097 67.3373 431.408 68.0759ZM381.967 56.2909C367.5 54.2662 352.456 52.7636 337.046 51.9502C337.423 55.2271 338.116 58.5894 339.114 62.014C354.386 61.341 369.273 61.3467 383.548 61.9231C382.867 60.0157 382.336 58.1352 381.967 56.2909ZM519.59 66.6272C516.223 65.3018 511.755 64.7262 506.657 64.7109C505.195 64.7066 503.687 64.7506 502.145 64.8325C505.521 68.0474 508.576 71.3228 511.278 74.6112C521.017 76.2271 530.562 78.5314 538.664 81.771C532.507 76.4901 526.142 71.4379 519.59 66.6272ZM335.735 37.3536C316.876 35.1975 296.992 34.297 276.513 35.1684C275.513 40.117 275.246 45.3393 275.673 50.776C295.739 49.1976 315.643 49.0405 334.983 49.9777C334.663 45.612 334.899 41.3851 335.735 37.3536ZM383.932 56.5702C384.321 58.3409 384.867 60.1576 385.564 62.0104C404.252 62.8382 421.865 64.6376 437.891 67.1627C421.265 62.9914 403.116 59.3267 383.932 56.5702ZM499.595 65.0021C496.498 65.2462 493.296 65.6314 490.089 66.1199C481.73 67.3928 473.364 69.3415 466.715 71.1729C475.727 71.1476 487.684 71.6106 500.047 73.039C502.839 73.3614 505.654 73.7345 508.464 74.162C505.816 71.0804 502.849 68.0144 499.595 65.0021ZM383.656 45.8017C383.096 48.549 383.077 51.5116 383.569 54.6354C407.628 58.0633 430.073 62.918 449.958 68.414C432.431 60.2544 409.778 52.0548 383.656 45.8017ZM490.299 57.1685C486.766 58.1713 483.196 59.5645 479.756 61.1672C474.064 63.8193 468.799 67.0031 464.741 69.7935C471.669 67.8294 480.743 65.6608 489.821 64.2786C492.467 63.8756 495.118 63.5421 497.719 63.2967C495.38 61.2183 492.903 59.172 490.299 57.1685ZM479.769 49.7764C477.003 51.939 474.28 54.6237 471.745 57.486C468.432 61.2255 465.495 65.2058 463.254 68.5639C467.447 65.6478 472.978 62.2767 478.977 59.4811C482.034 58.057 485.232 56.7703 488.452 55.7728C485.69 53.7178 482.794 51.713 479.769 49.7764ZM454.046 36.4685C454.901 39.3969 455.704 42.6702 456.438 46.0605C457.98 53.1825 459.237 60.8649 460.098 67.0253C461.399 61.4393 463.437 52.6625 465.914 41.8555C461.945 39.845 457.976 38.0499 454.046 36.4685ZM467.622 42.7354C465.24 53.122 463.273 61.5973 461.988 67.1143C464.234 63.7838 467.115 59.9115 470.352 56.2581C472.755 53.5456 475.381 50.9205 478.106 48.7243C476.456 47.6963 474.768 46.6877 473.047 45.7025C471.241 44.669 469.432 43.6803 467.622 42.7354ZM438.648 31.3055C441.65 35.8307 444.581 40.6927 447.302 45.4992C451.56 53.0192 455.326 60.4358 458.107 66.2646C457.255 60.328 456.062 53.1442 454.615 46.4666C453.765 42.5382 452.83 38.7993 451.836 35.5981C447.364 33.884 442.95 32.4533 438.648 31.3055ZM278.854 22.6442C265.362 22.434 251.472 22.9702 237.282 24.4156C236.548 25.4815 235.846 26.5678 235.175 27.6745C233.106 31.0958 231.389 34.6682 230.012 38.3724C245.201 35.6605 260.248 34.0527 274.993 33.367C275.861 29.6379 277.14 26.0551 278.854 22.6442ZM385.88 39.9476C385.132 41.2264 384.541 42.5777 384.111 43.9967C406.116 49.2652 425.672 55.9068 441.797 62.7458C427.169 55.0642 408.183 46.8976 385.88 39.9476ZM422.45 28.2667C421.409 28.1611 420.382 28.0751 419.369 28.0101C416.561 27.8301 413.868 27.8087 411.309 27.94C414.236 30.1653 417.153 32.4573 420.029 34.7832C432.231 44.6527 443.771 55.1597 452.57 63.6804C446.256 55.1524 438.216 45.0436 429.881 35.9681C427.415 33.284 424.923 30.6974 422.45 28.2667ZM337.598 37.5696C336.758 41.5387 336.523 45.726 336.862 50.0749C352.22 50.8763 367.211 52.3596 381.636 54.3618C381.196 51.2224 381.25 48.2066 381.841 45.3713C367.967 42.118 353.136 39.4205 337.598 37.5696ZM425.458 28.6249C427.396 30.5796 429.339 32.6141 431.257 34.7043C439.847 44.0563 448.118 54.487 454.531 63.186C452.042 58.1462 449.012 52.3153 445.678 46.4226C442.611 41.0064 439.298 35.5553 435.928 30.6164C432.341 29.7498 428.84 29.0838 425.458 28.6249ZM408.483 28.1528C405.218 28.4814 402.201 29.0848 399.471 29.9563C417.734 40.4747 434.936 52.2032 448.12 62.0024C439.834 54.1231 429.6 44.9274 418.85 36.2332C415.428 33.4649 411.955 30.7548 408.483 28.1528ZM397.163 30.784C395.038 31.638 393.122 32.678 391.436 33.9013C410.662 42.3031 427.776 51.3379 441.296 59.3258C428.853 50.3478 413.638 40.2187 397.651 31.0623C397.489 30.9692 397.325 30.8769 397.163 30.784ZM243.936 13.5864C228.256 17.558 213.086 22.6295 198.507 28.7046C211.269 25.9248 223.872 23.9405 236.25 22.6488C238.535 19.4166 241.107 16.3804 243.936 13.5864ZM503.713 55.6816C500.236 55.2846 496.451 55.6695 492.581 56.5778C495.287 58.7032 497.855 60.8748 500.271 63.0815C502.465 62.9253 504.612 62.8417 506.674 62.848C509.757 62.8572 512.677 63.0664 515.31 63.5363C511.505 60.8372 507.639 58.2182 503.713 55.6816ZM389.788 35.2198C388.719 36.1656 387.769 37.2015 386.944 38.3269C402.361 43.1543 416.196 48.5547 428.104 53.9773C416.836 47.8104 403.87 41.338 389.788 35.2198ZM338.73 28.4542C320.616 25.2279 301.233 23.1154 280.927 22.6831C279.161 26.0367 277.835 29.5789 276.934 33.2842C297.415 32.4417 317.301 33.3614 336.162 35.5287C336.788 33.0894 337.641 30.7267 338.73 28.4542ZM340.635 28.7979C339.531 31.0195 338.665 33.3402 338.032 35.7475C353.576 37.6079 368.41 40.3084 382.293 43.5641C382.727 42.1138 383.318 40.7199 384.063 39.3852C370.679 35.2882 356.131 31.6382 340.635 28.7979ZM486.967 45.5584C485.124 46.2281 483.242 47.2725 481.371 48.5862C484.632 50.6958 487.75 52.8822 490.711 55.1295C494.041 54.2456 497.366 53.6995 500.55 53.664C496.093 50.8561 491.566 48.1524 486.967 45.5584ZM291.126 7.4429C287.369 7.05615 283.62 6.75946 279.884 6.56932C268.918 8.08966 258.152 10.1346 247.613 12.6756C244.326 15.6159 241.349 18.8799 238.727 22.3993C252.759 21.0356 266.494 20.5538 279.837 20.796C280.102 20.3229 280.372 19.8508 280.653 19.3848C283.419 14.8138 286.97 10.8717 291.126 7.4429ZM347.402 19.3924C345.351 21.4493 343.563 23.7184 342.06 26.2003C341.887 26.4882 341.718 26.7788 341.554 27.0703C357.085 29.9414 371.666 33.6196 385.078 37.744C385.908 36.5368 386.858 35.4272 387.922 34.4115C375.156 28.933 361.508 23.7653 347.402 19.3924ZM468.052 40.856C470.032 41.8814 472.01 42.9579 473.982 44.0869C475.927 45.2006 477.83 46.345 479.687 47.5134C481.404 46.2584 483.147 45.1911 484.893 44.4C479.719 41.5305 474.457 38.7985 469.118 36.2069C468.756 37.7922 468.399 39.3427 468.052 40.856ZM293.744 7.72473C289.101 11.3036 285.199 15.4624 282.247 20.341C282.147 20.5071 282.05 20.6748 281.951 20.8416C302.211 21.3268 321.547 23.4699 339.62 26.716C339.89 26.2214 340.174 25.7313 340.466 25.246C341.881 22.9063 343.535 20.7526 345.403 18.7832C328.567 13.6702 311.11 9.71174 293.744 7.72473ZM358.001 11.7215C354.634 13.4791 351.602 15.5441 348.951 17.9232C363.074 22.3446 376.726 27.5462 389.48 33.0498C391.153 31.7175 393.045 30.5788 395.131 29.6304C382.82 22.6961 370.148 16.4169 358.001 11.7215ZM450.882 28.0344C451.666 29.5223 452.402 31.3617 453.091 33.4042C453.177 33.6593 453.259 33.9199 453.342 34.1828C457.647 35.8629 461.995 37.7973 466.342 39.9835C466.687 38.4833 467.039 36.947 467.398 35.3772C461.971 32.7832 456.464 30.3331 450.882 28.0344ZM371.878 6.62745C367.706 7.64187 363.823 8.96532 360.271 10.6052C372.489 15.4455 385.133 21.8025 397.327 28.7292C400.063 27.7154 403.078 26.988 406.319 26.5403C394.071 17.5289 381.921 10.0573 371.878 6.62745ZM430.7 20.4955C432.82 23.0337 434.958 25.9036 437.072 28.9718C441.635 30.103 446.325 31.5561 451.081 33.3214C449.996 30.2303 448.891 27.9677 447.828 26.7952C442.192 24.5413 436.48 22.4407 430.7 20.4955ZM379.604 7.77094C388.722 12.0405 398.91 18.6801 409.036 26.2344C412.338 25.944 415.844 25.9185 419.5 26.1529C419.775 26.1705 420.053 26.1919 420.33 26.2126C417.715 23.7346 415.128 21.4571 412.614 19.462C407.502 15.4038 402.771 12.5828 398.767 11.5274C398.392 11.4426 398.02 11.3544 397.645 11.2709C391.686 9.94064 385.67 8.77201 379.604 7.77094ZM407.79 13.7101C409.742 14.9432 411.75 16.3884 413.782 18.0016C416.887 20.4657 420.083 23.3462 423.301 26.4859C426.858 26.8735 430.553 27.4892 434.345 28.3332C431.963 24.9742 429.564 21.9145 427.221 19.3462C420.824 17.2731 414.344 15.3942 407.79 13.7101ZM355.708 10.8528C344.776 6.78648 334.32 4.06514 324.996 3.38388C316.165 3.40899 307.268 3.78701 298.32 4.52903C297.51 5.04353 296.717 5.57052 295.942 6.11269C313.099 8.22052 330.31 12.2025 346.899 17.2894C349.491 14.8334 352.443 12.6913 355.708 10.8528ZM294.491 4.86711C293.124 4.99615 291.757 5.13546 290.388 5.28158C290.04 5.31874 289.691 5.35679 289.345 5.39501C290.638 5.51685 291.932 5.64821 293.226 5.79222C293.644 5.4797 294.065 5.17061 294.491 4.86711ZM367.244 5.97452C357.742 4.77592 348.126 3.98393 338.419 3.61816C344.67 5.05898 351.214 7.13202 357.906 9.68595C360.81 8.22959 363.933 6.99444 367.244 5.97452Z" fill="url(#paint0_linear_2375_925)" fill-opacity="0.2"/>
<defs>
<linearGradient id="paint0_linear_2375_925" x1="60.8405" y1="109.414" x2="596.768" y2="563.688" gradientUnits="userSpaceOnUse">
<stop offset="0.0721154" stop-color="#9B9B9B" stop-opacity="0.2"/>
<stop offset="0.368896" stop-color="#9B9B9B"/>
<stop offset="0.80774" stop-color="#9B9B9B" stop-opacity="0.5"/>
</linearGradient>
</defs>
</svg>
