<svg width="1439" height="328" viewBox="0 0 1439 328" fill="none" xmlns="http://www.w3.org/2000/svg">
<g clip-path="url(#clip0_2375_759)">
<path d="M1232.13 298L1232.25 298.067L1281.77 326.657H1439V327.657H1281.5L1281.38 327.59L1231.87 299H1013.31L996.354 315.955L996.207 316.101H923V315.101H995.793L1012.89 298H1232.13ZM29.5 317C29.5 313.134 26.366 310 22.5 310C18.634 310 15.5 313.134 15.5 317C15.5 320.866 18.634 324 22.5 324C26.366 324 29.5 320.866 29.5 317ZM486.5 317C486.5 313.134 483.366 310 479.5 310C475.634 310 472.5 313.134 472.5 317C472.5 320.866 475.634 324 479.5 324C483.366 324 486.5 320.866 486.5 317ZM433.5 316C433.5 312.134 430.366 309 426.5 309C422.634 309 419.5 312.134 419.5 316C419.5 319.866 422.634 323 426.5 323C430.366 323 433.5 319.866 433.5 316ZM921.5 316C921.5 312.134 918.366 309 914.5 309C910.634 309 907.5 312.134 907.5 316C907.5 319.866 910.634 323 914.5 323C918.366 323 921.5 319.866 921.5 316ZM701.5 315C701.5 311.134 698.366 308 694.5 308C690.634 308 687.5 311.134 687.5 315C687.5 318.866 690.634 322 694.5 322C698.366 322 701.5 318.866 701.5 315ZM26.5 317C26.5 314.791 24.7091 313 22.5 313C20.2909 313 18.5 314.791 18.5 317C18.5 319.209 20.2909 321 22.5 321C24.7091 321 26.5 319.209 26.5 317ZM430.5 316C430.5 313.791 428.709 312 426.5 312C424.291 312 422.5 313.791 422.5 316C422.5 318.209 424.291 320 426.5 320C428.709 320 430.5 318.209 430.5 316ZM918.5 316C918.5 313.791 916.709 312 914.5 312C912.291 312 910.5 313.791 910.5 316C910.5 318.209 912.291 320 914.5 320C916.709 320 918.5 318.209 918.5 316ZM673.134 185.643L673.25 185.71L768.633 240.779H1173.13L1173.25 240.847L1281.77 303.5H1439V304.5H1281.5L1281.38 304.433L1172.87 241.779H768.366L768.25 241.713L672.867 186.643H410.064L343.707 253H0V252H343.293L409.65 185.643H673.134ZM40.5 281C40.5 277.134 37.366 274 33.5 274C29.634 274 26.5 277.134 26.5 281C26.5 284.866 29.634 288 33.5 288C37.366 288 40.5 284.866 40.5 281ZM1164.5 274C1164.5 270.134 1161.37 267 1157.5 267C1153.63 267 1150.5 270.134 1150.5 274C1150.5 277.866 1153.63 281 1157.5 281C1161.37 281 1164.5 277.866 1164.5 274ZM1424.5 274C1424.5 270.134 1421.37 267 1417.5 267C1413.63 267 1410.5 270.134 1410.5 274C1410.5 277.866 1413.63 281 1417.5 281C1421.37 281 1424.5 277.866 1424.5 274ZM1161.5 274C1161.5 271.791 1159.71 270 1157.5 270C1155.29 270 1153.5 271.791 1153.5 274C1153.5 276.209 1155.29 278 1157.5 278C1159.71 278 1161.5 276.209 1161.5 274ZM1271.5 241C1271.5 238.791 1269.71 237 1267.5 237C1265.29 237 1263.5 238.791 1263.5 241C1263.5 243.209 1265.29 245 1267.5 245C1269.71 245 1271.5 243.209 1271.5 241ZM684.134 163.5L684.25 163.567L768.633 212.286H1439V213.286H768.366L768.25 213.219L683.867 164.5H392.207L320.207 236.5H98.293L54.793 193H0V192H55.207L98.707 235.5H319.793L391.793 163.5H684.134ZM660.134 123L660.25 123.067L768.633 185.643H1439V186.643H768.366L768.25 186.575L659.867 124H343.707L248.207 219.5H98.293L54.793 176H0V175H55.207L98.707 218.5H247.793L343.293 123H660.134ZM305.5 132C305.5 128.134 302.366 125 298.5 125C294.634 125 291.5 128.134 291.5 132C291.5 135.866 294.634 139 298.5 139C302.366 139 305.5 135.866 305.5 132ZM138.5 186C138.5 183.791 136.709 182 134.5 182C132.291 182 130.5 183.791 130.5 186C130.5 188.209 132.291 190 134.5 190C136.709 190 138.5 188.209 138.5 186ZM1187.5 164C1187.5 160.134 1184.37 157 1180.5 157C1176.63 157 1173.5 160.134 1173.5 164C1173.5 167.866 1176.63 171 1180.5 171C1184.37 171 1187.5 167.866 1187.5 164ZM531.5 8C531.5 4.13401 528.366 1 524.5 1C520.634 1 517.5 4.13401 517.5 8C517.5 11.866 520.634 15 524.5 15C528.366 15 531.5 11.866 531.5 8ZM756.135 64.2129H1173.13L1173.25 64.2793L1306.13 141H1439V142H1305.87L1305.75 141.933L1172.87 65.2129H755.866L755.75 65.1455L683.75 23.5762L684.25 22.71L756.135 64.2129ZM416.5 95C416.5 91.134 413.366 88 409.5 88C405.634 88 402.5 91.134 402.5 95C402.5 98.866 405.634 102 409.5 102C413.366 102 416.5 98.866 416.5 95ZM381.5 64C381.5 60.134 378.366 57 374.5 57C370.634 57 367.5 60.134 367.5 64C367.5 67.866 370.634 71 374.5 71C378.366 71 381.5 67.866 381.5 64ZM413.5 95C413.5 92.7909 411.709 91 409.5 91C407.291 91 405.5 92.7909 405.5 95C405.5 97.2091 407.291 99 409.5 99C411.709 99 413.5 97.2091 413.5 95ZM868.134 8L868.25 8.06738L933.633 45.8164H1281.77L1281.88 45.8838L1366.44 94.7031H1439V95.7031H1366.18L1366.06 95.6357L1281.5 46.8164H933.366L933.25 46.749L867.867 9H768.5V8H868.134ZM575.5 76C575.5 72.134 572.366 69 568.5 69C566.571 69 564.824 69.7791 563.558 71.041L563.5 71.1426L563.25 71.5752L563.132 71.5068C562.113 72.7226 561.5 74.2898 561.5 76C561.5 79.866 564.634 83 568.5 83C572.366 83 575.5 79.866 575.5 76ZM514.5 69C514.5 65.134 511.366 62 507.5 62C503.634 62 500.5 65.134 500.5 69C500.5 72.866 503.634 76 507.5 76C511.366 76 514.5 72.866 514.5 69ZM161.5 16C161.5 12.134 158.366 9 154.5 9C150.634 9 147.5 12.134 147.5 16C147.5 19.866 150.634 23 154.5 23C158.366 23 161.5 19.866 161.5 16ZM378.5 64C378.5 61.7909 376.709 60 374.5 60C372.291 60 370.5 61.7909 370.5 64C370.5 66.2091 372.291 68 374.5 68C376.709 68 378.5 66.2091 378.5 64ZM26.5 62C26.5 59.7909 24.7091 58 22.5 58C20.2909 58 18.5 59.7909 18.5 62C18.5 64.2091 20.2909 66 22.5 66C24.7091 66 26.5 64.2091 26.5 62ZM591.5 29C591.5 26.7909 589.709 25 587.5 25C585.291 25 583.5 26.7909 583.5 29C583.5 31.2091 585.291 33 587.5 33C589.709 33 591.5 31.2091 591.5 29ZM684.5 18C684.5 14.134 681.366 11 677.5 11C673.634 11 670.5 14.134 670.5 18C670.5 21.866 673.634 25 677.5 25C681.366 25 684.5 21.866 684.5 18ZM987.5 9C987.5 5.13401 984.366 2 980.5 2C976.634 2 973.5 5.13401 973.5 9C973.5 12.866 976.634 16 980.5 16C984.366 16 987.5 12.866 987.5 9ZM767.5 8C767.5 4.13401 764.366 1 760.5 1C756.634 1 753.5 4.13401 753.5 8C753.5 11.866 756.634 15 760.5 15C764.366 15 767.5 11.866 767.5 8ZM984.5 9C984.5 6.79086 982.709 5 980.5 5C978.291 5 976.5 6.79086 976.5 9C976.5 11.2091 978.291 13 980.5 13C982.709 13 984.5 11.2091 984.5 9ZM528.5 8C528.5 5.79086 526.709 4 524.5 4C522.291 4 520.5 5.79086 520.5 8C520.5 10.2091 522.291 12 524.5 12C526.709 12 528.5 10.2091 528.5 8ZM27.5 317C27.5 319.761 25.2614 322 22.5 322C19.7386 322 17.5 319.761 17.5 317C17.5 314.239 19.7386 312 22.5 312C25.2614 312 27.5 314.239 27.5 317ZM487.5 317C487.5 321.418 483.918 325 479.5 325C475.082 325 471.5 321.418 471.5 317C471.5 312.582 475.082 309 479.5 309C483.918 309 487.5 312.582 487.5 317ZM431.5 316C431.5 318.761 429.261 321 426.5 321C423.739 321 421.5 318.761 421.5 316C421.5 313.239 423.739 311 426.5 311C429.261 311 431.5 313.239 431.5 316ZM852.5 316C852.5 312.134 849.366 309 845.5 309C841.634 309 838.5 312.134 838.5 316C838.5 319.866 841.634 323 845.5 323C849.366 323 852.5 319.866 852.5 316ZM853.5 316C853.5 320.418 849.918 324 845.5 324C841.115 324 837.557 320.472 837.503 316.101H768.366L768.25 316.034L666.867 257.5H484.707L432.007 310.199C433.542 311.657 434.5 313.716 434.5 316C434.5 320.418 430.918 324 426.5 324C422.082 324 418.5 320.418 418.5 316C418.5 311.582 422.082 308 426.5 308C428.273 308 429.911 308.578 431.237 309.555L484.293 256.5H667.134L667.25 256.567L768.633 315.101H837.552C837.999 311.106 841.386 308 845.5 308C849.918 308 853.5 311.582 853.5 316ZM919.5 316C919.5 318.761 917.261 321 914.5 321C911.739 321 909.5 318.761 909.5 316C909.5 313.239 911.739 311 914.5 311C917.261 311 919.5 313.239 919.5 316ZM922.5 316C922.5 320.418 918.918 324 914.5 324C910.082 324 906.5 320.418 906.5 316C906.5 311.582 910.082 308 914.5 308C918.918 308 922.5 311.582 922.5 316ZM702.5 315C702.5 319.418 698.918 323 694.5 323C690.082 323 686.5 319.418 686.5 315C686.5 313.298 687.033 311.721 687.938 310.425L629.855 274H515.236L484.886 310.818L484.114 310.182L514.614 273.182L514.765 273H630.144L630.266 273.076L688.564 309.636C690.028 308.017 692.146 307 694.5 307C698.918 307 702.5 310.582 702.5 315ZM674.5 219C674.5 215.134 671.366 212 667.5 212C663.634 212 660.5 215.134 660.5 219C660.5 222.866 663.634 226 667.5 226C671.366 226 674.5 222.866 674.5 219ZM1162.5 274C1162.5 276.761 1160.26 279 1157.5 279C1154.74 279 1152.5 276.761 1152.5 274C1152.5 271.239 1154.74 269 1157.5 269C1160.26 269 1162.5 271.239 1162.5 274ZM1165.5 274C1165.5 278.418 1161.92 282 1157.5 282C1153.08 282 1149.5 278.418 1149.5 274H768.369L710.869 241.779H443.208L367.354 317.854L367.208 318H30.4355C29.9433 321.946 26.5795 325 22.5 325C18.0817 325 14.5 321.418 14.5 317C14.5 312.582 18.0817 309 22.5 309C26.9183 309 30.5 312.582 30.5 317H366.792L442.646 240.927L442.792 240.779H711.131L711.244 240.844L768.631 273H1149.56C1150.06 269.054 1153.42 266 1157.5 266C1161.92 266 1165.5 269.582 1165.5 274ZM1425.5 274C1425.5 278.418 1421.92 282 1417.5 282C1413.42 282 1410.06 278.946 1409.56 275H1394.83L1394.7 274.899L1350.83 241.779H1275.46C1275.07 245.832 1271.66 249 1267.5 249C1263.08 249 1259.5 245.418 1259.5 241C1259.5 236.582 1263.08 233 1267.5 233C1271.84 233 1275.38 236.463 1275.49 240.779H1351.17L1351.3 240.881L1395.17 274H1409.5C1409.5 269.582 1413.08 266 1417.5 266C1421.92 266 1425.5 269.582 1425.5 274ZM1260.5 241C1260.5 244.866 1263.63 248 1267.5 248C1271.37 248 1274.5 244.866 1274.5 241C1274.5 237.134 1271.37 234 1267.5 234C1263.63 234 1260.5 237.134 1260.5 241ZM1272.5 241C1272.5 243.761 1270.26 246 1267.5 246C1264.74 246 1262.5 243.761 1262.5 241C1262.5 238.239 1264.74 236 1267.5 236C1270.26 236 1272.5 238.239 1272.5 241ZM675.5 219C675.5 223.418 671.918 227 667.5 227C663.25 227 659.776 223.685 659.518 219.5H425.707L343.707 301.5H117.793L98.293 282H41.4355C40.9433 285.946 37.5795 289 33.5 289C29.0817 289 25.5 285.418 25.5 281C25.5 276.582 29.0817 273 33.5 273C37.9183 273 41.5 276.582 41.5 281H98.707L118.207 300.5H343.293L425.293 218.5H659.518C659.776 214.315 663.25 211 667.5 211C671.918 211 675.5 214.582 675.5 219ZM127.5 186C127.5 189.866 130.634 193 134.5 193C138.366 193 141.5 189.866 141.5 186C141.5 182.134 138.366 179 134.5 179C130.634 179 127.5 182.134 127.5 186ZM139.5 186C139.5 188.761 137.261 191 134.5 191C131.739 191 129.5 188.761 129.5 186C129.5 183.239 131.739 181 134.5 181C137.261 181 139.5 183.239 139.5 186ZM594.5 29C594.5 25.134 591.366 22 587.5 22C583.634 22 580.5 25.134 580.5 29C580.5 32.866 583.634 36 587.5 36C591.366 36 594.5 32.866 594.5 29ZM306.5 132C306.5 136.418 302.918 140 298.5 140C296.471 140 294.619 139.242 293.209 137.997L244.564 186.643H142.472C142.144 190.76 138.702 194 134.5 194C130.082 194 126.5 190.418 126.5 186C126.5 181.582 130.082 178 134.5 178C138.798 178 142.303 181.39 142.49 185.643H244.15L292.502 137.29C291.257 135.88 290.5 134.029 290.5 132C290.5 127.582 294.082 124 298.5 124C302.918 124 306.5 127.582 306.5 132ZM414.5 95C414.5 97.7614 412.261 100 409.5 100C406.739 100 404.5 97.7614 404.5 95C404.5 92.2386 406.739 90 409.5 90C412.261 90 414.5 92.2386 414.5 95ZM417.5 95C417.5 99.4183 413.918 103 409.5 103C405.319 103 401.888 99.792 401.532 95.7031H293.504L248.207 141H0V140H247.793L293.09 94.7031H401.508C401.664 90.4224 405.181 87 409.5 87C413.918 87 417.5 90.5817 417.5 95ZM576.5 76C576.5 80.4183 572.918 84 568.5 84C564.082 84 560.5 80.4183 560.5 76C560.5 74.1081 561.158 72.3706 562.256 71.001L454.867 9H189.207L118.207 80H0V79H117.793L188.793 8H455.134L455.25 8.06738L562.944 70.2451C564.383 68.8555 566.342 68 568.5 68C572.918 68 576.5 71.5817 576.5 76ZM515.5 69C515.5 73.4183 511.918 77 507.5 77C503.082 77 499.5 73.4183 499.5 69C499.5 67.3078 500.026 65.7388 500.923 64.4463L430.867 24H207.207L135.207 96H0V95H134.793L206.793 23H431.134L431.25 23.0674L501.549 63.6543C503.013 62.025 505.137 61 507.5 61C511.918 61 515.5 64.5817 515.5 69ZM379.5 64C379.5 66.7614 377.261 69 374.5 69C371.739 69 369.5 66.7614 369.5 64C369.5 61.2386 371.739 59 374.5 59C377.261 59 379.5 61.2386 379.5 64ZM382.5 64C382.5 68.4183 378.918 72 374.5 72C370.319 72 366.888 68.792 366.532 64.7031H293.504L234.207 124H0V123H233.793L293.09 63.7031H366.508C366.664 59.4224 370.181 56 374.5 56C378.918 56 382.5 59.5817 382.5 64ZM15.5 62C15.5 65.866 18.634 69 22.5 69C26.366 69 29.5 65.866 29.5 62C29.5 58.134 26.366 55 22.5 55C18.634 55 15.5 58.134 15.5 62ZM27.5 62C27.5 64.7614 25.2614 67 22.5 67C19.7386 67 17.5 64.7614 17.5 62C17.5 59.2386 19.7386 57 22.5 57C25.2614 57 27.5 59.2386 27.5 62ZM592.5 29C592.5 31.7614 590.261 34 587.5 34C584.739 34 582.5 31.7614 582.5 29C582.5 26.2386 584.739 24 587.5 24C590.261 24 592.5 26.2386 592.5 29ZM595.5 29C595.5 30.6828 594.978 32.2428 594.091 33.5312L756.128 123H911.202L911.347 123.14L953.202 163.5H1172.52C1172.78 159.315 1176.25 156 1180.5 156C1184.92 156 1188.5 159.582 1188.5 164C1188.5 168.418 1184.92 172 1180.5 172C1176.25 172 1172.78 168.685 1172.52 164.5H952.798L952.653 164.36L910.798 124H755.871L755.759 123.938L593.466 34.3271C592.001 35.9666 589.872 37 587.5 37C583.082 37 579.5 33.4183 579.5 29C579.5 24.5817 583.082 21 587.5 21C591.918 21 595.5 24.5817 595.5 29ZM685.5 18C685.5 22.4183 681.918 26 677.5 26C673.082 26 669.5 22.4183 669.5 18C669.5 13.5817 673.082 10 677.5 10C681.918 10 685.5 13.5817 685.5 18ZM162.5 16C162.5 20.4183 158.918 24 154.5 24C152.522 24 150.714 23.2808 149.317 22.0918L108.707 62.7031H30.4678C30.1116 66.792 26.6813 70 22.5 70C18.0817 70 14.5 66.4183 14.5 62C14.5 57.5817 18.0817 54 22.5 54C26.8189 54 30.336 57.4224 30.4922 61.7031H108.293L148.597 21.3984C147.295 19.9755 146.5 18.0807 146.5 16C146.5 11.5817 150.082 8 154.5 8C158.918 8 162.5 11.5817 162.5 16ZM985.5 9C985.5 11.7614 983.261 14 980.5 14C977.739 14 975.5 11.7614 975.5 9C975.5 6.23858 977.739 4 980.5 4C983.261 4 985.5 6.23858 985.5 9ZM988.5 9C988.5 13.4183 984.918 17 980.5 17C976.082 17 972.5 13.4183 972.5 9C972.5 4.58172 976.082 1 980.5 1C984.58 1 987.943 4.05384 988.436 8H1274.92L1275.04 8.06738L1351.13 52H1394.79L1438.65 8.14648L1439.35 8.85352L1395.21 53H1350.87L1350.75 52.9326L1274.66 9H988.5ZM529.5 8C529.5 10.7614 527.261 13 524.5 13C521.739 13 519.5 10.7614 519.5 8C519.5 5.23858 521.739 3 524.5 3C527.261 3 529.5 5.23858 529.5 8ZM608.8 8L608.916 8.06738L756.135 93.0635H1173.13L1173.25 93.1299L1295.13 163.5H1439V164.5H1294.87L1294.75 164.433L1172.87 94.0635H755.866L755.75 93.9961L608.533 9H532.436C531.943 12.9462 528.58 16 524.5 16C520.082 16 516.5 12.4183 516.5 8C516.5 3.58172 520.082 3.86258e-07 524.5 0C528.918 -3.62634e-07 532.5 3.58172 532.5 8H608.8ZM768.5 8C768.5 12.4183 764.918 16 760.5 16C756.082 16 752.5 12.4183 752.5 8C752.5 3.58172 756.082 3.86258e-07 760.5 0C764.918 -3.62634e-07 768.5 3.58172 768.5 8Z" fill="#C9CACB" fill-opacity="0.55"/>
</g>
<defs>
<clipPath id="clip0_2375_759">
<rect width="1440" height="328" fill="white"/>
</clipPath>
</defs>
</svg>
