<svg width="166" height="166" viewBox="0 0 166 166" fill="none" xmlns="http://www.w3.org/2000/svg">
<path d="M82.7201 26.9871C52.1191 26.9871 27.313 51.8516 27.313 82.5249C27.313 113.197 52.1191 138.063 82.7201 138.063M82.7201 26.9871C113.32 26.9871 138.127 51.8516 138.127 82.5249M82.7201 26.9871V71.9649M82.7201 26.9871V0M82.7201 138.063C113.32 138.063 138.127 113.197 138.127 82.5249M82.7201 138.063V93.0848M82.7201 138.063V165.05M138.127 82.5249H93.2542M138.127 82.5249H165.05M71.7956 82.5249H0M48.091 82.5249C48.091 63.3545 63.5949 47.8129 82.7201 47.8129C101.845 47.8129 117.349 63.3545 117.349 82.5249C117.349 101.695 101.845 117.236 82.7201 117.236C63.5949 117.236 48.091 101.695 48.091 82.5249Z" stroke="#EAEBED" stroke-opacity="0.1"/>
</svg>
