<svg width="592" height="592" viewBox="0 0 592 592" fill="none" xmlns="http://www.w3.org/2000/svg">
<path d="M296.659 96.7836C186.914 96.7836 97.9525 185.955 97.9525 295.958C97.9525 405.958 186.914 495.133 296.659 495.133M296.659 96.7836C406.399 96.7836 495.365 185.955 495.365 295.958M296.659 96.7836V258.087M296.659 96.7836V0M296.659 495.133C406.399 495.133 495.365 405.958 495.365 295.958M296.659 495.133V333.83M296.659 495.133V591.917M495.365 295.958H334.437M495.365 295.958H591.917M257.48 295.958H0M172.468 295.958C172.468 227.208 228.07 171.471 296.659 171.471C365.248 171.471 420.849 227.208 420.849 295.958C420.849 364.709 365.248 420.442 296.659 420.442C228.07 420.442 172.468 364.709 172.468 295.958Z" stroke="#EAEBED" stroke-opacity="0.1"/>
</svg>
